<?xml version="1.0" encoding="UTF-8" standalone="no"?>
<svg
   id="Capa_1"
   enable-background="new 0 0 512 512"
   height="512"
   viewBox="0 0 512 512"
   width="512"
   version="1.1"
   sodipodi:docname="ghost.svg"
   inkscape:version="1.1.1 (3bf5ae0d25, 2021-09-20)"
   xmlns:inkscape="http://www.inkscape.org/namespaces/inkscape"
   xmlns:sodipodi="http://sodipodi.sourceforge.net/DTD/sodipodi-0.dtd"
   xmlns="http://www.w3.org/2000/svg"
   xmlns:svg="http://www.w3.org/2000/svg">
  <defs
     id="defs77" />
  <sodipodi:namedview
     id="namedview75"
     pagecolor="#ffffff"
     bordercolor="#666666"
     borderopacity="1.0"
     inkscape:pageshadow="2"
     inkscape:pageopacity="0.0"
     inkscape:pagecheckerboard="0"
     showgrid="false"
     inkscape:zoom="1.5644531"
     inkscape:cx="256"
     inkscape:cy="256"
     inkscape:window-width="1920"
     inkscape:window-height="1009"
     inkscape:window-x="-8"
     inkscape:window-y="-8"
     inkscape:window-maximized="1"
     inkscape:current-layer="Capa_1" />
  <g
     id="g72"
     transform="matrix(1.2406677,0,0,1.2598704,0,-128.29008)">
    <g
       id="g56">
      <path
         d="m 341.058,299.866 h 32.015 c 17.681,0 32.015,14.334 32.015,32.015 0,17.681 -14.334,32.015 -32.015,32.015 h -32.015 l -17.452,-32.015 z"
         fill="#e8e8e8"
         id="path44" />
      <path
         d="m 371.439,363.896 v -64.031 h -30.381 l -17.453,32.016 17.453,32.015 z"
         fill="#e0e0e0"
         id="path46" />
      <path
         d="m 174.327,109.423 c -92.083,0 -166.731,74.648 -166.731,166.731 v 180.253 c 0,15.43 7.854,29.799 20.841,38.13 12.7,8.147 28.983,8.147 41.683,0 12.7,-8.147 28.983,-8.147 41.683,0 12.7,8.147 28.983,8.147 41.683,0 12.7,-8.147 28.983,-8.147 41.683,0 12.7,8.147 28.983,8.147 41.683,0 12.7,-8.147 28.983,-8.147 41.683,0 12.7,8.147 28.983,8.147 41.683,0 12.988,-8.331 20.841,-22.7 20.841,-38.13 V 276.154 C 341.058,184.071 266.41,109.423 174.327,109.423 Z"
         fill="#e8e8e8"
         id="path48" />
      <g
         id="g52">
        <ellipse
           cx="214.336"
           cy="249.875"
           fill="#423e4f"
           rx="15.75"
           ry="17.625"
           id="ellipse50" />
      </g>
      <path
         d="m 56.58,328.811 c 0,-99.892 30.347,-185.189 128.342,-219.043 -3.505,-0.22 -7.035,-0.345 -10.595,-0.345 -92.083,0 -166.731,74.648 -166.731,166.731 v 180.253 c 0,15.43 7.854,29.799 20.841,38.13 12.7,8.147 28.983,8.147 41.683,0 12.7,-8.147 28.983,-8.147 41.683,0 5.993,3.845 12.785,5.851 19.62,6.067 C 85.387,457.764 56.58,396.657 56.58,328.811 Z"
         fill="#e0e0e0"
         id="path54" />
    </g>
    <g
       id="g70">
      <path
         d="m 0,276.154 v 96.578 c 0,4.195 3.401,7.595 7.595,7.595 4.194,0 7.595,-3.401 7.595,-7.595 v -96.578 c 0,-87.748 71.388,-159.136 159.136,-159.136 32.243,0 63.298,9.598 89.807,27.755 3.461,2.371 8.188,1.486 10.558,-1.974 2.371,-3.461 1.487,-8.188 -1.974,-10.558 C 243.669,112.344 209.646,101.828 174.325,101.828 78.202,101.827 0,180.03 0,276.154 Z"
         id="path58" />
      <path
         d="m 0,456.406 c 0,18.104 9.097,34.748 24.336,44.523 15.152,9.72 34.733,9.719 49.884,0 10.169,-6.523 23.312,-6.523 33.481,0 15.152,9.72 34.733,9.719 49.884,0 10.17,-6.523 23.312,-6.524 33.481,0 7.577,4.86 16.258,7.29 24.942,7.29 8.682,-10e-4 17.367,-2.431 24.942,-7.29 10.17,-6.523 23.313,-6.524 33.481,0 15.152,9.72 34.733,9.72 49.884,0 15.239,-9.775 24.336,-26.419 24.336,-44.523 v -84.915 h 24.42 c 21.841,0 39.61,-17.77 39.61,-39.611 0,-21.841 -17.769,-39.61 -39.61,-39.61 h -24.42 v -16.117 c 0,-46.722 -18.242,-90.606 -51.367,-123.569 -2.972,-2.958 -7.781,-2.947 -10.741,0.026 -2.959,2.974 -2.947,7.783 0.026,10.741 30.239,30.091 46.892,70.152 46.892,112.801 v 180.253 c 0,12.905 -6.485,24.769 -17.347,31.738 -10.169,6.523 -23.312,6.523 -33.481,0 -15.151,-9.719 -34.732,-9.72 -49.884,0 -10.169,6.523 -23.312,6.524 -33.481,0 -15.151,-9.719 -34.732,-9.719 -49.884,0 -10.169,6.523 -23.312,6.524 -33.482,0 -15.152,-9.719 -34.732,-9.719 -49.884,0 -10.169,6.523 -23.311,6.524 -33.482,0 -10.862,-6.968 -17.347,-18.832 -17.347,-31.738 v -53.294 c 0,-4.195 -3.401,-7.595 -7.595,-7.595 C 3.4,395.516 0,398.918 0,403.113 Z M 373.073,307.461 c 13.465,0 24.42,10.955 24.42,24.42 0,13.466 -10.955,24.42 -24.42,24.42 h -24.42 v -48.84 z"
         id="path60" />
      <path
         d="M 161.776,356.301 H 129.76 c -4.195,0 -7.595,3.4 -7.595,7.595 0,4.194 3.401,7.595 7.595,7.595 h 32.015 c 21.841,0 39.61,-17.77 39.61,-39.611 0,-21.841 -17.769,-39.61 -39.61,-39.61 H 129.76 c -4.195,0 -7.595,3.401 -7.595,7.595 0,4.195 3.401,7.595 7.595,7.595 h 32.015 c 13.465,0 24.42,10.955 24.42,24.42 0.001,13.466 -10.954,24.421 -24.419,24.421 z"
         id="path62" />
      <path
         d="m 146.477,239.516 v -14.61 c 0,-4.195 -3.401,-7.595 -7.595,-7.595 -4.195,0 -7.595,3.401 -7.595,7.595 v 14.61 c 0,4.195 3.401,7.595 7.595,7.595 4.195,0 7.595,-3.4 7.595,-7.595 z"
         id="path64" />
      <path
         d="m 237.682,249.874 c 0,-13.906 -10.473,-25.219 -23.346,-25.219 -12.873,0 -23.345,11.314 -23.345,25.219 0,13.907 10.473,25.22 23.345,25.22 12.873,0.001 23.346,-11.313 23.346,-25.22 z m -31.501,0 c 0,-5.53 3.658,-10.029 8.155,-10.029 4.497,0 8.155,4.499 8.155,10.029 0,5.53 -3.659,10.03 -8.155,10.03 -4.496,0 -8.155,-4.5 -8.155,-10.03 z"
         id="path66" />
      <path
         d="m 289.79,247.111 c 4.195,0 7.595,-3.4 7.595,-7.595 v -14.61 c 0,-4.195 -3.401,-7.595 -7.595,-7.595 -4.194,0 -7.595,3.401 -7.595,7.595 v 14.61 c 0,4.195 3.4,7.595 7.595,7.595 z"
         id="path68" />
    </g>
  </g>
</svg>
