<svg width="338" height="160" viewBox="0 0 338 160" fill="none" xmlns="http://www.w3.org/2000/svg">
<path d="M75.1953 131.453C74.1211 131.453 72.6237 129.565 70.7031 125.789C69.9219 121.948 69.2708 119.734 68.75 119.148C68.75 118.758 68.9453 118.562 69.3359 118.562C65.5599 111.727 62.7441 106.762 60.8887 103.67L64.4531 112.508L64.0625 112.703C63.737 112.703 62.7604 111.401 61.1328 108.797L60.7422 108.992H60.5469C58.8542 106.421 54.6224 98.9987 47.8516 86.7265C44.4661 81.5833 42.7734 78.5885 42.7734 77.7421L43.1641 77.5468C42.2526 75.9843 41.7969 75.138 41.7969 75.0078C31.3477 78.263 24.6419 80.5416 21.6797 81.8437C17.513 91.8046 15.4297 96.9479 15.4297 97.2734C15.0065 97.2734 14.5508 99.1614 14.0625 102.937C13.6068 103.849 13.2812 104.305 13.0859 104.305H12.3047C12.0443 104.305 11.9141 104.109 11.9141 103.719C12.8255 103.23 13.2812 102.384 13.2812 101.18C14.0625 96.8828 14.7786 93.9531 15.4297 92.3906C15.2018 92.3906 11.8815 98.901 5.46875 111.922C3.9388 115.437 2.96224 117.456 2.53906 117.977C2.14844 117.977 1.95312 117.781 1.95312 117.391C1.95312 117 4.16667 111.987 8.59375 102.352L9.17969 100.789L8.78906 100.984H8.25195L6.25 104.891C6.25 105.216 5.72917 106.128 4.6875 107.625C3.61328 110.197 2.89714 111.629 2.53906 111.922C2.14844 111.922 1.95312 111.792 1.95312 111.531C5.30599 101.863 7.8776 94.5878 9.66797 89.705C6.21745 96.7688 3.71094 101.505 2.14844 103.914H1.75781C1.4974 103.914 1.36719 103.719 1.36719 103.328C4.03646 98.7382 6.77083 93.2044 9.57031 86.7265H9.375C5.5013 88.0286 3.35286 88.6796 2.92969 88.6796L2.73438 88.289V88.0937C2.96224 87.8658 5.63151 86.5638 10.7422 84.1875L10.9375 83.7968C10.7422 83.7968 9.24479 84.1224 6.44531 84.7734L6.25 84.3828V84.1875C6.41276 83.9921 7.71484 83.3411 10.1562 82.2343C10.026 81.8437 9.89583 81.6484 9.76562 81.6484L8.78906 81.8437C8.65885 81.6158 8.59375 81.3554 8.59375 81.0625C5.82682 82.3645 3.09245 83.0156 0.390625 83.0156L0.195312 82.625V81.8437C0.195312 81.6158 1.75781 81.2252 4.88281 80.6718C7.8125 79.5 9.89583 78.914 11.1328 78.914V78.7187C10.8724 78.7187 8.52865 78.914 4.10156 79.3046L3.90625 78.914C3.90625 78.4908 5.33854 77.7096 8.20312 76.5703V76.375H8.00781C7.48698 76.6354 7.03125 76.7656 6.64062 76.7656C5.85938 76.6354 5.46875 76.4401 5.46875 76.1796C5.46875 75.5937 8.72396 74.4218 15.2344 72.664C16.4062 72.1757 16.9922 71.3945 16.9922 70.3203C14.7786 70.8411 12.4349 71.2317 9.96094 71.4921L9.76562 71.1015V70.9062C10.4492 70.3203 13.3138 69.1484 18.3594 67.3906C21.6797 62.5078 24.6094 56.1276 27.1484 48.25C26.4648 46.6549 24.9674 44.1158 22.6562 40.6328C21.224 38.3216 20.5078 36.9544 20.5078 36.5312L20.8984 36.3359C21.4193 36.3359 21.6797 36.5963 21.6797 37.1171H22.0703V36.9218C19.0755 28.8815 17.3177 23.5429 16.7969 20.9062L17.1875 20.7109H17.3828C17.6758 20.8085 18.7826 22.8919 20.7031 26.9609C24.9023 34.2851 28.2878 40.47 30.8594 45.5156H31.0547C34.0169 38.3541 35.8398 34.2526 36.5234 33.2109C36.6536 33.2109 37.6302 31.5182 39.4531 28.1328H39.8438C40.1042 28.1328 40.2344 28.3281 40.2344 28.7187C37.6628 33.8619 35.8398 38.3541 34.7656 42.1953V42.3906H34.9609L38.2324 34.871L40.2344 29.1093C40.4297 29.1093 40.5762 29.1256 40.6738 29.1582L43.1641 23.4453C43.6849 23.4453 43.9453 23.5755 43.9453 23.8359C43.3919 25.3007 41.5527 29.7766 38.4277 37.2636L38.0859 38.289C40.5273 35.457 42.5456 32.7877 44.1406 30.2812H44.5312C44.7917 30.2812 44.9219 30.4765 44.9219 30.8671C43.8477 33.6992 42.5456 36.2382 41.0156 38.4843C40.5924 39.0052 38.9648 41.8697 36.1328 47.0781V47.2734C37.2721 50.3984 38.9811 54.4349 41.2598 59.3828C49.3001 57.039 53.4505 55.8671 53.7109 55.8671C54.8828 55.9648 55.4688 56.2252 55.4688 56.6484C55.3385 56.9088 51.8229 58.3411 44.9219 60.9453C44.7917 61.108 44.4499 61.3033 43.8965 61.5312L45.3125 63.875C45.4427 63.875 45.6706 64.0865 45.9961 64.5097C47.0052 64.2819 47.819 64.1354 48.4375 64.0703C49.6094 64.3958 50.3255 64.7864 50.5859 65.2421C50.5859 65.5677 49.5443 66.0722 47.4609 66.7558L47.7051 67.0976C51.0905 65.9908 52.8971 65.4375 53.125 65.4375L53.3203 65.8281V66.0234C51.7904 67.0651 50.4232 67.7812 49.2188 68.1718V68.3671C49.349 68.3671 49.8047 68.302 50.5859 68.1718L50.7812 68.5625V68.7578L49.8047 69.539C54.1341 68.4974 57.0638 67.8463 58.5938 67.5859L60.1562 67.7812C63.0859 67.1302 64.7786 66.8046 65.2344 66.8046L65.4297 67.1953C65.4297 67.6835 63.0208 68.3997 58.2031 69.3437C57.1615 69.6367 56.6406 70.0273 56.6406 70.5156C56.2826 70.5156 54.4596 71.0364 51.1719 72.0781C52.5391 74.8125 53.89 77.4166 55.2246 79.8906C61.8978 90.8606 65.2344 96.5898 65.2344 97.0781C71.224 106.258 74.2188 111.141 74.2188 111.727C73.9583 111.857 73.763 111.922 73.6328 111.922C73.2747 111.857 72.4609 110.783 71.1914 108.699C70.4753 108.178 70.1172 107.69 70.1172 107.234H69.7266L79.2969 125.008V125.203L78.9062 125.398H78.7109C77.0833 123.087 74.9023 119.474 72.168 114.559C72.4935 115.307 72.6562 115.73 72.6562 115.828C72.6562 116.088 72.3958 116.219 71.875 116.219L72.2656 117L72.0703 117.977C72.3307 118.465 72.4609 118.986 72.4609 119.539L72.0703 119.734H71.875C71.3542 119.148 69.9382 116.723 67.627 112.459C70.2637 118.449 72.9167 124.389 75.5859 130.281L75.7812 131.258C75.5208 131.388 75.3255 131.453 75.1953 131.453ZM39.0625 39.8515V39.6562H38.6719V39.8515H39.0625ZM38.6719 40.4375V40.2421H38.2812V40.4375H38.6719ZM38.2812 41.0234V40.8281H37.8906V41.0234H38.2812ZM37.8906 41.6093V41.414H37.5V41.6093H37.8906ZM37.3047 42.5859V42.3906H36.9141V42.5859H37.3047ZM15.4297 73.8359V73.6406H15.0391V73.8359H15.4297ZM7.42188 78.1328V77.9375H7.03125V78.1328H7.42188ZM8.20312 77.9375C12.5 77.9375 14.6484 77.2864 14.6484 75.9843C14.6484 75.7565 14.7786 75.4309 15.0391 75.0078H14.8438C11.263 76.5052 8.85417 77.4166 7.61719 77.7421V77.9375H8.20312ZM13.2812 83.2109C14.1927 83.0481 14.6484 82.7226 14.6484 82.2343C13.9648 82.3645 13.5091 82.5599 13.2812 82.8203L13.2324 83.2109H13.2812ZM11.5234 88.6796C12.0443 87.8333 12.6953 86.694 13.4766 85.2617C13.1185 85.3593 12.7767 85.5058 12.4512 85.7011L11.5234 88.6796ZM8.78906 97.2734C9.08203 97.2734 10.9049 93.6276 14.2578 86.3359H13.8672C10.4818 92.8789 8.78906 96.5247 8.78906 97.2734ZM14.0625 89.0214C14.5833 88.2727 15.5599 86.5312 16.9922 83.7968C16.6992 83.7968 16.3086 84.1875 15.8203 84.9687L14.0625 89.0214ZM16.6016 76.5703C16.862 76.5703 16.9922 76.4401 16.9922 76.1796H16.6016V76.5703ZM16.0156 69.539V69.3437H15.625V69.539H16.0156ZM16.7969 69.3437C17.5781 69.2135 17.9688 68.9531 17.9688 68.5625H17.7734C16.862 68.888 16.4062 69.1484 16.4062 69.3437H16.7969ZM17.7734 81.6484C18.0339 81.5182 18.2292 81.4531 18.3594 81.4531C18.3594 81.1927 18.2292 81.0625 17.9688 81.0625C17.7083 81.095 17.5781 81.2903 17.5781 81.6484H17.7734ZM18.1641 71.4921C18.5547 70.5481 18.75 70.0273 18.75 69.9296H18.3594C18.3594 70.2226 18.1641 70.7434 17.7734 71.4921H18.1641ZM19.3359 68.7578V68.3671H19.1406V68.7578H19.3359ZM74.2188 129.5V129.305C72.3307 125.333 71.2891 122.99 71.0938 122.273H70.8984V122.469C71.2565 125.04 72.3633 127.384 74.2188 129.5ZM46.6797 65.4863V65.4375H46.6309L46.6797 65.4863ZM47.6562 70.125C46.7122 68.595 46.0612 67.358 45.7031 66.414H45.3125C45.3125 66.7721 45.9635 68.0091 47.2656 70.125H47.6562ZM49.6094 58.2109V58.0156H49.2188V58.2109H49.6094ZM43.3105 60.7011C46.7285 59.3014 48.4375 58.5364 48.4375 58.4062H48.2422C45.8008 59.0898 43.9941 59.6269 42.8223 60.0175L43.3105 60.7011ZM42.7734 62.5078V62.1171H42.5781V62.5078H42.7734ZM42.1875 60.9453V60.75C42.0898 60.5872 42.0247 60.4244 41.9922 60.2617L41.6992 60.3593L41.9922 60.9453H42.1875ZM36.3281 63.6796L37.0605 63.3867L36.2305 61.873C35.6445 62.0358 35.3516 62.1822 35.3516 62.3125C35.6771 63.1588 36.0026 63.6145 36.3281 63.6796ZM27.3438 68.9531L35.9375 65.6328V65.4375C35.2214 65.4375 32.4219 66.4791 27.5391 68.5625H27.3438V68.9531ZM34.1797 67.5859V67.3906H33.7891V67.5859H34.1797ZM28.3203 66.414C32.194 65.4049 34.4727 64.6237 35.1562 64.0703C34.6354 63.1914 34.375 62.6705 34.375 62.5078C30.7292 63.3216 28.9062 64.1679 28.9062 65.0468C28.5156 65.6979 28.3203 66.1536 28.3203 66.414ZM34.5703 67.3906C36.0026 67.1302 36.7188 66.8046 36.7188 66.414C36.4258 66.414 35.6445 66.6744 34.375 67.1953V67.3906H34.5703ZM36.3281 52.3515L34.9609 49.2265H34.7656C34.7656 49.3567 34.7005 49.552 34.5703 49.8125C35.4818 51.2773 35.9375 52.1237 35.9375 52.3515H36.3281ZM34.9609 56.8437C33.6589 54.3046 33.0078 52.9375 33.0078 52.7421H32.6172C32.6172 52.9375 33.2682 54.3046 34.5703 56.8437H34.9609ZM34.7656 61.3359L35.7422 61.0429L33.1055 56.2578L32.4219 57.4296C32.8125 58.3411 33.5938 59.6432 34.7656 61.3359ZM30.4688 62.7031C32.1289 62.052 33.2357 61.7265 33.7891 61.7265C32.6172 59.9362 32.0312 58.8945 32.0312 58.6015C31.8685 58.6015 31.2174 59.9036 30.0781 62.5078L30.4688 62.7031ZM30.4688 49.0312L30.8594 48.8359C29.6875 47.1757 29.1016 46.2643 29.1016 46.1015H28.7109C29.7526 47.8919 30.2734 48.8684 30.2734 49.0312H30.4688ZM28.9062 43.7578C23.5352 33.8294 20.4753 28.3606 19.7266 27.3515V27.5468C22.2005 34.7734 23.8118 38.9726 24.5605 40.1445L24.8047 40.0468L24.9023 40.0957C24.4466 39.4446 24.2188 38.9075 24.2188 38.4843C24.2513 38.2239 24.4466 38.0937 24.8047 38.0937C25.1953 38.3867 26.4323 40.2747 28.5156 43.7578H28.9062ZM27.1484 51.7656C27.3438 51.7656 27.6693 51.2447 28.125 50.2031L27.7344 50.0078C27.7344 50.2356 27.5391 50.8216 27.1484 51.7656ZM23.0469 79.6953C23.3073 79.6953 23.4375 79.5651 23.4375 79.3046C23.0469 79.3046 22.8516 79.4349 22.8516 79.6953H23.0469ZM25.5859 73.6406C30.5664 71.7851 34.668 70.0924 37.8906 68.5625C37.6953 68.0416 37.5 67.7812 37.3047 67.7812C30.1432 69.4414 26.5625 70.4179 26.5625 70.7109C25.9115 71.9804 25.5859 72.957 25.5859 73.6406ZM37.8906 66.6093L38.6719 66.3652L38.2812 65.5839C37.8581 65.7467 37.5977 65.8281 37.5 65.8281V66.0234L37.8906 66.6093ZM38.8672 68.3671L39.6484 68.0742L39.1602 67.1953C38.8672 67.2929 38.6393 67.4231 38.4766 67.5859L38.8672 68.3671ZM41.7969 65.2421V65.0468C41.0482 63.0286 39.8763 61.0755 38.2812 59.1875H38.0859V59.3828C38.9974 61.4661 39.4531 62.7031 39.4531 63.0937L39.8438 62.8984C40.0391 62.8984 40.6901 63.6796 41.7969 65.2421ZM48.0469 79.5C47.0378 76.8307 44.694 72.5338 41.0156 66.6093V66.8046C44.7591 74.7799 46.9076 78.9466 47.4609 79.3046L47.8516 79.5H48.0469ZM44.1406 75.3984L43.6035 74.373L43.0176 74.5683L43.9453 75.3984H44.1406ZM49.6582 86.58C46.8913 80.8509 45.1823 77.8398 44.5312 77.5468L43.7988 76.7656C45.8496 80.3789 47.8027 83.6503 49.6582 86.58ZM52.9297 90.8281V90.6328C50.7161 85.5546 49.4141 82.6901 49.0234 82.039L48.4375 81.6484H48.2422C51.2044 87.7356 52.7669 90.7955 52.9297 90.8281ZM54.2969 87.7031C54.2969 87.5403 53.6458 86.8893 52.3438 85.75V86.1406C52.6042 87.1822 53.2552 87.7031 54.2969 87.7031ZM59.5703 91.2187C55.6966 83.927 52.0508 78.0026 48.6328 73.4453C47.9818 72.5338 47.5911 72.0781 47.4609 72.0781V72.2734C48.2747 75.3658 50.8138 80.1835 55.0781 86.7265C55.0781 87.0846 56.5104 88.582 59.375 91.2187H59.5703ZM60.5469 105.672V105.477C60.2539 104.695 59.9935 104.305 59.7656 104.305V104.5C60.0586 105.281 60.319 105.672 60.5469 105.672ZM63.2812 105.477C62.8906 104.598 62.6953 104.077 62.6953 103.914H62.1094C62.6302 104.663 62.8906 105.184 62.8906 105.477H63.2812ZM66.6016 106.453C63.7695 99.6171 61.8815 95.5807 60.9375 94.3437C60.8398 94.3437 59.8633 93.3671 58.0078 91.414H57.8125L65.625 104.891C65.625 104.988 65.8203 105.509 66.2109 106.453H66.6016ZM84.9609 31.4531C84.4401 34.4153 84.1797 38.9726 84.1797 45.125L84.5703 44.9296H84.7656C85.026 44.9296 85.1562 45.125 85.1562 45.5156H85.3516V34.7734C85.3516 34.0898 85.2865 32.983 85.1562 31.4531H84.9609ZM104.883 122.469V122.859H105.078V122.469H104.883ZM91.9922 121.297V121.687H92.1875V121.297H91.9922ZM90.4297 116.219C91.3411 119.148 91.7969 120.776 91.7969 121.102H91.9922V120.711C91.4714 118.237 91.2109 116.74 91.2109 116.219H90.4297ZM85.1562 112.312V113.094H85.3516V112.312H85.1562ZM113.281 110.945C111.328 114.298 110.352 116.512 110.352 117.586C110.514 117.586 111.621 115.698 113.672 111.922L113.477 110.945H113.281ZM114.062 109.578V109.969H114.258V109.578H114.062ZM112.695 109.578V109.969H112.891V109.578H112.695ZM86.9141 109.578V111.141C87.1745 112.573 87.3047 113.354 87.3047 113.484H87.5V110.945C87.2396 110.652 87.1094 110.197 87.1094 109.578H86.9141ZM110.938 109.187C108.203 115.568 106.836 119.083 106.836 119.734C109.31 116.674 110.547 113.94 110.547 111.531C110.677 111.531 110.872 110.815 111.133 109.383V109.187H110.938ZM86.7188 107.234V109.187H86.9141V107.234H86.7188ZM88.2812 106.062V106.648H88.4766V106.062H88.2812ZM80.0781 105.086V105.281C80.2083 106.909 80.2734 107.755 80.2734 107.82H80.4688V105.086H80.0781ZM86.5234 104.695V106.062H86.7188V104.695H86.5234ZM88.8672 103.523V103.914H89.0625V103.523H88.8672ZM119.336 100.398L118.945 101.961C119.238 101.961 119.499 101.44 119.727 100.398H119.336ZM118.164 100.008V100.398H118.359V100.008H118.164ZM115.82 100.594C116.081 101.115 116.211 101.505 116.211 101.766C116.471 101.766 116.602 101.635 116.602 101.375L116.406 100.008C116.309 100.008 116.113 100.203 115.82 100.594ZM118.359 99.4218V99.8125H118.555V99.4218H118.359ZM118.555 98.8359V99.2265H118.75V98.8359H118.555ZM118.75 98.0546V98.4453H118.945V98.0546H118.75ZM120.703 96.6875V97.0781C120.964 97.0781 121.094 96.9479 121.094 96.6875H120.703ZM84.5703 95.9062V96.4921L85.3516 105.477H85.5469V104.891C85.4167 101.147 85.1562 98.1523 84.7656 95.9062H84.5703ZM114.062 94.9296L113.867 95.7109V95.9062H114.062L114.258 95.125V94.9296H114.062ZM84.375 94.9296V95.7109H84.5703V94.9296H84.375ZM82.0312 94.7343V98.8359C82.0312 101.408 82.7474 106.811 84.1797 115.047H84.375V114.852C84.2448 113.419 84.1797 112.182 84.1797 111.141V107.43C84.1797 106.421 83.5286 102.189 82.2266 94.7343H82.0312ZM88.0859 94.539V96.1015C88.2161 99.2265 88.4115 101.57 88.6719 103.133H88.8672V102.547C88.4766 98.5104 88.2812 95.8411 88.2812 94.539H88.0859ZM114.648 93.1718H115.039V92.7812C114.779 92.8138 114.648 92.944 114.648 93.1718ZM82.6172 92.5859V93.1718H82.8125V92.5859H82.6172ZM87.8906 92V92.5859H88.0859V92H87.8906ZM109.766 90.0468C109.896 90.3072 109.961 90.5026 109.961 90.6328H110.156V90.0468H109.766ZM102.734 89.6562V89.8515C102.734 91.1862 104.427 94.6367 107.812 100.203H108.008V100.008C106.087 95.776 104.395 92.3255 102.93 89.6562H102.734ZM87.6953 89.6562V90.0468H87.8906V89.6562H87.6953ZM115.82 96.1015C116.211 96.9479 116.406 97.5338 116.406 97.8593C117.057 97.8593 117.839 95.7109 118.75 91.414C118.49 91.414 118.359 91.2187 118.359 90.8281C118.88 89.233 119.141 88.3216 119.141 88.0937C118.88 88.289 117.773 90.9583 115.82 96.1015ZM85.5469 85.75V86.5312H85.7422V85.75H85.5469ZM121.875 84.7734V85.164H122.07V84.7734H121.875ZM122.07 83.9921V84.5781H122.266V83.9921H122.07ZM116.406 87.7031H116.797C117.318 86.401 117.773 85.0989 118.164 83.7968C117.676 84.0247 117.09 85.3268 116.406 87.7031ZM77.9297 83.6015C77.9297 87.3776 77.8646 89.8515 77.7344 91.0234C78.2552 93.888 78.5156 95.7109 78.5156 96.4921H78.7109V91.414C78.7109 90.4049 78.5156 87.8007 78.125 83.6015H77.9297ZM122.266 83.4062V83.7968H122.461V83.4062H122.266ZM98.8281 83.0156V83.2109C100.391 86.7265 101.302 88.4843 101.562 88.4843C101.562 87.3125 100.651 85.4895 98.8281 83.0156ZM79.6875 82.625V85.164C79.8177 87.2148 79.8828 88.7122 79.8828 89.6562H80.0781V88.4843C79.9479 86.694 79.8828 84.7408 79.8828 82.625H79.6875ZM84.9609 82.2343V82.8203L85.3516 85.3593H85.5469V84.5781C85.2865 83.276 85.1562 82.4947 85.1562 82.2343H84.9609ZM84.7656 81.4531V82.039H84.9609V81.4531H84.7656ZM125 79.5V79.8906H125.195V79.5H125ZM100.391 79.5V79.6953C101.823 82.4622 102.539 83.9596 102.539 84.1875H102.93C101.497 81.1601 100.651 79.5976 100.391 79.5ZM80.8594 79.3046V80.2812C80.8594 81.1601 81.0547 83.1783 81.4453 86.3359C81.3151 87.2148 81.25 87.9309 81.25 88.4843L81.4453 90.8281C82.0964 90.8281 82.4219 91.3489 82.4219 92.3906H82.6172V91.8046C82.6172 88.1588 82.0964 83.9921 81.0547 79.3046H80.8594ZM125.195 78.914V79.3046H125.391V78.914H125.195ZM123.633 78.5234C123.633 78.7513 123.242 80.1835 122.461 82.8203V83.0156H122.656C123.438 80.6393 123.828 79.207 123.828 78.7187V78.5234H123.633ZM83.0078 78.3281V78.914C83.138 80.3463 83.2031 81.5833 83.2031 82.625L83.0078 83.9921C83.5286 85.75 83.7891 86.9869 83.7891 87.7031H83.9844V87.3125C83.8542 83.7317 83.5938 80.7369 83.2031 78.3281H83.0078ZM123.828 77.7421V78.1328H124.023V77.7421H123.828ZM79.4922 77.5468V79.1093H79.6875V77.5468H79.4922ZM82.8125 77.3515V77.7421H83.0078V77.3515H82.8125ZM77.9297 76.7656V78.5234H78.125V76.7656H77.9297ZM81.25 75.9843V76.7656H81.4453V75.9843H81.25ZM81.0547 74.0312V75.789H81.25V74.0312H81.0547ZM86.5234 73.25V80.6718C86.5234 81.1927 86.7839 82.9505 87.3047 85.9453H87.5V85.5546C86.9792 80.802 86.7188 76.7005 86.7188 73.25H86.5234ZM121.289 72.2734C120.247 75.1705 119.727 76.7981 119.727 77.1562C120.15 77.1562 120.736 75.5937 121.484 72.4687V72.2734H121.289ZM127.148 71.8828V72.2734H127.344V71.8828H127.148ZM121.484 71.6875V72.0781H121.68V71.6875H121.484ZM127.539 70.5156V70.9062H127.734V70.5156H127.539ZM126.367 70.3203C125.846 71.6875 125.586 72.7291 125.586 73.4453V73.6406H125.781C125.781 73.3476 126.042 72.3059 126.562 70.5156V70.3203H126.367ZM126.562 69.7343V70.125H126.758V69.7343H126.562ZM127.93 69.1484V69.539H128.125V69.1484H127.93ZM123.438 68.5625V68.9531H123.633V68.5625H123.438ZM128.32 67.7812L128.125 68.5625V68.7578H128.32C128.451 68.302 128.516 68.0416 128.516 67.9765V67.7812H128.32ZM128.516 66.8046V67.3906H128.711V66.8046H128.516ZM128.711 66.2187V66.6093H128.906V66.2187H128.711ZM121.289 96.2968H121.68C125.586 86.4661 128.19 79.2395 129.492 74.6171L132.031 65.4375C129.069 70.2226 127.507 73.7382 127.344 75.9843C123.438 87.638 121.484 94.1484 121.484 95.5156C121.354 95.7434 121.289 96.0039 121.289 96.2968ZM79.4922 63.289V65.4375H79.6875V63.289H79.4922ZM125.195 62.8984C124.154 65.763 123.633 67.5208 123.633 68.1718C123.926 68.1718 124.512 66.7395 125.391 63.875V62.8984H125.195ZM76.7578 61.7265V62.3125C76.888 64.2656 76.9531 65.6328 76.9531 66.414H77.1484V62.8984C77.1484 62.8007 77.0833 62.4101 76.9531 61.7265H76.7578ZM85.3516 61.5312V62.7031H85.5469V61.5312H85.3516ZM76.5625 60.75V61.3359H76.7578V60.75H76.5625ZM85.1562 60.3593V61.1406H85.3516V60.3593H85.1562ZM84.9609 59.1875V59.9687H85.1562V59.1875H84.9609ZM79.1016 58.4062V58.9921C79.2318 60.75 79.2969 62.052 79.2969 62.8984H79.4922V59.5781C79.4922 59.4804 79.4271 59.0898 79.2969 58.4062H79.1016ZM81.4453 57.4296V57.625C82.7474 66.7395 83.724 71.2968 84.375 71.2968C84.5052 71.8177 84.5703 72.2734 84.5703 72.664H84.7656V71.8828C84.7656 69.6367 83.724 64.819 81.6406 57.4296H81.4453ZM78.9062 57.4296V58.0156H79.1016V57.4296H78.9062ZM86.5234 57.2343V58.9921C89.4531 63.875 91.276 66.7395 91.9922 67.5859V67.3906C90.9505 63.582 89.388 60.5872 87.3047 58.4062C86.9141 57.7226 86.7188 57.332 86.7188 57.2343H86.5234ZM90.4297 57.039V57.2343C91.2109 58.6992 91.6016 59.5455 91.6016 59.7734L91.9922 59.5781C91.1784 57.8854 90.6576 57.039 90.4297 57.039ZM86.5234 54.8906V55.4765C86.8815 56.1276 87.1419 56.4531 87.3047 56.4531V56.2578C86.9141 55.6067 86.7188 55.151 86.7188 54.8906H86.5234ZM83.9844 53.914V54.1093L84.375 55.6718H84.5703V55.4765C84.4401 54.4349 84.2448 53.914 83.9844 53.914ZM134.766 53.1328C131.901 59.5455 130.469 63.5169 130.469 65.0468C130.306 65.0468 130.111 65.6328 129.883 66.8046V67H130.078C132.812 61.5963 134.18 58.4062 134.18 57.4296L134.961 53.3281V53.1328H134.766ZM131.641 52.5468V52.9375H131.836V52.5468H131.641ZM81.25 52.3515V53.1328L83.0078 58.9921H83.2031V58.4062C83.2031 56.3229 82.8776 54.7604 82.2266 53.7187C81.7057 53.1002 81.4453 52.6445 81.4453 52.3515H81.25ZM138.672 51.9609C135.547 57.8854 133.984 61.3359 133.984 62.3125C130.729 74.5195 127.799 83.7643 125.195 90.0468C124.935 90.3072 123.763 93.2369 121.68 98.8359V99.0312H121.875L133.398 73.8359C135.221 67.9114 137.109 60.6197 139.062 51.9609H138.672ZM82.0312 51.375C82.2917 51.7981 82.4219 52.1237 82.4219 52.3515H82.6172V51.9609C82.487 51.7005 82.4219 51.5052 82.4219 51.375H82.0312ZM84.7656 50.3984V50.5937L85.3516 54.1093H85.5469V52.1562C85.5469 51.9283 85.3516 51.3424 84.9609 50.3984H84.7656ZM82.8125 46.8828V47.0781L83.0078 49.0312H83.2031V47.2734C83.2031 47.013 83.0729 46.8828 82.8125 46.8828ZM135.352 46.1015V46.4921H135.547V46.1015H135.352ZM84.1797 45.9062V47.0781C84.1797 47.2734 84.375 47.4687 84.7656 47.664V47.4687C84.5052 46.9804 84.375 46.4596 84.375 45.9062H84.1797ZM134.375 44.9296C134.375 45.2226 133.659 47.371 132.227 51.375C132.552 51.1145 132.812 50.9843 133.008 50.9843H133.594C133.952 50.2682 134.277 48.3151 134.57 45.125V44.9296H134.375ZM81.25 44.7343V48.25C81.5104 48.5755 81.6406 48.8359 81.6406 49.0312H82.0312L81.4453 44.7343H81.25ZM79.1016 36.3359C78.8411 41.8046 78.7109 44.9947 78.7109 45.9062L79.2969 48.25H79.8828V48.0546C79.8828 47.7942 79.8177 47.664 79.6875 47.664C79.6875 47.371 79.7526 47.1106 79.8828 46.8828L79.2969 36.3359H79.1016ZM85.1562 28.7187H85.3516C85.7747 28.7187 86.1003 30.6718 86.3281 34.5781V42C86.3281 46.1341 86.6536 48.5429 87.3047 49.2265C89.9089 53.8489 91.3411 56.2578 91.6016 56.4531V56.2578C90.0391 52.2213 89.2578 50.0729 89.2578 49.8125L89.6484 49.6171H89.8438C90.2669 49.6497 91.1784 51.7981 92.5781 56.0625C94.7917 62.0846 97.3958 67.358 100.391 71.8828C103.776 78.8815 106.706 84.0247 109.18 87.3125C109.31 87.3125 110.221 88.5494 111.914 91.0234V91.2187L111.523 91.8046C112.044 92.6835 112.305 93.2044 112.305 93.3671C112.598 93.3671 112.858 92.7812 113.086 91.6093C112.695 90.8932 112.5 90.3072 112.5 89.8515L112.891 89.6562H113.086C113.379 89.6562 113.574 89.9817 113.672 90.6328H113.867C115.202 87.5403 116.048 85.3919 116.406 84.1875C118.75 76.4075 121.094 69.8971 123.438 64.6562L126.172 53.3281H126.562C126.823 53.3606 126.953 53.4908 126.953 53.7187V56.2578H127.148C128.483 52.2213 129.395 50.2031 129.883 50.2031H130.469C131.087 48.0872 132.194 45.483 133.789 42.3906C134.277 42.3906 134.733 41.8046 135.156 40.6328H135.547C135.807 40.6653 135.938 40.7955 135.938 41.0234C135.677 43.5625 135.547 45.0599 135.547 45.5156V45.7109H135.742C137.663 40.2747 138.704 37.5403 138.867 37.5078H139.062C139.323 37.5403 139.453 37.6705 139.453 37.8984C138.151 42.4231 137.044 45.6783 136.133 47.664H136.328C136.589 47.6966 136.719 47.8268 136.719 48.0546V48.25C136.719 48.9335 136.328 51.4075 135.547 55.6718V55.8671H135.742C138.672 49.9101 140.234 46.9153 140.43 46.8828H140.625C140.885 46.9153 141.016 47.0455 141.016 47.2734V47.664C141.016 48.4778 139.453 55.1184 136.328 67.5859C134.896 72.8593 132.682 78.3932 129.688 84.1875L119.922 105.477C122.526 111.889 125.13 117.944 127.734 123.641V123.836L127.344 124.031H127.148C126.367 123.51 125.977 122.859 125.977 122.078L125.586 122.273H125.391C123.275 119.376 121.452 116.447 119.922 113.484H119.531V113.68C120.312 115.47 120.703 116.707 120.703 117.391C120.475 117.521 120.215 117.586 119.922 117.586C120.573 118.953 120.898 119.865 120.898 120.32H120.703C123.177 126.115 124.414 129.565 124.414 130.672L124.023 130.867H123.828C123.47 130.867 122.624 128.588 121.289 124.031C119.792 120.776 118.164 117.977 116.406 115.633V115.828C116.536 116.056 116.602 116.316 116.602 116.609L116.211 116.805H116.016C115.69 116.805 115.43 116.219 115.234 115.047H115.039C115.039 115.275 114.648 116.642 113.867 119.148C113.379 121.167 112.793 122.469 112.109 123.055H111.914L111.523 122.859C111.523 123.25 111.393 123.445 111.133 123.445H110.938C110.677 123.445 110.547 123.315 110.547 123.055C111.198 121.362 111.849 119.148 112.5 116.414C112.174 116.414 111.003 118.497 108.984 122.664C108.984 123.348 108.398 124.324 107.227 125.594C107.031 126.115 106.836 126.375 106.641 126.375H106.445C106.185 126.375 106.055 126.245 106.055 125.984L108.203 119.93L105.469 123.836H105.273C105.013 123.836 104.883 123.575 104.883 123.055H104.688C104.688 123.445 104.557 123.641 104.297 123.641H104.102C103.809 123.641 103.613 123.315 103.516 122.664C104.818 119.897 105.664 117.814 106.055 116.414C101.693 123.673 98.3724 128.621 96.0938 131.258H95.8984C95.638 131.258 95.5078 131.062 95.5078 130.672C96.6146 127.872 101.172 120.06 109.18 107.234C109.57 106.323 109.766 105.672 109.766 105.281C105.859 99.0312 103.906 95.6458 103.906 95.125H103.711V95.3203L103.906 96.4921C103.906 96.7526 103.776 96.8828 103.516 96.8828H103.32C102.474 95.7434 101.107 92.358 99.2188 86.7265C99.1211 86.2382 95.6706 79.4674 88.8672 66.414C87.6953 64.0377 86.9792 62.8007 86.7188 62.7031V62.8984C87.2396 64.9166 87.6302 70.5807 87.8906 79.8906C89.5833 100.854 90.6901 111.336 91.2109 111.336C92.6432 118.725 93.4245 123.022 93.5547 124.227L93.1641 124.422H92.9688C91.7969 123.738 90.7552 121.46 89.8438 117.586C89.5833 117.195 89.3229 115.958 89.0625 113.875L89.4531 113.68H89.6484L90.0391 113.875C89.5182 111.629 89.0625 109.35 88.6719 107.039H88.4766V117.977C88.4766 118.237 88.3464 118.367 88.0859 118.367H87.8906C87.5651 118.367 87.3047 117.586 87.1094 116.023H86.9141V119.539C86.9141 119.799 86.7839 119.93 86.5234 119.93H86.3281C85.8073 119.93 85.5469 117.781 85.5469 113.484H85.3516V120.125C85.612 123.055 85.7422 124.617 85.7422 124.812V125.008C85.7422 125.268 85.612 125.398 85.3516 125.398H85.1562C84.7982 125.398 84.4076 123.185 83.9844 118.758C82.8125 112.833 82.2266 109.383 82.2266 108.406H82.0312V109.578L83.2031 120.125C83.0729 121.036 82.8776 121.492 82.6172 121.492H82.4219C82.1615 121.492 82.0312 121.362 82.0312 121.102L82.2266 119.93C82.2266 119.637 82.0964 118.66 81.8359 117L81.4453 117.195H81.25C80.7292 117.195 80.0781 113.745 79.2969 106.844C78.9714 106.128 78.5156 103.133 77.9297 97.8593C77.7995 97.8593 77.7344 97.4687 77.7344 96.6875H77.5391C77.3438 98.5104 77.0833 99.4218 76.7578 99.4218H76.5625C76.3021 99.4218 76.1719 99.2916 76.1719 99.0312V85.75C76.1719 83.5364 75.8464 78.4583 75.1953 70.5156L75.5859 70.3203H75.7812L76.1719 70.5156V70.125C75.4232 56.7135 74.7721 50.0078 74.2188 50.0078L73.4375 44.1484L73.8281 43.9531H74.0234C75.1953 44.9296 75.7812 47.1432 75.7812 50.5937C75.7812 51.8307 76.1719 54.2395 76.9531 57.8203H77.1484L77.5391 51.5703C77.5391 48.3802 76.8229 42.0651 75.3906 32.625L75.7812 32.4296H75.9766C76.3997 32.4296 76.9857 34.7734 77.7344 39.4609V40.0468H77.9297C78.1901 35.5221 78.3203 33.0481 78.3203 32.625L78.9062 32.2343H79.1016C79.3945 32.2343 79.9154 34.3828 80.6641 38.6796C81.3477 38.6796 81.8034 39.3958 82.0312 40.8281C82.6823 42.3255 83.0078 43.302 83.0078 43.7578H83.2031C83.2031 34.871 83.8542 29.858 85.1562 28.7187ZM155.566 40.8281V41.2187H155.762V40.8281H155.566ZM171.973 114.266V114.656H172.168V114.266H171.973ZM171.777 113.289V113.875H171.973V113.289H171.777ZM161.621 108.016V108.797H161.816V108.016H161.621ZM166.699 107.039V107.82H166.895V107.039H166.699ZM161.426 107.039V107.82H161.621V107.039H161.426ZM161.23 106.258V106.648H161.426V106.258H161.23ZM171.777 105.477V105.867H171.973V105.477H171.777ZM161.035 105.281V105.672H161.23V105.281H161.035ZM171.582 104.5V104.891H171.777V104.5H171.582ZM171.387 103.719V104.109H171.582V103.719H171.387ZM171.191 102.742V103.133H171.387V102.742H171.191ZM170.996 101.961V102.352H171.191V101.961H170.996ZM170.801 100.984V101.375H170.996V100.984H170.801ZM165.723 100.984V101.766H165.918V100.984H165.723ZM170.605 100.203V100.594H170.801V100.203H170.605ZM165.527 99.8125V100.594H165.723V99.8125H165.527ZM170.41 99.2265V99.8125H170.605V99.2265H170.41ZM165.332 98.6406V99.4218H165.527V98.6406H165.332ZM170.215 98.25V98.8359H170.41V98.25H170.215ZM169.043 98.25V98.4453C169.043 102.286 169.824 106.779 171.387 111.922L171.582 112.898H171.777V112.703L169.238 98.25H169.043ZM165.723 94.9296V95.3203H165.918V94.9296H165.723ZM165.527 94.1484V94.539H165.723V94.1484H165.527ZM158.105 91.8046V92.1953H158.301V91.8046H158.105ZM162.793 91.2187V91.6093H162.988V91.2187H162.793ZM157.91 91.0234V91.414H158.105V91.0234H157.91ZM166.504 90.0468V90.4375H166.699V90.0468H166.504ZM157.715 90.0468V90.4375H157.91V90.0468H157.715ZM159.668 89.8515C160.189 91.9349 160.514 93.4974 160.645 94.539H160.84V93.7578C160.84 92.4557 160.579 91.1536 160.059 89.8515H159.668ZM157.52 89.0703V89.6562H157.715V89.0703H157.52ZM166.309 88.875V89.2656H166.504V88.875H166.309ZM157.324 88.289V88.875H157.52V88.289H157.324ZM166.113 87.7031V88.289H166.309V87.7031H166.113ZM157.129 87.3125V87.8984H157.324V87.3125H157.129ZM165.918 86.3359V87.1171H166.113V86.3359H165.918ZM160.254 79.5V80.0859H160.449V79.5H160.254ZM160.059 78.7187V79.3046H160.254V78.7187H160.059ZM159.863 77.9375V78.3281H160.059V77.9375H159.863ZM154.59 76.7656V76.9609L154.785 78.1328H154.98V77.3515C154.85 77.0911 154.785 76.8958 154.785 76.7656H154.59ZM155.957 73.6406V74.0312H156.152V73.6406H155.957ZM160.059 73.4453V73.8359H160.254V73.4453H160.059ZM155.762 72.8593V73.25H155.957V72.8593H155.762ZM159.863 72.2734V72.8593H160.059V72.2734H159.863ZM155.566 71.8828V72.4687H155.762V71.8828H155.566ZM159.668 71.1015V71.8828H159.863V71.1015H159.668ZM155.371 71.1015V71.6875H155.566V71.1015H155.371ZM155.176 70.3203V70.9062H155.371V70.3203H155.176ZM154.98 69.3437V69.9296H155.176V69.3437H154.98ZM154.785 68.3671V69.1484H154.98V68.3671H154.785ZM163.184 67.5859V67.7812C163.184 70.5481 164.03 76.6679 165.723 86.1406H165.918V85.5546C165.658 83.2434 164.941 78.9466 163.77 72.664V72.4687C163.997 72.3385 164.258 72.2734 164.551 72.2734C164.03 69.2786 163.704 67.7812 163.574 67.7812L163.184 67.5859ZM154.59 67.5859V67.9765H154.785V67.5859H154.59ZM161.035 65.8281V68.3671H161.23V65.8281H161.035ZM162.988 64.4609V65.0468H163.184V64.4609H162.988ZM162.793 63.289V64.0703H162.988V63.289H162.793ZM159.473 59.3828V61.1406C159.473 61.8893 159.603 63.1914 159.863 65.0468H160.059V64.2656C159.928 61.4987 159.798 59.871 159.668 59.3828H159.473ZM156.934 56.6484V57.039H157.129V56.6484H156.934ZM156.738 56.0625V56.4531H156.934V56.0625H156.738ZM154.004 55.6718V56.0625H154.199V55.6718H154.004ZM159.277 54.5V56.0625C159.408 56.3229 159.473 56.5182 159.473 56.6484H159.668C159.538 55.9322 159.473 55.2161 159.473 54.5H159.277ZM153.809 54.5V55.2812H154.004V54.5H153.809ZM153.613 53.5234V54.1093H153.809V53.5234H153.613ZM159.082 52.9375V53.7187H159.277V52.9375H159.082ZM153.418 52.7421V53.3281H153.613V52.7421H153.418ZM160.254 52.1562V52.3515C160.514 53.5234 160.645 54.3697 160.645 54.8906H160.84V54.3046C160.84 54.1419 160.71 53.4257 160.449 52.1562H160.254ZM155.957 52.1562V53.5234C155.957 53.9466 156.152 54.6627 156.543 55.6718H156.738V55.4765L156.152 52.1562H155.957ZM153.223 51.7656V52.3515H153.418V51.7656H153.223ZM152.832 50.0078V50.5937C152.962 50.8216 153.027 51.082 153.027 51.375H153.223V50.789C153.092 50.5612 153.027 50.3007 153.027 50.0078H152.832ZM155.762 41.414V41.6093C156.673 47.3059 157.389 51.0169 157.91 52.7421H158.105V47.0781C158.105 46.8502 157.389 44.9622 155.957 41.414H155.762ZM150.293 31.0625H150.488C150.879 31.0625 151.4 32.9505 152.051 36.7265C152.311 39.233 153.223 43.9205 154.785 50.789H154.98V47.8593L154.785 45.9062C155.176 45.776 155.371 45.6458 155.371 45.5156C154.46 40.3724 154.004 37.5078 154.004 36.9218V36.5312C154.036 36.2708 154.167 36.1406 154.395 36.1406H154.59C154.818 36.1406 156.055 39.0703 158.301 44.9296C159.017 44.9296 159.473 45.9713 159.668 48.0546C160.059 48.7708 160.254 49.2916 160.254 49.6171H160.449L158.496 38.4843L158.887 38.289H159.082C159.538 38.8099 160.189 41.5442 161.035 46.4921C161.296 47.1757 162.467 52.3841 164.551 62.1171C164.29 62.2474 164.095 62.3125 163.965 62.3125C165.397 72.5338 167.025 80.7369 168.848 86.9218C172.754 103.751 174.707 114.624 174.707 119.539C174.837 119.572 174.902 120.223 174.902 121.492C174.642 121.492 174.512 121.687 174.512 122.078L175.684 129.109L175.293 129.305H175.098C174.74 129.305 173.568 125.008 171.582 116.414H171.387C171.387 116.805 171.257 117 170.996 117H170.801C170.605 117 170.345 116.479 170.02 115.437C169.108 115.437 168.652 112.573 168.652 106.844C168.001 103.393 167.155 99.6822 166.113 95.7109H165.918V96.1015L168.066 108.016V108.406C168.066 108.667 167.936 108.797 167.676 108.797H167.48C167.22 108.797 167.09 108.602 167.09 108.211H166.895V108.406C167.155 110.555 167.285 111.857 167.285 112.312C167.057 112.443 166.797 112.508 166.504 112.508L169.824 127.937L169.434 128.133H169.043C168.783 128.133 168.066 125.268 166.895 119.539C166.374 115.633 165.853 113.68 165.332 113.68C164.551 108.309 163.574 103.556 162.402 99.4218H162.207V100.203C163.379 106.974 164.29 112.703 164.941 117.391C165.332 119.865 165.527 121.297 165.527 121.687L165.137 121.883H164.941C164.453 121.46 163.477 117.228 162.012 109.187H161.816V109.383C162.467 113.224 163.118 116.609 163.77 119.539L163.379 119.734H163.184C162.695 119.734 161.458 114.591 159.473 104.305C157.259 93.0742 154.72 81.5507 151.855 69.7343C150.944 67.7487 150.488 66.3815 150.488 65.6328L150.879 65.4375H151.074C151.335 65.6002 152.572 68.6601 154.785 74.6171L155.176 74.4218C154.395 71.5898 152.637 62.996 149.902 48.6406C150.163 48.6406 150.293 48.5104 150.293 48.25C149.642 45.0273 149.316 42.4231 149.316 40.4375V40.0468C149.349 39.7864 149.479 39.6562 149.707 39.6562H149.902C150.163 39.6562 150.423 41.0234 150.684 43.7578C151.204 44.7343 151.855 46.6224 152.637 49.4218V49.6171H152.832V49.4218C152.572 46.427 151.725 41.1536 150.293 33.6015C150.065 33.6015 149.935 32.8203 149.902 31.2578L150.293 31.0625ZM187.695 40.8281V41.2187H187.891V40.8281H187.695ZM204.102 114.266V114.656H204.297V114.266H204.102ZM203.906 113.289V113.875H204.102V113.289H203.906ZM193.75 108.016V108.797H193.945V108.016H193.75ZM198.828 107.039V107.82H199.023V107.039H198.828ZM193.555 107.039V107.82H193.75V107.039H193.555ZM193.359 106.258V106.648H193.555V106.258H193.359ZM203.906 105.477V105.867H204.102V105.477H203.906ZM193.164 105.281V105.672H193.359V105.281H193.164ZM203.711 104.5V104.891H203.906V104.5H203.711ZM203.516 103.719V104.109H203.711V103.719H203.516ZM203.32 102.742V103.133H203.516V102.742H203.32ZM203.125 101.961V102.352H203.32V101.961H203.125ZM202.93 100.984V101.375H203.125V100.984H202.93ZM197.852 100.984V101.766H198.047V100.984H197.852ZM202.734 100.203V100.594H202.93V100.203H202.734ZM197.656 99.8125V100.594H197.852V99.8125H197.656ZM202.539 99.2265V99.8125H202.734V99.2265H202.539ZM197.461 98.6406V99.4218H197.656V98.6406H197.461ZM202.344 98.25V98.8359H202.539V98.25H202.344ZM201.172 98.25V98.4453C201.172 102.286 201.953 106.779 203.516 111.922L203.711 112.898H203.906V112.703L201.367 98.25H201.172ZM197.852 94.9296V95.3203H198.047V94.9296H197.852ZM197.656 94.1484V94.539H197.852V94.1484H197.656ZM190.234 91.8046V92.1953H190.43V91.8046H190.234ZM194.922 91.2187V91.6093H195.117V91.2187H194.922ZM190.039 91.0234V91.414H190.234V91.0234H190.039ZM198.633 90.0468V90.4375H198.828V90.0468H198.633ZM189.844 90.0468V90.4375H190.039V90.0468H189.844ZM191.797 89.8515C192.318 91.9349 192.643 93.4974 192.773 94.539H192.969V93.7578C192.969 92.4557 192.708 91.1536 192.188 89.8515H191.797ZM189.648 89.0703V89.6562H189.844V89.0703H189.648ZM198.438 88.875V89.2656H198.633V88.875H198.438ZM189.453 88.289V88.875H189.648V88.289H189.453ZM198.242 87.7031V88.289H198.438V87.7031H198.242ZM189.258 87.3125V87.8984H189.453V87.3125H189.258ZM198.047 86.3359V87.1171H198.242V86.3359H198.047ZM192.383 79.5V80.0859H192.578V79.5H192.383ZM192.188 78.7187V79.3046H192.383V78.7187H192.188ZM191.992 77.9375V78.3281H192.188V77.9375H191.992ZM186.719 76.7656V76.9609L186.914 78.1328H187.109V77.3515C186.979 77.0911 186.914 76.8958 186.914 76.7656H186.719ZM188.086 73.6406V74.0312H188.281V73.6406H188.086ZM192.188 73.4453V73.8359H192.383V73.4453H192.188ZM187.891 72.8593V73.25H188.086V72.8593H187.891ZM191.992 72.2734V72.8593H192.188V72.2734H191.992ZM187.695 71.8828V72.4687H187.891V71.8828H187.695ZM191.797 71.1015V71.8828H191.992V71.1015H191.797ZM187.5 71.1015V71.6875H187.695V71.1015H187.5ZM187.305 70.3203V70.9062H187.5V70.3203H187.305ZM187.109 69.3437V69.9296H187.305V69.3437H187.109ZM186.914 68.3671V69.1484H187.109V68.3671H186.914ZM195.312 67.5859V67.7812C195.312 70.5481 196.159 76.6679 197.852 86.1406H198.047V85.5546C197.786 83.2434 197.07 78.9466 195.898 72.664V72.4687C196.126 72.3385 196.387 72.2734 196.68 72.2734C196.159 69.2786 195.833 67.7812 195.703 67.7812L195.312 67.5859ZM186.719 67.5859V67.9765H186.914V67.5859H186.719ZM193.164 65.8281V68.3671H193.359V65.8281H193.164ZM195.117 64.4609V65.0468H195.312V64.4609H195.117ZM194.922 63.289V64.0703H195.117V63.289H194.922ZM191.602 59.3828V61.1406C191.602 61.8893 191.732 63.1914 191.992 65.0468H192.188V64.2656C192.057 61.4987 191.927 59.871 191.797 59.3828H191.602ZM189.062 56.6484V57.039H189.258V56.6484H189.062ZM188.867 56.0625V56.4531H189.062V56.0625H188.867ZM186.133 55.6718V56.0625H186.328V55.6718H186.133ZM191.406 54.5V56.0625C191.536 56.3229 191.602 56.5182 191.602 56.6484H191.797C191.667 55.9322 191.602 55.2161 191.602 54.5H191.406ZM185.938 54.5V55.2812H186.133V54.5H185.938ZM185.742 53.5234V54.1093H185.938V53.5234H185.742ZM191.211 52.9375V53.7187H191.406V52.9375H191.211ZM185.547 52.7421V53.3281H185.742V52.7421H185.547ZM192.383 52.1562V52.3515C192.643 53.5234 192.773 54.3697 192.773 54.8906H192.969V54.3046C192.969 54.1419 192.839 53.4257 192.578 52.1562H192.383ZM188.086 52.1562V53.5234C188.086 53.9466 188.281 54.6627 188.672 55.6718H188.867V55.4765L188.281 52.1562H188.086ZM185.352 51.7656V52.3515H185.547V51.7656H185.352ZM184.961 50.0078V50.5937C185.091 50.8216 185.156 51.082 185.156 51.375H185.352V50.789C185.221 50.5612 185.156 50.3007 185.156 50.0078H184.961ZM187.891 41.414V41.6093C188.802 47.3059 189.518 51.0169 190.039 52.7421H190.234V47.0781C190.234 46.8502 189.518 44.9622 188.086 41.414H187.891ZM182.422 31.0625H182.617C183.008 31.0625 183.529 32.9505 184.18 36.7265C184.44 39.233 185.352 43.9205 186.914 50.789H187.109V47.8593L186.914 45.9062C187.305 45.776 187.5 45.6458 187.5 45.5156C186.589 40.3724 186.133 37.5078 186.133 36.9218V36.5312C186.165 36.2708 186.296 36.1406 186.523 36.1406H186.719C186.947 36.1406 188.184 39.0703 190.43 44.9296C191.146 44.9296 191.602 45.9713 191.797 48.0546C192.188 48.7708 192.383 49.2916 192.383 49.6171H192.578L190.625 38.4843L191.016 38.289H191.211C191.667 38.8099 192.318 41.5442 193.164 46.4921C193.424 47.1757 194.596 52.3841 196.68 62.1171C196.419 62.2474 196.224 62.3125 196.094 62.3125C197.526 72.5338 199.154 80.7369 200.977 86.9218C204.883 103.751 206.836 114.624 206.836 119.539C206.966 119.572 207.031 120.223 207.031 121.492C206.771 121.492 206.641 121.687 206.641 122.078L207.812 129.109L207.422 129.305H207.227C206.868 129.305 205.697 125.008 203.711 116.414H203.516C203.516 116.805 203.385 117 203.125 117H202.93C202.734 117 202.474 116.479 202.148 115.437C201.237 115.437 200.781 112.573 200.781 106.844C200.13 103.393 199.284 99.6822 198.242 95.7109H198.047V96.1015L200.195 108.016V108.406C200.195 108.667 200.065 108.797 199.805 108.797H199.609C199.349 108.797 199.219 108.602 199.219 108.211H199.023V108.406C199.284 110.555 199.414 111.857 199.414 112.312C199.186 112.443 198.926 112.508 198.633 112.508L201.953 127.937L201.562 128.133H201.172C200.911 128.133 200.195 125.268 199.023 119.539C198.503 115.633 197.982 113.68 197.461 113.68C196.68 108.309 195.703 103.556 194.531 99.4218H194.336V100.203C195.508 106.974 196.419 112.703 197.07 117.391C197.461 119.865 197.656 121.297 197.656 121.687L197.266 121.883H197.07C196.582 121.46 195.605 117.228 194.141 109.187H193.945V109.383C194.596 113.224 195.247 116.609 195.898 119.539L195.508 119.734H195.312C194.824 119.734 193.587 114.591 191.602 104.305C189.388 93.0742 186.849 81.5507 183.984 69.7343C183.073 67.7487 182.617 66.3815 182.617 65.6328L183.008 65.4375H183.203C183.464 65.6002 184.701 68.6601 186.914 74.6171L187.305 74.4218C186.523 71.5898 184.766 62.996 182.031 48.6406C182.292 48.6406 182.422 48.5104 182.422 48.25C181.771 45.0273 181.445 42.4231 181.445 40.4375V40.0468C181.478 39.7864 181.608 39.6562 181.836 39.6562H182.031C182.292 39.6562 182.552 41.0234 182.812 43.7578C183.333 44.7343 183.984 46.6224 184.766 49.4218V49.6171H184.961V49.4218C184.701 46.427 183.854 41.1536 182.422 33.6015C182.194 33.6015 182.064 32.8203 182.031 31.2578L182.422 31.0625ZM219.824 40.8281V41.2187H220.02V40.8281H219.824ZM236.23 114.266V114.656H236.426V114.266H236.23ZM236.035 113.289V113.875H236.23V113.289H236.035ZM225.879 108.016V108.797H226.074V108.016H225.879ZM230.957 107.039V107.82H231.152V107.039H230.957ZM225.684 107.039V107.82H225.879V107.039H225.684ZM225.488 106.258V106.648H225.684V106.258H225.488ZM236.035 105.477V105.867H236.23V105.477H236.035ZM225.293 105.281V105.672H225.488V105.281H225.293ZM235.84 104.5V104.891H236.035V104.5H235.84ZM235.645 103.719V104.109H235.84V103.719H235.645ZM235.449 102.742V103.133H235.645V102.742H235.449ZM235.254 101.961V102.352H235.449V101.961H235.254ZM235.059 100.984V101.375H235.254V100.984H235.059ZM229.98 100.984V101.766H230.176V100.984H229.98ZM234.863 100.203V100.594H235.059V100.203H234.863ZM229.785 99.8125V100.594H229.98V99.8125H229.785ZM234.668 99.2265V99.8125H234.863V99.2265H234.668ZM229.59 98.6406V99.4218H229.785V98.6406H229.59ZM234.473 98.25V98.8359H234.668V98.25H234.473ZM233.301 98.25V98.4453C233.301 102.286 234.082 106.779 235.645 111.922L235.84 112.898H236.035V112.703L233.496 98.25H233.301ZM229.98 94.9296V95.3203H230.176V94.9296H229.98ZM229.785 94.1484V94.539H229.98V94.1484H229.785ZM222.363 91.8046V92.1953H222.559V91.8046H222.363ZM227.051 91.2187V91.6093H227.246V91.2187H227.051ZM222.168 91.0234V91.414H222.363V91.0234H222.168ZM230.762 90.0468V90.4375H230.957V90.0468H230.762ZM221.973 90.0468V90.4375H222.168V90.0468H221.973ZM223.926 89.8515C224.447 91.9349 224.772 93.4974 224.902 94.539H225.098V93.7578C225.098 92.4557 224.837 91.1536 224.316 89.8515H223.926ZM221.777 89.0703V89.6562H221.973V89.0703H221.777ZM230.566 88.875V89.2656H230.762V88.875H230.566ZM221.582 88.289V88.875H221.777V88.289H221.582ZM230.371 87.7031V88.289H230.566V87.7031H230.371ZM221.387 87.3125V87.8984H221.582V87.3125H221.387ZM230.176 86.3359V87.1171H230.371V86.3359H230.176ZM224.512 79.5V80.0859H224.707V79.5H224.512ZM224.316 78.7187V79.3046H224.512V78.7187H224.316ZM224.121 77.9375V78.3281H224.316V77.9375H224.121ZM218.848 76.7656V76.9609L219.043 78.1328H219.238V77.3515C219.108 77.0911 219.043 76.8958 219.043 76.7656H218.848ZM220.215 73.6406V74.0312H220.41V73.6406H220.215ZM224.316 73.4453V73.8359H224.512V73.4453H224.316ZM220.02 72.8593V73.25H220.215V72.8593H220.02ZM224.121 72.2734V72.8593H224.316V72.2734H224.121ZM219.824 71.8828V72.4687H220.02V71.8828H219.824ZM223.926 71.1015V71.8828H224.121V71.1015H223.926ZM219.629 71.1015V71.6875H219.824V71.1015H219.629ZM219.434 70.3203V70.9062H219.629V70.3203H219.434ZM219.238 69.3437V69.9296H219.434V69.3437H219.238ZM219.043 68.3671V69.1484H219.238V68.3671H219.043ZM227.441 67.5859V67.7812C227.441 70.5481 228.288 76.6679 229.98 86.1406H230.176V85.5546C229.915 83.2434 229.199 78.9466 228.027 72.664V72.4687C228.255 72.3385 228.516 72.2734 228.809 72.2734C228.288 69.2786 227.962 67.7812 227.832 67.7812L227.441 67.5859ZM218.848 67.5859V67.9765H219.043V67.5859H218.848ZM225.293 65.8281V68.3671H225.488V65.8281H225.293ZM227.246 64.4609V65.0468H227.441V64.4609H227.246ZM227.051 63.289V64.0703H227.246V63.289H227.051ZM223.73 59.3828V61.1406C223.73 61.8893 223.861 63.1914 224.121 65.0468H224.316V64.2656C224.186 61.4987 224.056 59.871 223.926 59.3828H223.73ZM221.191 56.6484V57.039H221.387V56.6484H221.191ZM220.996 56.0625V56.4531H221.191V56.0625H220.996ZM218.262 55.6718V56.0625H218.457V55.6718H218.262ZM223.535 54.5V56.0625C223.665 56.3229 223.73 56.5182 223.73 56.6484H223.926C223.796 55.9322 223.73 55.2161 223.73 54.5H223.535ZM218.066 54.5V55.2812H218.262V54.5H218.066ZM217.871 53.5234V54.1093H218.066V53.5234H217.871ZM223.34 52.9375V53.7187H223.535V52.9375H223.34ZM217.676 52.7421V53.3281H217.871V52.7421H217.676ZM224.512 52.1562V52.3515C224.772 53.5234 224.902 54.3697 224.902 54.8906H225.098V54.3046C225.098 54.1419 224.967 53.4257 224.707 52.1562H224.512ZM220.215 52.1562V53.5234C220.215 53.9466 220.41 54.6627 220.801 55.6718H220.996V55.4765L220.41 52.1562H220.215ZM217.48 51.7656V52.3515H217.676V51.7656H217.48ZM217.09 50.0078V50.5937C217.22 50.8216 217.285 51.082 217.285 51.375H217.48V50.789C217.35 50.5612 217.285 50.3007 217.285 50.0078H217.09ZM220.02 41.414V41.6093C220.931 47.3059 221.647 51.0169 222.168 52.7421H222.363V47.0781C222.363 46.8502 221.647 44.9622 220.215 41.414H220.02ZM214.551 31.0625H214.746C215.137 31.0625 215.658 32.9505 216.309 36.7265C216.569 39.233 217.48 43.9205 219.043 50.789H219.238V47.8593L219.043 45.9062C219.434 45.776 219.629 45.6458 219.629 45.5156C218.717 40.3724 218.262 37.5078 218.262 36.9218V36.5312C218.294 36.2708 218.424 36.1406 218.652 36.1406H218.848C219.076 36.1406 220.312 39.0703 222.559 44.9296C223.275 44.9296 223.73 45.9713 223.926 48.0546C224.316 48.7708 224.512 49.2916 224.512 49.6171H224.707L222.754 38.4843L223.145 38.289H223.34C223.796 38.8099 224.447 41.5442 225.293 46.4921C225.553 47.1757 226.725 52.3841 228.809 62.1171C228.548 62.2474 228.353 62.3125 228.223 62.3125C229.655 72.5338 231.283 80.7369 233.105 86.9218C237.012 103.751 238.965 114.624 238.965 119.539C239.095 119.572 239.16 120.223 239.16 121.492C238.9 121.492 238.77 121.687 238.77 122.078L239.941 129.109L239.551 129.305H239.355C238.997 129.305 237.826 125.008 235.84 116.414H235.645C235.645 116.805 235.514 117 235.254 117H235.059C234.863 117 234.603 116.479 234.277 115.437C233.366 115.437 232.91 112.573 232.91 106.844C232.259 103.393 231.413 99.6822 230.371 95.7109H230.176V96.1015L232.324 108.016V108.406C232.324 108.667 232.194 108.797 231.934 108.797H231.738C231.478 108.797 231.348 108.602 231.348 108.211H231.152V108.406C231.413 110.555 231.543 111.857 231.543 112.312C231.315 112.443 231.055 112.508 230.762 112.508L234.082 127.937L233.691 128.133H233.301C233.04 128.133 232.324 125.268 231.152 119.539C230.632 115.633 230.111 113.68 229.59 113.68C228.809 108.309 227.832 103.556 226.66 99.4218H226.465V100.203C227.637 106.974 228.548 112.703 229.199 117.391C229.59 119.865 229.785 121.297 229.785 121.687L229.395 121.883H229.199C228.711 121.46 227.734 117.228 226.27 109.187H226.074V109.383C226.725 113.224 227.376 116.609 228.027 119.539L227.637 119.734H227.441C226.953 119.734 225.716 114.591 223.73 104.305C221.517 93.0742 218.978 81.5507 216.113 69.7343C215.202 67.7487 214.746 66.3815 214.746 65.6328L215.137 65.4375H215.332C215.592 65.6002 216.829 68.6601 219.043 74.6171L219.434 74.4218C218.652 71.5898 216.895 62.996 214.16 48.6406C214.421 48.6406 214.551 48.5104 214.551 48.25C213.9 45.0273 213.574 42.4231 213.574 40.4375V40.0468C213.607 39.7864 213.737 39.6562 213.965 39.6562H214.16C214.421 39.6562 214.681 41.0234 214.941 43.7578C215.462 44.7343 216.113 46.6224 216.895 49.4218V49.6171H217.09V49.4218C216.829 46.427 215.983 41.1536 214.551 33.6015C214.323 33.6015 214.193 32.8203 214.16 31.2578L214.551 31.0625ZM251.953 40.8281V41.2187H252.148V40.8281H251.953ZM268.359 114.266V114.656H268.555V114.266H268.359ZM268.164 113.289V113.875H268.359V113.289H268.164ZM258.008 108.016V108.797H258.203V108.016H258.008ZM263.086 107.039V107.82H263.281V107.039H263.086ZM257.812 107.039V107.82H258.008V107.039H257.812ZM257.617 106.258V106.648H257.812V106.258H257.617ZM268.164 105.477V105.867H268.359V105.477H268.164ZM257.422 105.281V105.672H257.617V105.281H257.422ZM267.969 104.5V104.891H268.164V104.5H267.969ZM267.773 103.719V104.109H267.969V103.719H267.773ZM267.578 102.742V103.133H267.773V102.742H267.578ZM267.383 101.961V102.352H267.578V101.961H267.383ZM267.188 100.984V101.375H267.383V100.984H267.188ZM262.109 100.984V101.766H262.305V100.984H262.109ZM266.992 100.203V100.594H267.188V100.203H266.992ZM261.914 99.8125V100.594H262.109V99.8125H261.914ZM266.797 99.2265V99.8125H266.992V99.2265H266.797ZM261.719 98.6406V99.4218H261.914V98.6406H261.719ZM266.602 98.25V98.8359H266.797V98.25H266.602ZM265.43 98.25V98.4453C265.43 102.286 266.211 106.779 267.773 111.922L267.969 112.898H268.164V112.703L265.625 98.25H265.43ZM262.109 94.9296V95.3203H262.305V94.9296H262.109ZM261.914 94.1484V94.539H262.109V94.1484H261.914ZM254.492 91.8046V92.1953H254.688V91.8046H254.492ZM259.18 91.2187V91.6093H259.375V91.2187H259.18ZM254.297 91.0234V91.414H254.492V91.0234H254.297ZM262.891 90.0468V90.4375H263.086V90.0468H262.891ZM254.102 90.0468V90.4375H254.297V90.0468H254.102ZM256.055 89.8515C256.576 91.9349 256.901 93.4974 257.031 94.539H257.227V93.7578C257.227 92.4557 256.966 91.1536 256.445 89.8515H256.055ZM253.906 89.0703V89.6562H254.102V89.0703H253.906ZM262.695 88.875V89.2656H262.891V88.875H262.695ZM253.711 88.289V88.875H253.906V88.289H253.711ZM262.5 87.7031V88.289H262.695V87.7031H262.5ZM253.516 87.3125V87.8984H253.711V87.3125H253.516ZM262.305 86.3359V87.1171H262.5V86.3359H262.305ZM256.641 79.5V80.0859H256.836V79.5H256.641ZM256.445 78.7187V79.3046H256.641V78.7187H256.445ZM256.25 77.9375V78.3281H256.445V77.9375H256.25ZM250.977 76.7656V76.9609L251.172 78.1328H251.367V77.3515C251.237 77.0911 251.172 76.8958 251.172 76.7656H250.977ZM252.344 73.6406V74.0312H252.539V73.6406H252.344ZM256.445 73.4453V73.8359H256.641V73.4453H256.445ZM252.148 72.8593V73.25H252.344V72.8593H252.148ZM256.25 72.2734V72.8593H256.445V72.2734H256.25ZM251.953 71.8828V72.4687H252.148V71.8828H251.953ZM256.055 71.1015V71.8828H256.25V71.1015H256.055ZM251.758 71.1015V71.6875H251.953V71.1015H251.758ZM251.562 70.3203V70.9062H251.758V70.3203H251.562ZM251.367 69.3437V69.9296H251.562V69.3437H251.367ZM251.172 68.3671V69.1484H251.367V68.3671H251.172ZM259.57 67.5859V67.7812C259.57 70.5481 260.417 76.6679 262.109 86.1406H262.305V85.5546C262.044 83.2434 261.328 78.9466 260.156 72.664V72.4687C260.384 72.3385 260.645 72.2734 260.938 72.2734C260.417 69.2786 260.091 67.7812 259.961 67.7812L259.57 67.5859ZM250.977 67.5859V67.9765H251.172V67.5859H250.977ZM257.422 65.8281V68.3671H257.617V65.8281H257.422ZM259.375 64.4609V65.0468H259.57V64.4609H259.375ZM259.18 63.289V64.0703H259.375V63.289H259.18ZM255.859 59.3828V61.1406C255.859 61.8893 255.99 63.1914 256.25 65.0468H256.445V64.2656C256.315 61.4987 256.185 59.871 256.055 59.3828H255.859ZM253.32 56.6484V57.039H253.516V56.6484H253.32ZM253.125 56.0625V56.4531H253.32V56.0625H253.125ZM250.391 55.6718V56.0625H250.586V55.6718H250.391ZM255.664 54.5V56.0625C255.794 56.3229 255.859 56.5182 255.859 56.6484H256.055C255.924 55.9322 255.859 55.2161 255.859 54.5H255.664ZM250.195 54.5V55.2812H250.391V54.5H250.195ZM250 53.5234V54.1093H250.195V53.5234H250ZM255.469 52.9375V53.7187H255.664V52.9375H255.469ZM249.805 52.7421V53.3281H250V52.7421H249.805ZM256.641 52.1562V52.3515C256.901 53.5234 257.031 54.3697 257.031 54.8906H257.227V54.3046C257.227 54.1419 257.096 53.4257 256.836 52.1562H256.641ZM252.344 52.1562V53.5234C252.344 53.9466 252.539 54.6627 252.93 55.6718H253.125V55.4765L252.539 52.1562H252.344ZM249.609 51.7656V52.3515H249.805V51.7656H249.609ZM249.219 50.0078V50.5937C249.349 50.8216 249.414 51.082 249.414 51.375H249.609V50.789C249.479 50.5612 249.414 50.3007 249.414 50.0078H249.219ZM252.148 41.414V41.6093C253.06 47.3059 253.776 51.0169 254.297 52.7421H254.492V47.0781C254.492 46.8502 253.776 44.9622 252.344 41.414H252.148ZM246.68 31.0625H246.875C247.266 31.0625 247.786 32.9505 248.438 36.7265C248.698 39.233 249.609 43.9205 251.172 50.789H251.367V47.8593L251.172 45.9062C251.562 45.776 251.758 45.6458 251.758 45.5156C250.846 40.3724 250.391 37.5078 250.391 36.9218V36.5312C250.423 36.2708 250.553 36.1406 250.781 36.1406H250.977C251.204 36.1406 252.441 39.0703 254.688 44.9296C255.404 44.9296 255.859 45.9713 256.055 48.0546C256.445 48.7708 256.641 49.2916 256.641 49.6171H256.836L254.883 38.4843L255.273 38.289H255.469C255.924 38.8099 256.576 41.5442 257.422 46.4921C257.682 47.1757 258.854 52.3841 260.938 62.1171C260.677 62.2474 260.482 62.3125 260.352 62.3125C261.784 72.5338 263.411 80.7369 265.234 86.9218C269.141 103.751 271.094 114.624 271.094 119.539C271.224 119.572 271.289 120.223 271.289 121.492C271.029 121.492 270.898 121.687 270.898 122.078L272.07 129.109L271.68 129.305H271.484C271.126 129.305 269.954 125.008 267.969 116.414H267.773C267.773 116.805 267.643 117 267.383 117H267.188C266.992 117 266.732 116.479 266.406 115.437C265.495 115.437 265.039 112.573 265.039 106.844C264.388 103.393 263.542 99.6822 262.5 95.7109H262.305V96.1015L264.453 108.016V108.406C264.453 108.667 264.323 108.797 264.062 108.797H263.867C263.607 108.797 263.477 108.602 263.477 108.211H263.281V108.406C263.542 110.555 263.672 111.857 263.672 112.312C263.444 112.443 263.184 112.508 262.891 112.508L266.211 127.937L265.82 128.133H265.43C265.169 128.133 264.453 125.268 263.281 119.539C262.76 115.633 262.24 113.68 261.719 113.68C260.938 108.309 259.961 103.556 258.789 99.4218H258.594V100.203C259.766 106.974 260.677 112.703 261.328 117.391C261.719 119.865 261.914 121.297 261.914 121.687L261.523 121.883H261.328C260.84 121.46 259.863 117.228 258.398 109.187H258.203V109.383C258.854 113.224 259.505 116.609 260.156 119.539L259.766 119.734H259.57C259.082 119.734 257.845 114.591 255.859 104.305C253.646 93.0742 251.107 81.5507 248.242 69.7343C247.331 67.7487 246.875 66.3815 246.875 65.6328L247.266 65.4375H247.461C247.721 65.6002 248.958 68.6601 251.172 74.6171L251.562 74.4218C250.781 71.5898 249.023 62.996 246.289 48.6406C246.549 48.6406 246.68 48.5104 246.68 48.25C246.029 45.0273 245.703 42.4231 245.703 40.4375V40.0468C245.736 39.7864 245.866 39.6562 246.094 39.6562H246.289C246.549 39.6562 246.81 41.0234 247.07 43.7578C247.591 44.7343 248.242 46.6224 249.023 49.4218V49.6171H249.219V49.4218C248.958 46.427 248.112 41.1536 246.68 33.6015C246.452 33.6015 246.322 32.8203 246.289 31.2578L246.68 31.0625Z" fill="white"/>
<path d="M142.441 56.8714L143.143 57.2152L143.315 56.8645L142.613 56.5206L142.441 56.8714ZM288.769 92.0437L289.471 92.3875L289.643 92.0368L288.941 91.693L288.769 92.0437ZM286.843 91.535L287.896 92.0507L288.068 91.6999L287.015 91.1842L286.843 91.535ZM268.434 105.133L269.837 105.821L270.009 105.47L268.605 104.783L268.434 105.133ZM271.149 95.1539L272.552 95.8415L272.724 95.4907L271.321 94.8031L271.149 95.1539ZM266.508 104.625L267.911 105.312L268.083 104.961L266.68 104.274L266.508 104.625ZM264.933 104.288L265.634 104.631L265.806 104.281L265.105 103.937L264.933 104.288ZM272.813 84.6587L273.514 85.0025L273.686 84.6518L272.985 84.308L272.813 84.6587ZM263.007 103.779L263.709 104.123L263.881 103.772L263.179 103.428L263.007 103.779ZM270.887 84.15L271.589 84.4938L271.76 84.143L271.059 83.7992L270.887 84.15ZM269.312 83.8131L270.014 84.1569L270.185 83.8061L269.484 83.4623L269.312 83.8131ZM267.386 83.3043L268.088 83.6481L268.26 83.2974L267.558 82.9536L267.386 83.3043ZM265.811 82.9675L266.513 83.3113L266.685 82.9605L265.983 82.6167L265.811 82.9675ZM263.886 82.4587L264.587 82.8025L264.759 82.4518L264.057 82.108L263.886 82.4587ZM259.416 91.5786L260.819 92.2662L260.991 91.9155L259.588 91.2278L259.416 91.5786ZM262.311 82.1219L263.012 82.4657L263.184 82.1149L262.483 81.7711L262.311 82.1219ZM257.14 90.8979L258.543 91.5856L258.715 91.2348L257.311 90.5472L257.14 90.8979ZM260.385 81.6131L261.437 82.1288L261.609 81.778L260.557 81.2623L260.385 81.6131ZM254.863 90.2173L256.266 90.9049L256.438 90.5541L255.035 89.8665L254.863 90.2173ZM258.459 81.1043L259.511 81.62L259.683 81.2693L258.631 80.7536L258.459 81.1043ZM257.428 83.2089L257.778 83.3808C264.677 86.7616 273.432 89.3124 284.044 91.0331L285.97 91.5419L286.142 91.1911L285.791 91.0192L257.6 82.8582L257.428 83.2089ZM248.542 86.2495L249.244 86.5933L249.416 86.2426L248.714 85.8988L248.542 86.2495ZM246.967 85.9127L247.669 86.2565L247.841 85.9057L247.139 85.5619L246.967 85.9127ZM236.226 97.1789L236.927 97.5227L237.099 97.1719L236.398 96.8281L236.226 97.1789ZM239.299 88.2448L240.001 88.5886L240.173 88.2378L239.471 87.894L239.299 88.2448ZM234.651 96.842L235.352 97.1858L235.524 96.8351L234.823 96.4913L234.651 96.842ZM240.461 80.5488L241.162 80.8926L241.334 80.5419L240.633 80.1981L240.461 80.5488ZM232.725 96.3333L233.427 96.6771L233.598 96.3263L232.897 95.9825L232.725 96.3333ZM234.093 92.6537C238.293 93.552 241.386 94.3426 243.371 95.0256L243.543 94.6749L242.14 93.9872C239.802 92.8412 237.234 92.1628 234.437 91.9522L234.093 92.6537ZM230.799 95.8245L231.852 96.3402L232.024 95.9894L230.971 95.4737L230.799 95.8245ZM238.184 79.8682L238.886 80.212L239.058 79.8612L238.356 79.5174L238.184 79.8682ZM229.224 95.4876L230.277 96.0034L230.449 95.6526L229.396 95.1369L229.224 95.4876ZM235.908 79.1875L236.96 79.7032L237.132 79.3524L236.08 78.8367L235.908 79.1875ZM227.299 94.9789L228.351 95.4946L228.523 95.1438L227.471 94.6281L227.299 94.9789ZM233.281 78.3349L234.684 79.0225L234.856 78.6718L233.452 77.9841L233.281 78.3349ZM216.018 82.4904L217.071 83.0061L217.243 82.6553L216.19 82.1396L216.018 82.4904ZM214.444 82.1535L215.496 82.6693L215.668 82.3185L214.615 81.8028L214.444 82.1535ZM212.869 81.8167L213.57 82.1605L213.742 81.8097L213.04 81.4659L212.869 81.8167ZM206.123 90.2559L206.473 90.4278L208.75 91.1085L208.922 90.7577L207.519 90.0701C206.936 90.0747 206.528 90.0197 206.294 89.9051L206.123 90.2559ZM201.714 85.0501L202.415 85.3939L202.587 85.0431L201.886 84.6993L201.714 85.0501ZM204.973 77.5121L205.674 77.8559L205.846 77.5051L205.145 77.1613L204.973 77.5121ZM200.139 84.7132L200.84 85.057L201.012 84.7062L200.311 84.3624L200.139 84.7132ZM202.696 76.8314L203.749 77.3471L203.921 76.9964L202.868 76.4806L202.696 76.8314ZM198.213 84.2044L199.265 84.7202L199.437 84.3694L198.385 83.8537L198.213 84.2044ZM200.42 76.1507L201.823 76.8384L201.995 76.4876L200.592 75.8L200.42 76.1507ZM196.638 83.8676L197.69 84.3833L197.862 84.0325L196.81 83.5168L196.638 83.8676ZM195.063 83.5307L196.115 84.0464L196.287 83.6957L195.235 83.18L195.063 83.5307ZM193.137 83.022L194.19 83.5377L194.361 83.1869L193.309 82.6712L193.137 83.022ZM191.212 82.5132L192.615 83.2008L192.786 82.85L191.383 82.1624L191.212 82.5132ZM197.2 66.7427L197.551 66.9146C202.52 69.3499 214.256 73.2163 232.758 78.5138L232.93 78.163L231.877 77.6473C227.498 76.0808 219.15 73.585 206.836 70.1599L206.485 69.988C206.452 69.4642 206.564 68.9392 206.822 68.413C200.985 66.7125 198.01 65.9792 197.895 66.213L197.2 66.7427ZM189.637 82.1763L190.338 82.5201L190.51 82.1694L189.808 81.8256L189.637 82.1763ZM192.153 69.0539L196.713 71.2887L196.884 70.9379L192.324 68.7032L192.153 69.0539ZM191.416 64.3429L192.469 64.8587L192.64 64.5079L191.588 63.9922L191.416 64.3429ZM189.14 63.6623L190.543 64.3499L190.715 63.9991L189.312 63.3115L189.14 63.6623ZM179.202 66.1872L182.359 67.7343C183.704 68.3933 186.157 69.3055 189.718 70.4709L189.89 70.1201L188.487 69.4325C183.403 67.231 180.365 66.0323 179.374 65.8364L179.202 66.1872ZM172.057 68.3404L172.758 68.6842L172.93 68.3335L172.228 67.9897L172.057 68.3404ZM170.832 68.1755L171.534 68.5193L171.706 68.1685L171.004 67.8247L170.832 68.1755ZM167.724 72.7424L168.426 73.0862L168.598 72.7354L167.896 72.3916L167.724 72.7424ZM170.261 62.2403L173.067 63.6155C173.649 63.6109 174.057 63.6659 174.291 63.7805L174.463 63.4297C173.063 63.0332 171.719 62.5198 170.433 61.8895L170.261 62.2403ZM165.448 72.0617L166.851 72.7493L167.023 72.3986L165.62 71.7109L165.448 72.0617ZM163.522 71.5529L164.574 72.0687L164.746 71.7179L163.694 71.2022L163.522 71.5529ZM167.283 61.2158L168.686 61.9034L168.858 61.5527L167.455 60.865L167.283 61.2158ZM161.947 71.2161L162.999 71.7318L163.171 71.381L162.119 70.8653L161.947 71.2161ZM166.911 58.4236L167.262 58.5955C169.596 59.1592 171.231 59.6703 172.166 60.1287L172.338 59.778L171.285 59.2622C170.993 59.119 169.592 58.7225 167.083 58.0728L166.911 58.4236ZM163.129 66.1404L165.585 67.3438C166.345 67.7162 167.803 67.9958 169.959 68.1824L170.131 67.8317L169.78 67.6598L163.301 65.7897L163.129 66.1404ZM160.021 70.7073L161.074 71.223L161.245 70.8723L160.193 70.3566L160.021 70.7073ZM156.521 69.8617L157.573 70.3774C158.097 70.3441 158.622 70.4564 159.148 70.7143L159.32 70.3635L158.267 69.8478C157.744 69.8811 157.219 69.7688 156.692 69.5109L156.521 69.8617ZM143.665 57.0364L144.016 57.2083C155.049 60.5853 162.344 62.5654 165.901 63.1485L166.073 62.7977L155.901 57.8124C155.491 57.6119 151.47 57.2363 143.837 56.6856L143.665 57.0364ZM120.262 57.7468L120.433 57.396C120.777 56.6945 124.626 57.4209 131.981 59.5752C136.712 61.3136 145.932 63.8024 159.643 67.0417L159.815 66.6909L154.553 64.1123L150.874 62.744C150.983 61.9279 150.922 61.4625 150.688 61.3479C140.649 58.458 135.103 56.7551 134.051 56.2394L133.349 55.8956C132.91 55.6079 132.791 55.2595 132.991 54.8503L133.163 54.4995C133.364 54.0903 139.714 54.4473 152.214 55.5707C152.844 54.2846 155.116 54.383 159.03 55.8659C160.66 55.7946 161.767 55.9023 162.351 56.1888L162.523 55.838L140.811 49.5471L140.804 48.6736L140.976 48.3229C142.312 47.9628 147.796 49.2003 157.427 52.0352C158.884 52.1692 169.269 54.6488 188.582 59.4739C188.587 60.0562 188.532 60.4643 188.417 60.6981C208.035 67.1223 224.199 71.4193 236.911 73.5891C270.574 81.3864 291.819 87.4482 300.646 91.7745C300.819 91.5693 302.046 92.0254 304.326 93.1428C304.097 93.6104 304.333 94.0162 305.034 94.36L318.693 98.444L318.7 99.3175L318.528 99.6682C318.213 100.311 309.465 98.634 292.284 94.6362L292.112 94.987C292.813 95.3308 293.049 95.7365 292.82 96.2042L292.648 96.555C292.476 96.9058 291.312 96.915 289.155 96.5828C288.352 98.2197 282.807 96.5169 272.518 91.4743C265.748 89.6065 258.338 87.8603 250.289 86.2356L250.117 86.5864L250.819 86.9302L274.106 93.558L274.808 93.9019C275.276 94.1311 275.395 94.4795 275.166 94.9472L274.994 95.298C274.765 95.7656 274.299 95.8276 273.598 95.4838L273.426 95.8345L273.777 96.0064C277.864 97.4297 280.317 98.3419 281.136 98.743C281.169 99.2669 281.057 99.7918 280.799 100.318L311.432 107.936L311.439 108.809L311.095 109.511C310.866 109.978 305.091 108.743 293.77 105.805C286.296 103.302 282.33 102.519 281.872 103.454C271.538 100.13 262.143 97.7005 253.688 96.1664L253.516 96.5171L254.919 97.2048C268.11 101.06 279.201 104.465 288.193 107.422C292.98 108.898 295.724 109.808 296.425 110.151L296.432 111.025L296.26 111.376C295.071 111.88 286.611 109.909 270.882 105.463L270.71 105.814L271.061 105.986C278.532 108.197 285.185 110.008 291.02 111.417L291.027 112.291L290.855 112.642C290.425 113.518 280.099 111.213 259.878 105.725C237.761 99.8163 214.831 94.2338 191.088 88.978C186.72 88.8672 183.863 88.4823 182.519 87.8233L182.512 86.9499L182.684 86.5991C183.205 86.2747 189.789 86.7464 202.436 88.0142L202.429 87.1407C196.655 86.0512 179.675 81.6442 151.487 73.9198C151.716 73.4521 151.597 73.1037 151.129 72.8745C144.768 71.2073 139.805 69.4998 136.239 67.7521L135.537 67.4083C135.098 67.1206 134.979 66.7722 135.179 66.3629L135.351 66.0122C135.581 65.5445 138.265 66.2801 143.405 68.2191C145.617 68.1433 149.581 68.6358 155.296 69.6967L155.647 69.8686L155.819 69.5179L155.468 69.346C149.861 67.1778 139.645 64.0563 124.821 59.9816C124.621 60.3908 123.103 59.937 120.268 58.6202L120.262 57.7468Z" fill="white"/>
</svg>
