<svg width="2199" height="692" viewBox="0 0 2199 692" fill="white" xmlns="http://www.w3.org/2000/svg">
<path d="M303.252 227.944L309.149 231.471L314.612 222.337L308.715 218.81L303.252 227.944ZM1870.82 123.864L1876.72 127.391L1882.18 118.258L1876.28 114.73L1870.82 123.864ZM1850.61 124.179L1859.46 129.47L1864.92 120.337L1856.08 115.046L1850.61 124.179ZM1486.91 551.507L1498.71 558.561L1504.17 549.428L1492.38 542.373L1486.91 551.507ZM1614.22 305.215L1626.01 312.27L1631.47 303.136L1619.68 296.081L1614.22 305.215ZM1466.71 551.822L1478.5 558.877L1483.96 549.743L1472.17 542.688L1466.71 551.822ZM1449.45 553.901L1455.35 557.428L1460.81 548.295L1454.91 544.767L1449.45 553.901ZM1732.67 53.6323L1738.57 57.1596L1744.03 48.0259L1738.13 44.4986L1732.67 53.6323ZM1429.24 554.216L1435.14 557.743L1440.6 548.61L1434.71 545.082L1429.24 554.216ZM1712.47 53.9474L1718.36 57.4747L1723.83 48.3412L1717.93 44.8139L1712.47 53.9474ZM1695.21 56.0264L1701.11 59.5537L1706.57 50.42L1700.67 46.8927L1695.21 56.0264ZM1675 56.3416L1680.9 59.8689L1686.36 50.7353L1680.47 47.208L1675 56.3416ZM1657.74 58.4203L1663.64 61.9477L1669.11 52.8142L1663.21 49.2869L1657.74 58.4203ZM1637.54 58.7357L1643.44 62.263L1648.9 53.1293L1643 49.602L1637.54 58.7357ZM1620.28 60.8145L1626.18 64.3419L1631.64 55.2083L1625.74 51.681L1620.28 60.8145ZM1600.08 61.1297L1608.92 66.4208L1614.38 57.2872L1605.54 51.9962L1600.08 61.1297ZM1579.87 61.4449L1588.71 66.736L1594.18 57.6024L1585.33 52.3114L1579.87 61.4449ZM1547.09 116.246L1550.04 118.01C1608.03 152.696 1697.7 156.726 1819.05 130.101L1839.25 129.785L1844.72 120.652L1841.77 118.888L1552.55 107.113L1547.09 116.246ZM1404.09 241.535L1409.99 245.062L1415.45 235.929L1409.55 232.402L1404.09 241.535ZM1386.83 243.614L1392.73 247.141L1398.19 238.008L1392.29 234.48L1386.83 243.614ZM1143.84 569.526L1149.74 573.054L1155.21 563.92L1149.31 560.393L1143.84 569.526ZM1126.59 571.605L1132.48 575.133L1137.95 565.999L1132.05 562.472L1126.59 571.605ZM1106.38 571.92L1112.28 575.448L1117.74 566.314L1111.84 562.787L1106.38 571.92ZM1086.18 572.236L1095.02 577.527L1100.48 568.393L1091.64 563.102L1086.18 572.236ZM1068.92 574.314L1077.76 579.606L1083.23 570.472L1074.38 565.181L1068.92 574.314ZM1048.71 574.63L1057.56 579.921L1063.02 570.787L1054.18 565.496L1048.71 574.63ZM483.635 435.052L489.532 438.579L494.996 429.445L489.098 425.918L483.635 435.052ZM460.481 433.603L472.275 440.658L477.738 431.524L465.944 424.47L460.481 433.603ZM440.275 433.918L449.12 439.21L454.584 430.076L445.738 424.785L440.275 433.918ZM423.017 435.997L431.863 441.288L437.326 432.155L428.48 426.864L423.017 435.997ZM402.811 436.313L411.657 441.604L417.12 432.47L408.274 427.179L402.811 436.313ZM365.348 438.707L374.193 443.998C381.276 439.966 387.028 439.273 391.451 441.919L396.914 432.785L388.068 427.494C380.986 431.526 375.234 432.219 370.811 429.573L365.348 438.707ZM317.561 224.101L320.509 225.865C432.004 234.682 508.058 234.702 548.672 225.925L554.136 216.791L468.628 165.645C465.188 163.587 416.653 180.028 323.024 214.968L317.561 224.101ZM8.31633 386.367L13.7796 377.233C24.7061 358.966 67.7775 351.659 142.994 355.311C188.118 365.767 284.378 365.472 431.775 354.425L437.238 345.292L393.01 318.837L358.061 310.334C367.022 290.891 370.519 280.581 368.554 279.405C265.413 275.585 209.42 271.03 200.575 265.739L194.678 262.212C191.657 258.338 193.333 251.073 199.707 240.417L205.17 231.283C211.544 220.628 290.373 189.237 441.657 137.111C461.689 103.621 490.162 91.7153 527.077 101.394C548.815 89.5938 562.141 85.1634 567.055 88.1029L572.518 78.9692L349.818 69.7757L357.796 49.7448L363.26 40.6112C383.87 24.0027 443.36 18.2488 541.731 23.3497C559.335 17.3444 670.743 9.57424 875.954 0.0391061C870.635 13.393 866.154 23.1145 862.512 29.2035C1056.88 54.5229 1226.25 52.484 1370.61 23.0869C1733.94 -7.61481 1952.71 -0.772886 2026.92 43.613C2031.05 37.8179 2042.7 40.6522 2061.86 52.1162C2054.58 64.2943 2053.89 72.147 2059.78 75.6743L2198.71 84.3651L2190.73 104.396L2185.27 113.529C2175.25 130.274 2077.61 146.275 1892.33 161.532L1886.86 170.665C1892.76 174.193 1892.07 182.045 1884.78 194.223L1879.32 203.357C1873.86 212.491 1858.71 219.966 1833.88 225.782C1808.38 268.405 1752.39 263.85 1665.9 212.115C1595.6 211.402 1515.9 217.471 1426.81 230.323L1421.35 239.456L1427.24 242.984L1667.2 250.098L1673.1 253.626C1677.03 255.977 1675.35 263.242 1668.07 275.42L1662.61 284.554C1655.32 296.732 1648.73 301.057 1642.83 297.53L1637.37 306.663L1640.32 308.427C1680.04 315.649 1703.34 321.318 1710.22 325.433C1705.81 337.265 1699.51 350.031 1691.31 363.732L2017.12 347.791L2009.14 367.822L1998.22 386.089C1990.93 398.267 1927.66 405.89 1808.39 408.957C1734.85 398.039 1690.79 404.759 1676.22 429.115C1573.28 417.148 1474.22 419.9 1379.03 437.371L1373.57 446.504L1385.36 453.559C1520.36 459.898 1632.34 469.009 1721.32 480.892C1769.59 484.965 1796.68 488.765 1802.58 492.292L1794.6 512.323L1789.14 521.457C1769.09 540.469 1677.89 547.924 1515.53 543.822L1510.07 552.955L1513.02 554.719C1589.21 558.959 1658.53 559.084 1720.97 555.094L1713 575.125L1707.53 584.259C1693.87 607.092 1581.63 618.495 1370.79 618.466C1139.34 620.569 894.35 635.249 635.835 662.506C580.362 687.199 546.975 696.165 535.672 689.404L543.65 669.373L549.113 660.239C558.855 649.531 639.65 619.316 791.497 569.594L799.475 549.563C734.868 560.524 555.963 565.125 262.759 563.365C270.043 551.187 271.72 543.922 267.788 541.57C200.926 542.915 152.507 534.622 122.53 516.691L116.633 513.164C113.612 509.29 115.289 502.025 121.663 491.369L127.126 482.236C134.41 470.058 162.334 470.225 210.898 482.739C240.21 467.201 286.923 453.804 351.039 442.549L353.987 444.313L359.451 435.179L356.502 433.416C304.007 418.551 200.722 410.51 46.6474 409.295C40.2736 419.95 24.8373 418.985 0.338346 406.398L8.31633 386.367Z" fill="white"/>
</svg>
