<svg width="407" height="187" viewBox="0 0 407 187" fill="none" xmlns="http://www.w3.org/2000/svg">
<path d="M43.7488 87.6431L45.2767 87.9704L45.4403 87.2065L43.9125 86.8792L43.7488 87.6431ZM344.728 85.0007L346.256 85.328L346.42 84.564L344.892 84.2368L344.728 85.0007ZM340.745 84.9464L343.037 85.4373L343.201 84.6734L340.909 84.1825L340.745 84.9464ZM311.61 120.252L314.666 120.907L314.83 120.143L311.774 119.488L311.61 120.252ZM312.045 99.572L315.101 100.227L315.265 99.4627L312.209 98.8081L312.045 99.572ZM307.627 120.198L310.683 120.852L310.846 120.089L307.791 119.434L307.627 120.198ZM304.408 120.307L305.936 120.635L306.099 119.871L304.571 119.543L304.408 120.307ZM310.188 78.401L311.716 78.7283L311.88 77.9644L310.352 77.6371L310.188 78.401ZM300.424 120.253L301.952 120.58L302.116 119.816L300.588 119.489L300.424 120.253ZM306.205 78.3468L307.733 78.674L307.897 77.9101L306.369 77.5828L306.205 78.3468ZM302.986 78.4561L304.514 78.7834L304.677 78.0195L303.149 77.6922L302.986 78.4561ZM299.003 78.4019L300.53 78.7292L300.694 77.9652L299.166 77.638L299.003 78.4019ZM295.783 78.5113L297.311 78.8385L297.475 78.0746L295.947 77.7473L295.783 78.5113ZM291.8 78.457L293.328 78.7843L293.491 78.0204L291.964 77.6931L291.8 78.457ZM287.545 98.3189L290.601 98.9735L290.765 98.2096L287.709 97.555L287.545 98.3189ZM288.581 78.5664L290.109 78.8937L290.272 78.1297L288.744 77.8025L288.581 78.5664ZM282.798 98.1011L285.854 98.7556L286.018 97.9917L282.962 97.3371L282.798 98.1011ZM284.597 78.5121L286.889 79.003L287.053 78.2391L284.761 77.7482L284.597 78.5121ZM278.051 97.8832L281.107 98.5377L281.27 97.7738L278.215 97.1192L278.051 97.8832ZM280.614 78.4579L282.906 78.9488L283.07 78.1849L280.778 77.694L280.614 78.4579ZM279.632 83.0414L280.396 83.205C295.42 86.4232 313.645 87.1311 335.07 85.3288L339.054 85.3831L339.217 84.6192L338.453 84.4555L279.796 82.2775L279.632 83.0414ZM263.864 93.2463L265.392 93.5735L265.555 92.8096L264.028 92.4823L263.864 93.2463ZM260.645 93.3556L262.172 93.6829L262.336 92.919L260.808 92.5917L260.645 93.3556ZM245.259 120.421L246.787 120.748L246.951 119.984L245.423 119.657L245.259 120.421ZM246.895 101.596L248.423 101.923L248.586 101.159L247.059 100.832L246.895 101.596ZM242.04 120.53L243.568 120.858L243.732 120.094L242.204 119.766L242.04 120.53ZM245.42 86.0997L246.948 86.427L247.112 85.663L245.584 85.3358L245.42 86.0997ZM238.057 120.476L239.585 120.803L239.748 120.039L238.221 119.712L238.057 120.476ZM238.929 112.673C247.514 112.382 253.898 112.417 258.082 112.781L258.245 112.017L255.19 111.362C250.097 110.272 244.786 110.199 239.257 111.145L238.929 112.673ZM234.074 120.422L236.365 120.913L236.529 120.149L234.237 119.658L234.074 120.422ZM240.673 85.8818L242.201 86.2091L242.365 85.4451L240.837 85.1179L240.673 85.8818ZM230.854 120.531L233.146 121.022L233.31 120.258L231.018 119.767L230.854 120.531ZM235.926 85.6639L238.218 86.1548L238.382 85.3909L236.09 84.9L235.926 85.6639ZM226.871 120.477L229.163 120.968L229.326 120.204L227.035 119.713L226.871 120.477ZM230.415 85.2824L233.471 85.9369L233.634 85.173L230.579 84.5185L230.415 85.2824ZM198.932 101.709L201.224 102.2L201.388 101.436L199.096 100.945L198.932 101.709ZM195.713 101.818L198.005 102.309L198.168 101.545L195.877 101.054L195.713 101.818ZM192.494 101.928L194.022 102.255L194.185 101.491L192.657 101.164L192.494 101.928ZM183.492 121.572L184.256 121.735L189.003 121.953L189.167 121.189L186.111 120.535C184.983 120.826 184.165 120.917 183.656 120.808L183.492 121.572ZM172.415 113.606L173.943 113.933L174.106 113.169L172.578 112.842L172.415 113.606ZM175.087 97.4001L176.615 97.7273L176.779 96.9634L175.251 96.6361L175.087 97.4001ZM169.195 113.715L170.723 114.043L170.887 113.279L169.359 112.951L169.195 113.715ZM170.34 97.1822L172.632 97.6731L172.795 96.9092L170.504 96.4182L170.34 97.1822ZM165.212 113.661L167.504 114.152L167.668 113.388L165.376 112.897L165.212 113.661ZM165.593 96.9643L168.649 97.6188L168.812 96.8549L165.757 96.2004L165.593 96.9643ZM161.993 113.771L164.285 114.261L164.448 113.498L162.157 113.007L161.993 113.771ZM158.774 113.88L161.065 114.371L161.229 113.607L158.937 113.116L158.774 113.88ZM154.79 113.826L157.082 114.317L157.246 113.553L154.954 113.062L154.79 113.826ZM150.807 113.771L153.863 114.426L154.026 113.662L150.971 113.007L150.807 113.771ZM154.788 80.2683L155.552 80.4319C166.374 82.7501 191.019 84.567 229.488 85.8827L229.651 85.1187L227.359 84.6278C218.101 83.71 200.695 82.9111 175.141 82.231L174.377 82.0674C174.058 81.0671 174.022 79.994 174.267 78.8481C162.117 78.3761 155.988 78.3948 155.879 78.9041L154.788 80.2683ZM147.588 113.881L149.116 114.208L149.279 113.444L147.751 113.117L147.588 113.881ZM146.112 87.1987L156.043 89.3259L156.207 88.562L146.276 86.4348L146.112 87.1987ZM142.401 78.414L144.693 78.9049L144.857 78.141L142.565 77.6501L142.401 78.414ZM137.654 78.1961L140.71 78.8507L140.874 78.0868L137.818 77.4322L137.654 78.1961ZM119.594 87.9101L126.469 89.3828C129.398 90.0101 134.6 90.5917 142.075 91.1277L142.239 90.3637L139.183 89.7092C128.252 87.9003 121.777 87.046 119.758 87.1462L119.594 87.9101ZM106.772 95.5502L108.3 95.8774L108.463 95.1135L106.935 94.7862L106.772 95.5502ZM104.316 95.8232L105.844 96.1504L106.008 95.3865L104.48 95.0592L104.316 95.8232ZM100.498 106.191L102.026 106.518L102.189 105.754L100.661 105.427L100.498 106.191ZM100.332 84.5831L106.444 85.8922C107.571 85.6011 108.39 85.5101 108.899 85.6192L109.063 84.8553C106.153 84.7645 103.297 84.4192 100.496 83.8192L100.332 84.5831ZM95.7506 105.973L98.8063 106.627L98.9699 105.864L95.9142 105.209L95.7506 105.973ZM91.7673 105.919L94.0591 106.41L94.2227 105.646L91.931 105.155L91.7673 105.919ZM94.0574 84.0379L97.113 84.6925L97.2767 83.9286L94.221 83.274L94.0574 84.0379ZM88.548 106.028L90.8398 106.519L91.0034 105.755L88.7116 105.264L88.548 106.028ZM91.9835 78.7999L92.7474 78.9635C97.5491 78.9268 100.969 79.1266 103.006 79.5629L103.169 78.799L100.878 78.3081C100.241 78.1717 97.3308 78.081 92.1471 78.036L91.9835 78.7999ZM88.3835 95.6061L93.731 96.7516C95.3861 97.1061 98.3508 96.9422 102.625 96.2598L102.789 95.4959L102.025 95.3323L88.5471 94.8422L88.3835 95.6061ZM84.5648 105.974L86.8565 106.465L87.0202 105.701L84.7284 105.21L84.5648 105.974ZM77.3622 106.029L79.654 106.52C80.6543 106.201 81.7274 106.165 82.8733 106.41L83.0369 105.646L80.7452 105.156C79.7448 105.474 78.6717 105.51 77.5258 105.265L77.3622 106.029ZM46.2042 87.3701L46.9681 87.5338C70.0128 88.7415 85.1273 89.0495 92.3116 88.4578L92.4753 87.6939L70.3216 82.9485C69.4303 82.7576 61.4457 83.9768 46.3679 86.6062L46.2042 87.3701ZM1.13463 100.087L1.29827 99.3233C1.62554 97.7955 9.44647 97.3401 24.7611 97.9574C34.7829 99.0388 53.8806 99.4011 82.0542 99.0442L82.2179 98.2803L70.7591 95.8258L62.9562 94.9533C62.7742 93.3164 62.4286 92.4434 61.9193 92.3343C41.0391 91.5902 29.4531 90.9727 27.1613 90.4818L25.6335 90.1545C24.6422 89.809 24.242 89.1906 24.4329 88.2994L24.5966 87.5355C24.7875 86.6442 37.2826 84.2606 62.0821 80.3846C62.6821 77.5835 67.1381 76.6738 75.4502 77.6553C78.5786 76.7275 80.7793 76.3999 82.0525 76.6726L82.2162 75.9087L37.0363 74.2207L36.5997 72.5292L36.7633 71.7653C39.1822 70.4192 50.4226 70.1637 70.4843 70.9988C73.3762 70.5529 94.7293 70.333 134.543 70.339C134.835 71.4667 134.926 72.2851 134.816 72.7944C175.995 75.7559 209.443 76.2626 235.161 74.3145C304.259 73.136 348.42 74.6058 367.645 78.724C367.882 78.2419 370.483 78.5328 375.448 79.5964C375.23 80.6149 375.885 81.2879 377.413 81.6151L405.895 82.9225L406.332 84.614L406.169 85.3779C405.869 86.7784 388.08 87.762 352.804 88.3285L352.641 89.0924C354.169 89.4197 354.823 90.0926 354.605 91.1112L354.442 91.8751C354.278 92.639 352.023 93.2212 347.676 93.6217C346.912 97.1867 335.326 96.5692 312.918 91.7692C298.876 91.4247 283.653 91.626 267.247 92.373L267.083 93.1369L268.611 93.4641L317.01 95.0428L318.538 95.37C319.557 95.5882 319.957 96.2066 319.739 97.2252L319.575 97.9891C319.357 99.0076 318.484 99.3533 316.956 99.026L316.792 99.7899L317.556 99.9536C326.178 100.735 331.379 101.317 333.162 101.698C333.48 102.699 333.517 103.772 333.271 104.918L396.403 104.858L396.84 106.55L396.512 108.078C396.294 109.096 384.49 109.497 361.1 109.281C345.385 108.045 337.309 108.446 336.873 110.483C315.211 109.039 295.804 108.877 278.652 109.997L278.489 110.76L281.544 111.415C309.009 112.504 332.181 113.739 351.06 115.12C361.064 115.665 366.83 116.101 368.357 116.428L368.794 118.12L368.63 118.884C366.566 120.439 349.196 120.713 316.521 119.706L316.357 120.47L317.121 120.634C332.691 121.305 346.477 121.595 358.482 121.504L358.918 123.195L358.755 123.959C358.346 125.869 337.193 126.398 295.296 125.546C249.516 124.795 202.317 125.071 153.7 126.376C145.17 128.277 139.441 128.914 136.512 128.287L136.076 126.595L136.239 125.831C137.094 124.949 150.098 122.675 175.253 119.008L174.816 117.316C163.085 117.999 127.999 117.675 69.5602 116.342C69.7784 115.324 69.3782 114.705 68.3597 114.487C55.2095 114.334 44.7512 113.425 36.9847 111.761L35.4568 111.434C34.4655 111.089 34.0653 110.47 34.2562 109.579L34.4199 108.815C34.6381 107.796 40.2037 107.923 51.1168 109.196C55.3727 107.977 63.3027 107.012 74.9068 106.302L75.6707 106.466L75.8344 105.702L75.0704 105.538C63.1388 104.047 41.8039 102.94 11.0656 102.214C10.8747 103.106 7.70992 102.96 1.57128 101.779L1.13463 100.087Z" fill="#994574"/>
</svg>
