<?xml version="1.0" standalone="no"?>
<!DOCTYPE svg PUBLIC "-//W3C//DTD SVG 1.1//EN" "http://www.w3.org/Graphics/SVG/1.1/DTD/svg11.dtd" >
<svg xmlns="http://www.w3.org/2000/svg" xmlns:xlink="http://www.w3.org/1999/xlink" version="1.1">
<metadata>
Created by FontForge 20170731 at Thu Dec 23 19:11:20 2010
 By Aleksey,,,
(c) Chris Au 2010
</metadata>
<defs>
<font id="Remnant-Regular" horiz-adv-x="915" >
  <font-face 
    font-family="Remnant"
    font-weight="400"
    font-stretch="normal"
    units-per-em="1000"
    panose-1="0 0 0 0 0 0 0 0 0 0"
    ascent="999"
    descent="-1"
    x-height="999"
    cap-height="999"
    bbox="-30 -137.25 893 1025"
    underline-thickness="50"
    underline-position="-150"
    unicode-range="U+000D-007A"
  />
<missing-glyph horiz-adv-x="250" 
 />
    <glyph glyph-name=".notdef" horiz-adv-x="250" 
 />
    <glyph glyph-name=".null" horiz-adv-x="0" 
 />
    <glyph glyph-name="nonmarkingreturn" unicode="&#xd;" horiz-adv-x="250" 
 />
    <glyph glyph-name="NULL" horiz-adv-x="0" 
 />
    <glyph glyph-name="NULL" horiz-adv-x="0" 
 />
    <glyph glyph-name="space" unicode=" " horiz-adv-x="250" 
 />
    <glyph glyph-name="exclam" unicode="!" horiz-adv-x="194" 
d="M163 969q0 -23 2 -45t1 -44q-1 -8 -4 -14.5t-4 -13.5q0 -2 1.5 -5t1.5 -6q0 -5 -2 -10t-2 -9q0 -13 0.5 -26t-2.5 -28q-2 -10 -4 -19t-3 -20q-1 -8 -1 -17.5t-2 -15.5q-2 -5 -5 -8t-5 -6q-8 -21 -6 -42.5t2 -44.5q0 -11 -2 -23.5t-3 -24.5q-1 -20 -2 -38.5t-5 -39.5
q-11 -16 -9 -40t12 -38q7 -26 4 -51.5t2 -44.5q2 -9 7 -17.5t10 -16.5q0 -25 -16 -36q-20 3 -34 -6q-16 2 -27 8.5t-23 12.5q-3 18 -3 36v36t-1.5 36t-6.5 36q3 8 2.5 17.5t0.5 19.5q0 6 1 12t0 11q0 5 -2 9.5t-2 9.5q-1 7 0.5 15.5t2.5 16.5q1 16 3.5 32.5t0.5 31.5
q0 4 -1.5 7t-2.5 7q-2 15 -1.5 35t1.5 37q0 10 -0.5 20.5t1.5 18.5q2 6 4.5 11.5t2.5 10.5q1 5 0 9t-1 8q0 8 2.5 15.5t3.5 15.5q1 5 -0.5 11t-1.5 12q1 4 2.5 8t2.5 9q2 14 -2 28t-3 27q2 14 6.5 26.5t4.5 22.5q-1 11 -4.5 21t-4.5 21q16 17 13 44q10 13 22.5 14.5
t25.5 -3.5t26.5 -13t25.5 -13zM181 144q3 -8 6.5 -13.5t5.5 -12.5q4 -28 -5.5 -48t-27.5 -34t-40.5 -23t-42.5 -14q-21 5 -38.5 16.5t-27.5 27t-11 35.5t12 42q4 7 12 15t17 15.5t18 13t17 6.5q17 3 31 0.5t26 -7t23.5 -10t24.5 -9.5z" />
    <glyph glyph-name="quotedbl" unicode="&#x22;" horiz-adv-x="1161" 
d="M106 1005q-5 -10 -10 -23t-5 -30q0 -23 0.5 -45t6.5 -34q1 -14 -2.5 -24.5t-5.5 -21.5q-8 -5 -13.5 -12.5t-15.5 -6.5q-11 1 -19.5 13.5t-18.5 17.5q-3 10 -2 21t-3 22q-2 4 -4.5 6.5t-3.5 7.5q-3 12 1.5 23.5t2.5 21.5t-9 15t-6 14q0 6 4.5 9t6.5 9q2 5 0.5 9t0.5 6
q4 9 16 12t26.5 2t29 -5t23.5 -7zM176 813q-7 17 -5.5 36t-3.5 37q-2 7 -7.5 14t-5.5 12q0 8 5.5 12.5t7.5 11.5q1 9 -1.5 17t-5.5 15t-4.5 14t0.5 14t11.5 10t21 3t23 -2t18.5 -5q9 -4 16.5 -10.5t10.5 -13.5t1 -14t-12 -12q5 -27 0.5 -51t-21.5 -35q-3 -10 -5.5 -21
t-7.5 -19.5t-13.5 -12.5t-22.5 0z" />
    <glyph glyph-name="dollar" unicode="$" horiz-adv-x="432" 
 />
    <glyph glyph-name="quotesingle" unicode="'" horiz-adv-x="392" 
d="M129 747q9 6 11.5 17.5t9.5 23.5q4 6 8.5 9.5t6.5 8.5q2 8 1 16.5t-3 18.5q-7 -3 -14.5 -5t-12.5 -8q-19 4 -42 13t-40.5 23t-26 34t0.5 45q6 16 18.5 24t20.5 23q13 7 32 10.5t38 2.5t36.5 -6.5t27.5 -15.5q13 -18 22.5 -47t4.5 -68q-2 -14 -7 -29.5t-11.5 -30.5
t-14.5 -28.5t-15 -22.5q-6 -8 -15 -20.5t-23 -9.5q-8 2 -8.5 9.5t-4.5 12.5z" />
    <glyph glyph-name="parenleft" unicode="(" horiz-adv-x="368" 
d="M348 1q-44 -5 -76.5 3.5t-58.5 24t-48 35.5t-45 37q-15 26 -35 53t-29 62q-3 8 -4 18.5t-3 20.5q-7 27 -15 54.5t-13 55.5q-6 30 -6 60.5t-4 62.5q-2 12 -7 24t-4 29q1 14 5 26t4 25q0 5 -2 11t-2 11q1 14 5.5 31.5t6.5 34.5q3 19 5.5 35.5t7.5 31.5q3 9 8.5 17t8.5 16
q2 7 3 14t4 14q2 6 6 11.5t6 11.5q2 4 1.5 9t1.5 10q5 8 11.5 14t4.5 17q17 13 27 31t27 31q18 14 39 23t39 24q20 3 39.5 6.5t45.5 2.5q9 -1 18 0t13 0q11 -3 20 -14t12.5 -25t1.5 -28t-13 -22q-16 -6 -33 -10t-33 -7.5t-31 -8t-28 -12.5q-23 -14 -42.5 -40.5t-33.5 -52.5
q-9 -17 -15 -36t-18 -34q-5 -41 -11 -81t-14 -82q-1 -8 -4 -15.5t-4 -15.5q-2 -19 0.5 -42.5t4.5 -43.5q1 -15 10 -28t11 -28q1 -5 -0.5 -8.5t-1.5 -8.5q1 -25 9 -50t15 -49q4 -12 7.5 -23.5t8.5 -21.5q14 -27 33 -46.5t50 -29.5q11 -4 24.5 -8.5t27.5 -3.5q4 0 8 2t9 1
q15 -1 27 -8t25 -13q6 -11 8 -25t1 -28.5t-5 -28t-11 -23.5z" />
    <glyph glyph-name="parenright" unicode=")" horiz-adv-x="374" 
d="M33 1q-7 9 -11 22t-5.5 28t0.5 29.5t7 26.5q12 7 25.5 11.5t26.5 10.5q9 -4 22 -3.5t26 4t24.5 8.5t19.5 9q29 14 47 46.5t27 70.5q6 24 13.5 44.5t9.5 43.5q0 6 -1.5 11.5t-0.5 11.5q2 17 10.5 29.5t10.5 31.5q4 36 1.5 70t-8.5 66q-2 7 -4.5 12.5t-4.5 11.5
q-6 28 -9 56.5t-8 58.5q-5 6 -8 13.5t-9 12.5q-6 29 -22 56t-35 48q-8 8 -16.5 17t-16.5 14q-13 8 -29 12.5t-32.5 7.5t-33.5 6.5t-33 11.5q-5 5 -8 10.5t-8 10.5q0 24 9 43t26 24q9 2 21 0t22 0q7 1 18 0.5t23 -2.5t23.5 -5.5t18.5 -6.5q13 -6 32.5 -18t33.5 -20
q7 -5 15.5 -14.5t15.5 -18.5q6 -8 14 -16t12 -15q12 -21 21 -48.5t20 -53.5q7 -15 14 -29.5t12 -34.5q5 -17 6.5 -38t4.5 -38q1 -5 3 -10t2 -9q0 -8 -2 -13t-2 -12q1 -13 5 -25.5t6 -24.5q-2 -17 -5.5 -36t-5.5 -38q-1 -13 -0.5 -25t-0.5 -25q-2 -27 -7.5 -53t-12 -51.5
t-12 -51t-8.5 -50.5q-14 -26 -27.5 -56t-33.5 -53q-5 -7 -15.5 -14.5t-18.5 -15.5q-13 -11 -23 -19.5t-24 -18.5q-26 -18 -62 -31.5t-85 -6.5z" />
    <glyph glyph-name="comma" unicode="," horiz-adv-x="390" 
d="M81 -110q11 3 16.5 13.5t15.5 19.5q5 5 11 7t9 6q5 8 5.5 16t2.5 18q-8 -1 -16 -0.5t-13 -3.5q-18 9 -37 24t-32 33.5t-15.5 40t13.5 43.5q10 13 24 17t27 16q15 3 34 1t37 -8.5t33 -16.5t22 -23q7 -21 7.5 -51.5t-15.5 -66.5q-11 -25 -34.5 -51.5t-43.5 -40.5
q-4 -3 -9.5 -7.5t-11.5 -8t-12 -4.5t-12 2q-7 4 -5.5 11.5t-0.5 13.5z" />
    <glyph glyph-name="period" unicode="." horiz-adv-x="395" 
d="M219 118q11 -20 11 -37.5t-7 -32t-19.5 -26.5t-26.5 -20q-24 -15 -47.5 -19t-49.5 11q-15 9 -26.5 26t-11.5 33q0 12 6.5 27t17.5 28.5t24.5 23.5t26.5 12q16 2 29.5 0t25.5 -6.5t23 -10t24 -9.5z" />
    <glyph glyph-name="slash" unicode="/" horiz-adv-x="454" 
d="M454 960q-7 -8 -9.5 -26.5t4.5 -29.5q-5 -15 -13 -25t-16 -24q-8 -16 -7 -34t-4 -37q-5 -17 -16 -32.5t-16 -33.5q-2 -6 -1 -12.5t-1 -11.5q-2 -8 -7.5 -15t-7.5 -15q-2 -10 -2 -20t-2 -20q-2 -6 -6 -11t-6 -12t-1 -14.5t0 -15.5q-2 -17 -10 -35.5t-15 -36.5
q-3 -8 -6 -17t-7 -17q-3 -9 -5 -18t-6 -17q-2 -6 -7.5 -10t-8.5 -10q-4 -8 -4.5 -16.5t-2.5 -16.5q-2 -11 -7 -22.5t-9 -23.5q-5 -20 -10 -37t-16 -29q-4 -23 -13 -40t-11 -41q-20 -33 -36.5 -69t-28.5 -78q-5 -8 -9.5 -17t-11.5 -16q-20 1 -34.5 -3.5t-31.5 0.5
q-12 4 -21 14.5t-26 11.5q-6 10 -6 25.5t5 26.5q-1 5 4 4t7 2q3 11 13 17t16 16q8 13 13 29t11 31q7 14 13.5 28t14.5 27q11 8 17 19.5t13 25.5q2 4 5.5 7.5t4.5 6.5q2 9 0.5 20t-0.5 22q1 10 3.5 20.5t4.5 20.5q4 18 10.5 34.5t12.5 36.5q5 14 8 29.5t8 28.5q5 11 13 27
t13 32q5 18 6.5 36.5t-4.5 32.5q8 23 12.5 47t8.5 48q2 12 4 25t5 24q2 7 7.5 12t7.5 11q4 11 3.5 21.5t7.5 18.5q2 24 8 43t13.5 37t15 35t13.5 37q32 2 59.5 7t55.5 -4q13 -16 21 -34z" />
    <glyph glyph-name="zero" unicode="0" 
d="M606 941q11 -14 21.5 -28.5t20.5 -29.5q9 -27 16 -55t11 -64q6 -57 6.5 -121.5t3.5 -129.5q0 -8 -1.5 -18t-0.5 -19q1 -5 3 -8t2 -8t-1.5 -10.5t-1.5 -10.5q-3 -37 -3 -73t-10 -71q-2 -5 -4.5 -8.5t-3.5 -8.5q-2 -5 -1 -11.5t-1 -11.5q-3 -14 -12 -31t-17 -32
q-14 -26 -25 -47t-25 -45q-5 -8 -9 -17t-9 -15q-12 -17 -30.5 -27.5t-31.5 -24.5q-8 1 -14 -1.5t-11 -5.5t-11 -4t-13 3q-44 -22 -84 7q-4 3 -6.5 8.5t-7.5 10.5q-9 9 -17 12.5t-9 18.5q-38 41 -58 108q-10 32 -22 63.5t-12 67.5q0 14 1 30t0 29q0 11 -3 20.5t-5 20.5
q-1 11 0.5 25.5t1.5 25.5q-1 29 -4 58.5t-1 59.5q2 22 5.5 44.5t5.5 44.5q3 23 4.5 46.5t8.5 40.5q2 5 6 9t6 9q3 7 5 13.5t6 13.5q7 14 13 29.5t14 30.5q5 7 10 13t8 13q5 12 8.5 22t11.5 20q6 9 13 16t14 16q9 -2 12 3t12 3q12 8 28 17t34.5 15t37.5 7t36 -8q5 -2 8.5 -7
t8.5 -9q2 -1 5 -1t5 -2q10 -7 25.5 -16.5t26.5 -14.5zM504 810q-8 7 -16.5 8t-18 -0.5t-18.5 -5t-16 -5.5q-26 -8 -45.5 -19.5t-27.5 -30.5q-4 -1 -8.5 -1t-7.5 -2q-7 -32 -20 -59.5t-16 -60.5q-2 -2 -4.5 -4t-4.5 -5v-33t8 -30q-12 -30 -8.5 -68.5t6.5 -80.5q3 -34 7 -66.5
t12 -60.5t20.5 -50.5t31.5 -35.5q3 -14 11.5 -23t18 -17t18 -17t12.5 -22q7 5 11 3.5t15 -1.5q17 10 26.5 25t20.5 33q5 9 11.5 16t10.5 15q6 11 8.5 25t7.5 28t13 29.5t16 31.5q9 19 19 40.5t10 41.5v41.5t-4 42.5q-2 5 -3.5 8.5t-1.5 8.5q-1 7 0.5 14t0.5 15q-1 28 -4 62
t-7 59q-2 11 0 22.5t0 22.5q-1 10 -5.5 20t-9.5 20.5t-8.5 21t-2.5 22.5q-5 2 -11.5 6.5t-13.5 8.5t-15.5 6.5t-17.5 0.5z" />
    <glyph glyph-name="one" unicode="1" 
d="M611 967q-14 -14 -30 -25t-35 -20q-16 -13 -24.5 -31.5t-13 -40.5t-6.5 -46.5t-3 -49.5q-2 -27 -5.5 -55t-7.5 -56.5t-6 -56.5t1 -55q1 -8 4 -15.5t4 -15.5q3 -20 2.5 -40.5t1.5 -41.5q2 -40 4 -80.5t7 -80.5q5 -37 11.5 -75.5t3.5 -82.5q11 -12 27 -24t38 -14q8 -1 16 1
t16 2q17 0 30.5 -6.5t27.5 -8.5q3 -25 -5 -40q-20 -6 -44 -7t-49.5 -0.5l-51 1t-46.5 -1.5q-34 -3 -61 -1.5t-59 3.5q-8 0 -25.5 -0.5t-35.5 1t-31 7t-11 17.5q0 4 7 10.5t17 12t20.5 9.5t18.5 4q9 0 16.5 -3.5t16.5 -2.5q28 10 49 28.5t20 55.5q-5 28 0 56t4 56
q0 15 -1.5 29.5t-2.5 29t1 27.5t8 25q-7 19 -5.5 40t-0.5 42q-1 7 -4 13.5t-3 14.5q0 14 1.5 31t3.5 35t4 35.5t3 32.5q2 37 1 73.5t-3 73.5q-14 13 -30.5 16.5t-33 0.5t-33 -10.5t-29.5 -15.5q-14 -8 -27 -19.5t-30 -13.5q-2 14 -3 32.5t5 32.5q1 4 6 10t11 13t12 13l9 9
q25 24 50.5 46.5t54.5 46.5q16 13 29.5 22.5t30.5 17.5q24 11 53 19t51 22q26 4 37.5 -7t21.5 -24z" />
    <glyph glyph-name="two" unicode="2" 
d="M690 215q7 -6 8.5 -13t0.5 -15t-3 -16t-3 -15t0.5 -14.5t-0.5 -15.5q-2 -6 -11.5 -15.5t-15.5 -12.5t-13 -2.5t-15 -3.5q-13 -5 -27 -15.5t-28 -19.5q-8 -5 -14.5 -9.5t-14.5 -8.5q-8 -5 -15.5 -6.5t-16.5 -5.5q-12 -6 -23.5 -14.5t-25.5 -10.5q-11 -2 -26 -2.5t-30.5 0
t-29 2.5t-21.5 5q-8 4 -15 10t-15 11q-9 7 -19 10.5t-15 7.5q-11 8 -19.5 22t-16.5 26q-8 14 -18 25.5t-14 24.5q-2 11 -1.5 21.5t-1.5 21.5t-5 20.5t-5.5 19.5t-4 21.5t0.5 27.5q2 30 14 65.5t21 63.5q10 29 20 51.5t25 46.5q8 14 14.5 27.5t13.5 24.5q7 9 20.5 22t25.5 24
q13 11 24.5 22t23.5 21q29 23 49 47t46 41q7 5 12.5 6.5t10.5 4.5q10 6 21 15.5t19.5 22.5t11.5 29.5t-1 37.5q-1 6 -6.5 14t-12.5 15t-15 13t-14 8q-8 3 -23.5 4t-32.5 1t-33 -1t-26 -2q-7 -2 -13 -5t-12 -4q-6 -2 -13 -1t-12 1q-22 -3 -42 -7t-40 0q-8 8 -17 13.5
t-10 19.5q0 6 6 15t14.5 18.5t18.5 18t18 14.5q17 11 42 12t54 2q22 1 44.5 1.5t42.5 -1.5t36 -8.5t25 -19.5q21 0 34.5 -10.5t24 -26t18.5 -32t19 -27.5q-2 -15 0.5 -28.5t6 -26t6 -24.5t1.5 -24q-1 -7 -4 -13t-5 -14t-2.5 -15t-2.5 -13q-5 -11 -18.5 -25.5t-24.5 -22.5
q-23 -19 -51 -36.5t-52 -40.5q-17 -16 -35 -31t-34 -33q-6 -6 -10.5 -13t-9.5 -12q-12 -9 -27 -13t-21 -17q0 -17 -6.5 -29.5t-15.5 -23l-18 -21t-15 -24.5q-4 -10 -5.5 -25t-6.5 -30q-7 -23 -14.5 -51.5t1.5 -60.5q5 -17 21.5 -33.5t32.5 -24.5q14 -8 37.5 -10t43.5 1
q8 1 16.5 5.5t17.5 6.5q20 3 40 1.5t33 3.5q9 4 15.5 11.5t14.5 12.5q17 8 35 11.5t35 9.5q11 5 22.5 11t25.5 3z" />
    <glyph glyph-name="three" unicode="3" 
d="M526 547q13 -11 22 -30t21 -32q9 -11 21 -16.5t21 -19.5q8 -12 14 -28.5t11 -32.5q2 -5 5 -9t5 -9q4 -9 4 -20t2 -23q3 -22 6.5 -42t-6.5 -37q-6 -58 -33 -108.5t-62 -81.5q-7 -5 -14.5 -9t-9.5 -13q-11 -1 -20 -6t-18 -11t-18.5 -10.5t-22.5 -4.5q-3 0 -7 2t-7 2
q-6 -2 -10.5 -5.5t-9.5 -3.5q-11 -1 -29 3.5t-27 8.5q-5 2 -2 3t-1 4q-2 1 -6.5 0t-5.5 0q-9 5 -16 13.5t-18 9.5q-1 10 -7.5 17.5t-14.5 14t-16.5 13t-12.5 13.5q-8 13 -7 32.5t7 36.5q20 -1 38 -9.5t37 -12.5q7 -2 14 0t13 -5q32 -4 67.5 -0.5t62.5 9.5q13 3 23 4
t17.5 3.5t13.5 7.5t12 15q5 8 13 27.5t9 30.5q0 3 -1 10.5t-3 12.5q-2 9 -4.5 21t-6 23.5t-7 22t-7.5 16.5q-4 7 -10 11.5l-12 9t-11.5 10.5t-8.5 15q-10 2 -17.5 8t-15.5 12.5t-17 12t-21 7.5q-16 2 -33.5 2t-32.5 2q-6 1 -11.5 0t-10.5 2q-7 3 -9.5 11.5t-2 18t4 19
t7.5 15.5q31 14 55.5 34t40.5 49q4 2 7.5 4t9.5 1q5 14 17.5 22.5t21.5 19.5q4 5 6.5 11t7.5 11q6 8 15 14.5t15 14.5q14 20 16 44t-1 59q-11 8 -16 21.5t-11 27.5q-11 11 -26 17t-31.5 10.5t-33.5 9t-31 12.5q-12 -6 -31 -10t-30 -3q-17 -16 -33 -32.5t-36 -30.5
q-6 1 -11.5 2t-10.5 3q-9 23 -7 40.5t9.5 32.5t18.5 27.5t21 24.5t19.5 22t18.5 17q29 4 62.5 14.5t67.5 9.5q10 0 20.5 -3.5t21.5 -5.5q14 -2 23.5 -4.5t20.5 -10.5q7 -5 11.5 -12t12.5 -10q1 -12 6 -21.5t11.5 -19t13 -18.5t11.5 -19q8 -17 9 -36.5t-1.5 -40.5t-8 -41.5
t-9.5 -38.5q3 -21 -7.5 -41t-19.5 -40q-13 -28 -28 -49.5t-35 -40.5z" />
    <glyph glyph-name="four" unicode="4" 
d="M241 697q5 -9 16.5 -9t24.5 -5q8 -4 15 -10.5t14 -8.5q9 -3 21 -3t23 -3q8 -3 15 -8t15 -7t19.5 -3.5t23.5 -2t22.5 0.5t17.5 4q9 -2 24 -4.5t22 5.5q6 -5 13 -5t15 -2q6 -2 9.5 -5t10.5 -1q8 1 11 7.5t3.5 16t0 19.5t0.5 19q0 4 1.5 7.5t2.5 7.5q2 14 0.5 28t0.5 27
q1 6 2.5 11.5t2.5 10.5q4 17 5.5 35t3.5 35l4.5 18t-4.5 15q7 5 11 14.5t7 20t6 21.5t8 20q2 4 5.5 7.5t5.5 7.5q4 6 15 15.5t26 2.5q2 -1 3 -3.5t5 -4.5q3 -20 1 -39t8 -31q-8 -20 -6 -40t-3 -41q-1 -5 -4 -8.5t-5 -8.5q-6 -15 -8 -32t-3 -34t-3.5 -34t-8.5 -32
q1 -9 -0.5 -18.5t-2 -19t1.5 -17t8 -11.5q3 -2 11 -4t16.5 -3l17 -2t13.5 -2q8 -2 16 -1.5t16 -1.5q13 -2 22 -5.5t22 1.5q14 -17 10 -36t-11 -37q-14 -7 -31.5 -10t-37 -3.5t-39.5 0t-37 1.5q-11 -8 -10.5 -22t-0.5 -25q-1 -8 -2.5 -15t-2.5 -15t0.5 -17t0.5 -18
q0 -18 -6.5 -36.5t-9.5 -38.5q-3 -23 -3.5 -43t-6.5 -39q-2 -4 -4.5 -7t-3.5 -8q-2 -8 -1 -16.5t-2 -16.5q-5 -14 -13 -27t-13 -29q-3 -10 -3 -21.5t-4 -20.5t-10.5 -16.5t-12.5 -16.5q-12 -19 -24 -37t-27 -32q-9 -3 -20.5 -3h-22.5q-10 8 -20 16.5t-8 22.5q1 6 5.5 10.5
t9 9.5t7.5 11t2 14q7 7 13 16.5t12 19.5q7 8 14.5 16.5t11.5 17.5q5 16 3.5 37.5t5.5 40.5q1 3 2.5 6.5t3.5 8.5q5 11 10.5 27t7.5 30t1 27.5t1 27.5q2 8 7 16t7 17q3 13 1 28t0 29q1 3 2.5 6t2.5 7q2 5 1 9t1 8q2 8 6.5 18t1.5 25q-8 7 -18 9t-21.5 2.5t-23.5 0t-22 2.5
q-15 5 -28.5 13t-30.5 6q-24 18 -57.5 23t-71.5 9q-8 1 -18.5 4t-20.5 5q-22 5 -38 10t-30 15q-4 1 -7.5 0.5t-5.5 1.5q-17 17 -35 31.5t-25 41.5q1 6 4 8.5t4 7.5t0 10t-1 10q-1 23 3.5 51t11.5 47q3 6 8 11.5t7 12.5q5 11 5 25t2 26q2 11 5.5 21.5l7.5 22.5q2 9 6 16.5
t5 19.5q4 4 9 10.5t13 4.5q5 -2 11 -13.5t8 -18.5q5 -23 3.5 -52t0.5 -60q1 -22 3 -44t3 -42q1 -6 0 -12.5t0 -11.5q2 -11 8.5 -24.5t5.5 -23.5z" />
    <glyph glyph-name="five" unicode="5" 
d="M220 240q14 4 25.5 2t22 -6.5t20.5 -9.5t21 -8q14 -4 27.5 -7t24.5 -8q8 -4 13.5 -11.5t13.5 -10.5q14 -5 33.5 -3.5t37.5 -1.5q9 -2 16 -6t15 -6q37 -6 64.5 11.5t39.5 42.5q5 27 0 48t-12 42q-4 14 -5.5 27.5t-5.5 24.5q-5 12 -13.5 23t-17.5 21.5t-15.5 23t-6.5 27.5
q-13 7 -27.5 17.5t-31.5 12.5q-42 5 -81 6t-74 18q-5 2 -12.5 7t-15.5 11t-14.5 12.5t-9.5 11.5q-11 15 -17 36t-14 41q-3 8 -8 18t-7 18q-3 20 0 50.5t9 47.5q2 8 7.5 14t7.5 14q5 20 5 39.5t7 36.5q8 20 18.5 31.5t21.5 27.5q19 5 37.5 16.5t40.5 19.5q28 10 55 17.5
t58 17.5q10 3 22.5 2.5t24.5 -3.5t23.5 -7t20.5 -7q22 -8 35.5 -14t30.5 -20q7 -5 14 -10.5t11 -11.5q4 -7 4 -14.5t3 -17.5q1 -6 4.5 -11.5t6 -11.5t3.5 -13.5t-1 -17.5q-5 -7 -10 -13t-13 -10q-17 -2 -26.5 1t-21.5 9q-5 2 -11.5 4t-11.5 4q-8 4 -12.5 8.5t-13.5 6.5
t-20.5 3.5t-22.5 3.5q-17 2 -28 -0.5t-26 -4.5q-11 -2 -20.5 -1.5t-17.5 -0.5t-15 -4t-13 -11q-3 -3 -4.5 -6.5t-4.5 -6.5q-10 -12 -24.5 -28t-20.5 -33q-2 -5 -2.5 -12t-2.5 -13q-5 -16 -12.5 -30t-3.5 -33q2 -10 9.5 -15.5t12.5 -12.5q17 -8 35 -9t38 -2q32 -1 62.5 -10.5
t63.5 -11.5q16 -11 28.5 -23.5t29.5 -23.5q9 -13 15.5 -28t14.5 -29q8 -13 17.5 -26.5t16.5 -27.5q5 -10 7.5 -21.5t5.5 -22.5q10 -29 19 -61t19 -66q-5 -16 -4 -30t-1 -29q-2 -10 -6 -18.5t-6 -18.5t-1.5 -20t-2.5 -20q-4 -16 -14.5 -29t-18.5 -27q-9 -14 -19.5 -26
t-19.5 -23q-15 -8 -27.5 -15.5t-26 -13.5t-30 -9.5t-39.5 -3.5h-27.5t-26.5 2q-11 2 -22.5 9t-25.5 13q-19 8 -35.5 16t-33.5 19q-11 8 -21.5 16.5t-20.5 12.5q-8 3 -15 2.5t-12 2.5q-4 2 -9 6.5t-10.5 10t-9.5 10.5t-5 8q-2 6 -0.5 13t0.5 13q-1 11 -3.5 22.5t-4 23
t-0.5 22t7 19.5z" />
    <glyph glyph-name="six" unicode="6" 
d="M777 839q-14 2 -20.5 -2t-14.5 -9q-33 20 -70.5 27t-80.5 16q-11 3 -22 7t-22 7t-24 4t-28 -2q-19 -5 -41 -12t-44 -16t-41.5 -18.5t-33.5 -19.5q-12 -8 -21.5 -21t-16.5 -27q-3 -6 -4 -13t-5 -14q-4 -8 -11.5 -13.5t-10.5 -14.5q-10 -26 -21 -53.5t-21 -57t-17.5 -60
t-10.5 -61.5q14 6 28.5 14.5t31.5 16.5t34.5 11.5t34.5 11.5q7 3 17.5 9t22 10t23 4t21.5 -8q20 0 39.5 -4t39.5 -9l40 -10t41 -8q11 -2 23.5 -1.5t24.5 -1.5q18 -2 34 -8t32 -13t31.5 -14t32.5 -10q6 -9 14 -18.5t14 -21.5q7 -14 14.5 -35t7.5 -38q0 -11 -4 -25t-8 -27
q-8 -26 -16.5 -50.5t-26.5 -38.5q-8 -19 -19 -34.5t-24.5 -29.5t-27 -27t-25.5 -28q-19 -11 -36 -23t-29 -29q-14 -3 -29.5 -11.5t-29.5 -13.5q-9 -4 -19 -5t-19 -2.5t-16.5 -5t-12.5 -10.5q-31 -8 -61.5 -2t-62.5 14q-19 5 -36.5 11.5t-26.5 18.5q-10 11 -14 23.5t-15 22.5
h-26q-9 37 -25.5 68.5t-33.5 62.5q-3 5 -7.5 10.5t-7.5 11.5q-4 7 -6 15.5t-4.5 16t-6.5 14.5t-11 12q-6 52 -6.5 102.5t15.5 95.5q3 5 -2 9t-5 10q6 20 13.5 38t12.5 39q2 10 0.5 20t1.5 21q2 10 9 17t13 18t10.5 24.5t10.5 26.5q6 14 9.5 27t8.5 25q5 11 15 26t16 29
q4 9 6 19.5t6 16.5t13.5 12t20.5 12t23 12t21 12q17 11 37 24.5t40 22.5q24 10 49.5 15t46.5 10q14 4 25.5 9.5t31.5 2.5q8 -1 14.5 -4t13.5 -4q8 -1 17.5 0t18.5 2q8 0 16.5 1.5t14.5 -0.5q5 -1 8.5 -5t8.5 -7q8 -5 16.5 -6.5t14.5 -8.5q27 0 47.5 -12t38.5 -24
q10 -7 19 -15.5t10 -19.5q2 -17 -10 -31.5t-24 -24.5zM388 167q10 -1 19.5 4.5l19 11t20 9.5t24.5 0q21 7 42 20t44 27q7 4 18.5 10.5t23.5 14t22 15t13 15.5q2 4 0.5 8.5t-0.5 10.5q2 11 8.5 22t8.5 19q1 10 -1 17.5t-6.5 13.5t-10 11.5t-9.5 12.5q-33 8 -68 14t-65 17
q-11 4 -22 10t-19 5q-22 -2 -47.5 -8t-49.5 -14t-45 -18.5t-33 -22.5q-15 -14 -26 -33t-28 -31q3 -10 8 -17.5t10.5 -15t10 -15.5t6.5 -19q17 -4 25.5 -16t18.5 -23q-8 -9 1 -16.5t20 -1.5q9 -2 18 -7.5t17.5 -12t16 -12t15.5 -5.5z" />
    <glyph glyph-name="seven" unicode="7" 
d="M757 948q-3 -4 -5.5 -11.5t-3.5 -15.5t0 -16t5 -13q-5 -18 -18 -31.5t-18 -32.5q-3 -13 -2 -26.5t-2 -27.5q-5 -18 -16 -33.5t-16 -32.5q-2 -7 -1 -12.5t-1 -11.5q-2 -8 -7 -14t-7 -14q-2 -10 -2 -20.5t-3 -19.5q-2 -7 -5.5 -12t-5.5 -12q-2 -8 -1 -14.5t-1 -14.5
q-2 -16 -9.5 -34.5t-14.5 -35.5q-3 -8 -6 -17t-6 -17q-4 -9 -6 -18t-6 -17q-2 -5 -7.5 -9t-8.5 -10q-4 -8 -4 -16.5t-2 -16.5q-2 -11 -7.5 -22t-8.5 -23t-5.5 -25.5t-7.5 -22.5q-2 -5 -6 -9t-6 -9q-4 -7 -5.5 -16t-4.5 -17q-5 -12 -9.5 -21t-4.5 -25q-20 -32 -36.5 -68
t-27.5 -78q-5 -8 -9.5 -16.5t-11.5 -15.5q-20 1 -34.5 -3.5t-30.5 0.5q-12 4 -21 14.5t-26 11.5q-6 9 -6 24.5t5 26.5q8 2 12 9t12 15q5 5 9.5 7.5t6.5 6.5q8 13 12.5 29t11.5 30q6 15 12.5 28.5t14.5 25.5q4 8 11.5 14t12.5 14q3 7 8.5 17t7.5 15q2 8 0 19t0 22q0 8 3 19
t5 21q2 17 8.5 34t11.5 35q5 13 8 27t8 27q7 17 15.5 32.5t13.5 31.5q9 37 0 67q8 20 12.5 44t8.5 50q2 12 4 25t5 23q2 7 7.5 12.5t7.5 11.5q2 5 1.5 10.5t1.5 11.5q2 9 6 15t2 14t-10 11t-19 4t-23 0.5t-22 0.5q-14 2 -28 9.5t-31 9.5q-34 5 -73 0q-9 -2 -22.5 -5.5
t-25.5 -8.5q-5 -2 -9.5 -5t-8.5 -3q-9 -2 -19.5 2.5t-23.5 6.5q-5 1 -11 0t-11 0q-14 2 -29.5 6t-34.5 -1q-4 8 -8 14.5t-6 14.5q-2 12 1 23.5t8.5 22.5l10.5 21t7 20q21 7 44.5 8.5t47.5 0.5t48 -1.5t45 2.5q4 1 8 2.5t8 2.5q17 2 38.5 -2.5t42.5 -5.5q17 -1 31.5 -2
t28.5 -3q11 -1 21.5 0.5t21.5 -0.5q8 -1 17 -4t18 -4q27 -3 52 4t48 6q8 -1 15.5 -5t15.5 -2q6 -8 10.5 -16t9.5 -17z" />
    <glyph glyph-name="eight" unicode="8" 
d="M583 542q13 -11 21.5 -30t20.5 -32q9 -10 21 -16t21 -20q8 -11 13.5 -27t11.5 -33q2 -5 5 -9t5 -9q3 -9 3 -20t2 -22q3 -23 6 -42t-6 -37q0 -29 -8 -56t-21.5 -50.5t-30 -44t-32.5 -35.5q-7 -6 -15 -10t-10 -13q-11 -1 -20 -6t-18 -11t-18.5 -10.5t-22.5 -4.5q-3 0 -7 2
t-6 1q-7 -1 -11.5 -4.5t-9.5 -3.5t-9 2.5t-9 2.5t-9.5 -2.5t-8.5 -2.5q-6 0 -10 3.5t-11 4.5q-5 1 -13.5 -1t-16.5 0q-17 4 -31 16t-32 14q-24 25 -50 52t-42 62q-6 13 -15 34.5t-11 38.5q0 5 1 10.5t-1 10.5q-1 4 -3 8.5t-3 9.5q-2 11 1 27t5 33q2 11 2 23t4 21q2 5 5 8.5
t5 8.5q9 25 17.5 46t25.5 36q5 5 11.5 7t10.5 6q13 13 20.5 31t22.5 31q-17 19 -32.5 40t-29.5 50q-7 16 -16.5 32t-11.5 30q-1 5 0.5 9t1.5 8q-1 9 -6 18.5t-6 18.5q-2 11 -3 20.5t-2 17.5q-3 23 -2 44.5t9 38.5q4 10 10.5 18t13 16.5t11 18.5t6.5 24q11 6 23.5 19t27.5 17
q14 5 33 5t40 2q16 1 32 5t30.5 6t28.5 0t27 -11q39 3 70.5 -9t51.5 -34q1 -12 5.5 -21.5t11 -18.5t13.5 -18t12 -19q8 -17 9 -37t-1.5 -40.5t-8 -41t-9.5 -37.5q3 -21 -7.5 -41t-19.5 -40q-13 -27 -27.5 -48.5t-34.5 -39.5zM606 815q-6 10 -15 22t-20.5 23t-23.5 20t-23 13
q-5 2 -14 4.5t-19.5 4t-21 2.5t-17.5 1q-14 -1 -29.5 -2t-27.5 -5q-23 -7 -37.5 -24.5t-22.5 -40.5q-24 -14 -26.5 -47t6.5 -67q12 -44 33 -82.5t46 -63.5q17 -5 31.5 -11.5t33.5 -6.5q36 0 63 19.5t46 42.5q9 11 18 24.5t16.5 27.5t13 27.5t7.5 24.5q2 17 -0.5 30.5
t2.5 26.5q-8 7 -10.5 16.5t-8.5 20.5zM369 436q-3 -2 -5 -6.5t-5 -8.5q-5 -4 -9 -5.5t-7 -4.5q-4 -5 -8.5 -15t-11.5 -20q-12 -20 -18 -39t-13 -43l-7 -24.5t-4.5 -20.5t0 -20t6.5 -22q27 -66 102 -84q20 -5 35 -8.5t40 -1.5q36 3 68 9.5t53 20.5q9 6 18 17t17 24.5t13.5 27
t6.5 25.5q1 16 -5 28.5t-10 28.5q-3 11 -5 22.5t-7 22.5q-3 5 -9 9.5t-11 12.5q-4 5 -5 12t-5 13q-7 11 -16.5 20t-17.5 17q-15 14 -38.5 27.5t-49.5 12.5q-29 -2 -52 -7.5t-40 -19.5z" />
    <glyph glyph-name="nine" unicode="9" 
d="M514 9q-1 12 -1.5 24t1 23t6.5 19t14 12q2 11 7.5 19.5t10.5 16.5q15 53 25.5 112t18 121t12 125t6.5 125q-13 -4 -26 -12.5t-30 -12.5q-8 -2 -14.5 -1t-14.5 -1q-14 -2 -27 -8t-34 -3q-7 1 -14.5 5t-14.5 6q-17 4 -34.5 5t-34.5 6t-34.5 7.5t-28.5 8.5q-8 5 -13 14.5
t-12 17.5q-11 14 -25 24t-22 25q-20 38 -14 105q1 12 2 24.5t3 20.5t12.5 16.5t18.5 19.5t16.5 19.5t17.5 12.5q10 5 22.5 7.5t22.5 7.5t18.5 10.5t19.5 10.5q21 10 44.5 18.5t45.5 17.5q14 7 25 14t25 8q10 0 22.5 -2.5t23.5 -2.5q15 -1 23.5 -2t22.5 -6q17 -6 30.5 -17
t24.5 -24q8 -35 9.5 -74t6.5 -78q1 -6 3 -11l4 -10q5 -23 4 -50.5t1 -54.5q2 -26 5 -52.5t1 -49.5q-2 -11 -6 -22t-5 -22q-2 -18 -0.5 -37l3 -38t2 -38t-2.5 -36q-6 -30 -13.5 -57t-11.5 -55q-2 -12 -1.5 -25t-0.5 -26q-2 -23 -9.5 -43.5t-12.5 -40.5q-3 -13 -3.5 -25.5
t-5.5 -23.5q-6 -16 -16.5 -27.5t-14.5 -28.5q-6 -6 -16.5 -11.5t-22.5 -8t-24 -1t-20 9.5zM475 903q-16 -7 -31 -14t-29 -14q-13 -7 -27.5 -16t-28 -19.5t-23.5 -22.5t-14 -24q-5 -17 -4.5 -36t-1.5 -37q8 -20 27.5 -30t39.5 -19q17 -8 32 -15t38 -7q18 1 29 7.5t27 10.5
q14 4 26 6t23 7q16 9 28 22t22 23q-5 50 -12.5 94t-8.5 95q-29 14 -57 7.5t-55 -18.5z" />
    <glyph glyph-name="colon" unicode=":" horiz-adv-x="340" 
d="M186 795q11 -21 11 -40t-7 -35t-19.5 -28.5t-26.5 -21.5q-24 -16 -48 -20.5t-50 12.5q-15 10 -26.5 28t-12.5 35q0 13 7 29.5t18 31t24.5 25t26.5 12.5q17 3 30.5 0.5t25.5 -7t23 -10.5t24 -11zM186 372q11 -21 11 -40t-7 -35t-19.5 -28.5t-26.5 -21.5q-24 -16 -48 -20.5
t-50 12.5q-15 10 -26.5 28t-12.5 35q0 13 7 29.5t18 31t24.5 25t26.5 12.5q17 3 30.5 0.5t25.5 -7t23 -10.5t24 -11z" />
    <glyph glyph-name="semicolon" unicode=";" horiz-adv-x="287" 
d="M136 784q10 -19 10.5 -35.5t-6.5 -30.5t-18.5 -25t-24.5 -19q-23 -14 -45 -17.5t-46 10.5q-14 9 -25 24.5t-11 30.5q0 12 6 26t16.5 27t23 22t24.5 11q16 2 28.5 0t23.5 -6t21.5 -9t22.5 -9zM33 217q-5 5 -4.5 8.5t-1.5 10.5q6 8 14 14.5t14.5 14t11 16.5t2.5 22
q-14 0 -22 -4q-17 4 -35 17t-29.5 30.5t-11.5 37t20 34.5q5 5 15 11t17 8q12 4 27.5 2.5t30.5 -6.5t26.5 -12t16.5 -15q12 -20 12 -42.5t-7 -44t-18.5 -40.5t-23.5 -31q-11 -11 -24 -20.5t-30 -10.5z" />
    <glyph glyph-name="less" unicode="&#x3c;" horiz-adv-x="633" 
d="M470 824q-68 -71 -163 -114q-5 -2 -6 -6.5t-4 -6.5q-42 -18 -75.5 -42t-71.5 -45q-1 -8 -6.5 -14t-3.5 -14t13 -12.5t22 -11.5t19 -14t15 -12q17 -13 35.5 -25.5t32.5 -25.5q12 -11 21.5 -24t19.5 -26t20 -25.5t23 -22.5q13 -11 29.5 -21.5t32.5 -21.5t31 -22.5t26 -25.5
q2 -5 -3 -10q15 -23 42 -35q-19 1 -44 -2.5t-54 -1.5q-3 -2 0 -4t2 -5q-23 8 -43 19t-38 23q-4 13 -13 21.5t-18.5 16.5t-18.5 16.5t-14 20.5q-20 15 -37.5 32.5t-29.5 40.5q-24 3 -41 11.5t-31.5 19.5t-27.5 23t-28 22q-3 2 -4.5 0t-5.5 -1q-3 8 -10 13t-16 8
q-5 14 -12.5 28.5t2.5 31.5l6 6l8 8q7 8 17.5 21t20.5 18q19 7 36 18t33 22t31.5 21t31.5 16q8 9 18 18t22 19q20 16 41 31.5t42 32.5q14 11 23.5 23.5t20.5 19.5q6 4 19.5 10t20.5 6q10 -1 14.5 -7.5t7.5 -14t7 -15t13 -9.5z" />
    <glyph glyph-name="equal" unicode="=" horiz-adv-x="432" 
 />
    <glyph glyph-name="greater" unicode="&#x3e;" horiz-adv-x="569" 
d="M295 443q-13 -20 -27.5 -38t-35.5 -31q-4 -12 -12 -20.5t-16.5 -16.5t-16.5 -16.5t-12 -20.5q-17 -12 -34.5 -22t-38.5 -18q-1 3 1 4t2 4q-26 -2 -48 1.5t-42 1.5q11 7 21 15t17 19q0 3 -2.5 4t-0.5 5q10 16 26 28.5t33 24.5l34 24t30 26q18 20 31 42t31 41
q12 11 28.5 24t31.5 24q5 5 12.5 11.5t17.5 12.5q9 6 16.5 10t11.5 9t3.5 12t-8.5 18q-32 22 -63.5 44.5t-68.5 40.5q-3 2 -4 6t-4 6q-45 20 -81 48.5t-68 60.5q8 3 11.5 10t6.5 14.5t7 14t12 7.5q6 1 19 -5t19 -10q8 -6 18 -18.5t23 -23.5q11 -10 23.5 -18.5t21.5 -17.5
q3 -3 5 -6.5t4 -6.5q15 -14 30.5 -23t23.5 -26q15 -5 29 -14.5t28.5 -20t30 -21t32.5 -17.5q8 -4 18 -17t16 -21q13 -15 15 -33t-12 -38q-8 -4 -14 -8.5t-8 -12.5q-3 0 -4.5 1t-3.5 2q-14 -10 -26 -21.5t-24.5 -22.5t-28 -19.5t-36.5 -11.5z" />
    <glyph glyph-name="question" unicode="?" horiz-adv-x="436" 
d="M249 548q-1 -37 0.5 -75t-7.5 -73q-4 -13 -7 -23t1 -27q1 -5 3.5 -9t4.5 -9q5 -20 3 -43.5t2 -37.5q2 -8 6.5 -16t8.5 -14q0 -20 -14 -31q-9 5 -16 0.5t-15 -4.5q-12 0 -20.5 7t-19.5 11q-5 31 -3.5 60.5t-6.5 59.5q3 10 3 19v18q0 20 -0.5 40.5t1.5 50.5l2 10t1 11
q-1 3 -2 6.5t-2 7.5q-1 9 -0.5 20t1.5 22.5t1 22.5t-1 19q-1 5 -4 12t-1 12q2 10 9 12t18 7q8 3 13.5 7.5t12.5 5.5q11 2 21.5 0.5t20.5 2.5q13 5 25 13.5t25 14.5q6 20 11 41.5t7.5 44t1 44.5t-8.5 43q-5 14 -14.5 24t-14.5 24q-17 8 -35 19t-38 15q-12 3 -27.5 0.5
t-31.5 -0.5q-22 2 -45.5 3.5t-43.5 -5.5q-14 -5 -21 -7q-8 -5 -11.5 -10.5t-11.5 -7.5q-14 -2 -21.5 5.5t-8.5 16.5q-1 7 2.5 16t9 17t11.5 14.5t11 10.5q8 6 20.5 12.5t21.5 8.5q7 2 15 1t16 0q14 2 26.5 5t28.5 5q10 1 21 1.5t22 -1.5q5 -1 10 -2.5t10 -2.5q7 -1 14.5 0
t14.5 0q11 -2 24.5 -7t21.5 -10q7 -5 12 -13t12 -14q5 -5 12 -11.5t13 -10.5q4 -3 8 -4t8 -5q7 -8 11 -21t12 -22q3 -5 7 -7.5t6 -5.5q4 -6 7 -14.5t6 -17.5q5 -14 8 -28.5t8 -31.5q3 -13 5.5 -29t-2.5 -30q-1 -3 -3 -6l-4 -6q-6 -15 -9.5 -31t-10.5 -30q-2 -2 -4 -4.5
t-4 -6.5q-8 -11 -14.5 -19t-20.5 -16t-26.5 -15t-29.5 -15q-14 -5 -27.5 -7.5t-30.5 -6.5zM293 122q3 -7 6 -11.5t4 -10.5q4 -24 -4.5 -41t-23.5 -29t-34 -19.5t-36 -11.5q-18 4 -33 14t-23.5 23.5t-9 30t10.5 35.5q7 11 24 25.5t30 16.5q15 2 26.5 0t22 -5.5t20 -8.5
t20.5 -8z" />
    <glyph glyph-name="A" unicode="A" horiz-adv-x="624" 
d="M484 95q-4 -4 -6.5 -9t-5.5 -9q-17 -2 -34.5 -2.5t-31.5 -5.5q-5 13 -12 28.5t-6 32.5q0 5 2 9.5t3 9.5q2 14 -1 34.5t-5 41.5q-2 20 -2.5 39.5t-2.5 36.5q-3 23 -7.5 53t-12.5 52q-29 8 -54.5 8.5t-50 -2.5t-49 -6.5t-50.5 -2.5q-4 -37 -8.5 -76.5t-9 -79.5t-10.5 -78.5
t-13 -72.5q-7 -6 -10.5 -19.5t-7.5 -27.5t-9 -26t-14 -15q-10 -3 -21 1.5t-22 7.5q-11 2 -22 5.5t-14 12.5q1 18 2.5 38.5t4 41t7.5 38.5t13 32q-3 11 -0.5 24t0.5 26q0 5 -1.5 9.5t-1.5 9.5q0 13 5 27.5t8 29.5q4 26 4 53t5 53q2 13 5.5 24.5t5.5 23.5q2 19 4.5 39t6.5 39
t9 35t13 27q1 28 10 50.5t18.5 43.5t17.5 42t8 46q8 16 15 31.5t15 32.5q-2 37 14.5 70t30.5 62q8 3 21 7.5t25 4.5t20 -5.5t8 -21.5q15 -21 26 -44.5t21 -53.5q8 -23 15.5 -44.5t16.5 -45.5q5 -16 14.5 -30t13.5 -30q2 -5 1.5 -10.5t0.5 -10.5q5 -20 12 -38.5t12 -38.5
q7 -22 10 -43.5t8 -43.5q3 -13 10 -24t10 -23q5 -22 2 -44t-4 -42q0 -37 3 -73.5t6.5 -73.5t6.5 -74.5t2 -76.5q-2 -5 -0.5 -5.5t3 -0.5h3t1.5 -3zM325 666q-9 26 -16.5 51.5t-18.5 49.5q-1 20 -9 34.5t-16 28.5q-2 0 -2.5 1t-2.5 1q-25 -65 -46.5 -133.5t-32.5 -151.5
q40 -9 83.5 -6t81.5 6q6 32 -2.5 61.5t-18.5 57.5z" />
    <glyph glyph-name="B" unicode="B" horiz-adv-x="568" 
d="M300 548q14 -14 21.5 -30.5t19.5 -30.5q8 -11 21 -17t23 -20q19 -28 31.5 -71.5t15.5 -84.5q2 -14 0 -27q-1 -5 -3.5 -9.5t-3.5 -10.5q-1 -4 0 -9.5t0 -10.5q-2 -16 -9 -34.5t-14 -35.5q-12 -27 -32 -54.5t-41 -44.5q-5 -5 -12.5 -8.5t-9.5 -12.5q-11 -1 -20 -6t-18 -11
t-19 -10.5t-23 -4.5q-3 0 -7 2t-6 1q-8 -1 -12.5 -4.5t-9.5 -3.5q-17 0 -36.5 7t-33.5 12q-23 -2 -41 6.5t-31 20.5q-7 5 -11.5 9t-5.5 8q-3 7 -2.5 19t0.5 23q0 12 -1 23t1 21q1 5 4 10t4 10q3 11 4 24.5t3 26.5q2 15 5 29t2 25q-1 9 -5 17t-5 15q-2 17 4 30.5t8 29.5
q2 20 -2.5 42.5t-6.5 46.5q-2 21 -1 43t-1 45q-1 16 2 32t2 31q-1 12 -3.5 24.5t-3.5 24.5q-2 25 -0.5 48.5t-2.5 46.5q-1 5 -3 10t-2 10q-1 5 1 10t2 10q0 4 -2.5 7.5t-2.5 8.5q-1 10 1 21t1 21q-2 13 -3 22.5t3 23.5q5 20 11 32t19 20q4 2 6.5 1t3.5 1q1 1 -1.5 2t0.5 3
q5 3 12 5.5t13 6.5q17 11 35.5 14t45.5 9q7 2 12.5 4.5t11.5 4.5q21 5 38.5 3.5t35.5 -5.5q17 -3 25 -4t19 -8q8 -5 20.5 -13.5t17.5 -14.5q5 -8 7 -18.5t6 -19.5q8 -17 21 -31.5t16 -35.5q2 -14 1 -31.5t-4 -35.5t-7 -34.5t-8 -29.5q0 -5 1.5 -9.5t-0.5 -10.5
q-20 -40 -39 -81.5t-52 -69.5zM227 587q5 0 7 1.5t7 0.5q5 14 17.5 22.5t21.5 19.5q4 5 5.5 12t6.5 12q6 8 15.5 13t16.5 14q14 20 15.5 44.5t-0.5 60.5q-12 7 -16.5 20.5t-10.5 26.5q-11 10 -26 16.5t-31.5 11l-33 9t-31.5 11.5q-9 -5 -27 -6.5t-29 -10.5q7 -41 3.5 -79.5
t-4.5 -76.5q-2 -17 2 -34t6 -34q1 -12 -1 -25t-1 -25q2 -21 7 -41t2 -41q23 17 44.5 34.5t34.5 43.5zM173 140q29 -1 54 3t46 8q11 2 22 2.5t17 3.5q13 8 21 23.5t14 29.5q6 13 7.5 22.5t0.5 19t-4 19.5t-7 23q-4 14 -7 29t-8 24q-4 7 -10.5 11t-12.5 8.5t-11.5 10
t-7.5 14.5q-18 6 -32 20t-34 19q-16 4 -33.5 2t-39.5 0q-2 -69 -9 -144.5t-10 -138.5q8 -5 20 -6.5t24 -2.5z" />
    <glyph glyph-name="C" unicode="C" horiz-adv-x="662" 
d="M501 78q4 -14 2 -23.5t-8.5 -15.5t-17 -10.5t-22.5 -9.5q-5 -2 -9 -5.5t-9 -4.5q-8 -2 -17.5 -1t-17.5 -1t-13 -4.5t-9 -2.5q-8 0 -16.5 4t-17.5 6q-10 2 -19.5 2.5t-17.5 2.5q-11 4 -24.5 11.5t-25.5 12.5q-29 14 -51.5 36t-45.5 34q-14 23 -34 48.5t-31 57.5
q-5 17 -9 37t-10 40q-9 29 -18 60.5t-14 67.5q-2 17 -2 33t-3 31q-2 10 -5 22t-5 25t-1 26t7 25q-3 21 -2.5 45.5t4 49t9.5 47.5t13 42q3 8 6 15.5t5 15.5t5.5 14t6.5 13q5 14 7.5 25t9.5 24q4 8 10.5 16t12.5 17q8 11 14.5 18t13.5 12t15.5 10.5t20.5 13.5q20 14 37.5 22
t45.5 16q11 2 31.5 1.5t35.5 -0.5q31 1 61.5 -8.5t52.5 -21.5q8 -5 12.5 -7.5t8 -6t6 -8t7.5 -11.5q5 -8 13 -14.5t13 -14.5q3 -5 8 -14.5t9 -15.5q7 -14 13.5 -28.5t6.5 -29.5q0 -18 -8.5 -36t-25.5 -19q-15 -1 -18.5 6t-10.5 15q-6 7 -14 11t-10 12q-24 10 -43.5 24
t-45.5 22q-16 -9 -32.5 -2.5t-26.5 14.5q-21 -2 -38.5 1.5t-33.5 -1.5q-6 -2 -17 -11t-17 -16q-5 -5 -12 -16t-14 -23t-13 -24t-9 -20q-5 -15 -5.5 -29t-12.5 -21q-1 -28 -4.5 -52.5t-7.5 -48t-8 -45.5t-6 -45q-1 -5 -0.5 -11t0.5 -11q1 -20 4 -40.5t8 -34.5q4 -10 10.5 -20
t8.5 -21q1 -5 -0.5 -9.5t-1.5 -9.5q2 -22 11 -44t16 -45q9 -27 18.5 -49t24.5 -39q5 -7 15.5 -14.5t18.5 -11.5q9 -5 22 -8.5t26 -6.5q5 -2 15.5 -3.5t16.5 -0.5q12 2 26 9.5t32 8.5q9 0 17.5 -3t18.5 -1q7 1 16 5t20 7q10 3 20.5 4.5t16.5 4.5q6 2 10.5 7.5t11.5 5.5
q8 1 18.5 -5.5t12.5 -14.5q1 -4 -0.5 -7.5t-2.5 -8.5q-2 -9 -3.5 -21.5t-6 -23.5t-12.5 -19t-23 -6z" />
    <glyph glyph-name="D" unicode="D" horiz-adv-x="644" 
d="M62 5q-6 5 -8 15t-3.5 20t-5.5 17.5t-15 7.5q2 23 2 43.5t4 42.5q2 14 0.5 28t0.5 29t6.5 29.5t7.5 31.5q2 10 0 19t-1 19q0 5 2.5 9t3.5 9q0 5 -2 11t-1 11q0 8 2 16.5t3 16.5q2 36 -0.5 73t2.5 74q1 8 2.5 15t2.5 15q1 23 -1 45.5t0 44.5q0 10 2.5 21.5t3.5 22.5
t-0.5 21.5t-7.5 19.5q8 11 4.5 24.5t-4.5 24.5q0 13 2.5 25t3.5 24q0 42 -0.5 84t11.5 84q31 8 59 4t63 -12q11 -3 22 -3.5t19 -4.5q7 -3 13 -7.5t13 -8.5q45 -24 85 -53t72 -60q7 -17 16 -33.5t18.5 -34t17 -36t11.5 -39.5q2 -8 0.5 -17t0.5 -18t5.5 -17.5t5.5 -18.5
q5 -19 7.5 -38.5t5.5 -39.5q2 -10 4.5 -21t2.5 -19q-1 -17 -6.5 -35t-7.5 -37q-1 -14 -1.5 -28t-2.5 -26q-2 -10 -6 -19.5t-6 -19.5q-2 -14 -3.5 -27t-5.5 -26q-5 -14 -11.5 -26t-10.5 -26q-2 -7 -2.5 -14t-2.5 -13t-8.5 -14.5t-11.5 -16.5q-24 -37 -55 -65t-66 -52
q-15 -11 -30.5 -16.5t-32.5 -13.5q-11 -5 -19 -10.5t-18 -8.5q-17 -7 -35.5 -10t-38 -4.5l-39 -3t-38.5 -4.5zM358 291q5 8 12 14.5t10 12.5q4 9 7 23t6 25q5 26 9 58t5 57q0 8 -2 18t-3 21q-1 19 -6 39t-7 40t-7 37q-2 7 -6 13t-6 14q-5 20 -7.5 41t-12.5 38
q-8 14 -19 25.5t-23.5 21.5t-26 20t-26.5 21q-22 18 -48 33.5t-44 13.5q-8 -34 -5 -73t6 -69q1 -10 0 -19.5t-1 -20.5q0 -47 2.5 -91t-2.5 -91q-4 -29 -1.5 -59.5t0.5 -61.5q-2 -26 -9 -51t-10 -51q-2 -15 0.5 -31.5t0.5 -33.5q-1 -8 -4 -16t-5.5 -15.5t-2.5 -15t5 -13.5
q8 -4 13.5 0.5t12.5 6.5q8 1 14.5 -0.5t13.5 0.5q16 4 30 13t28.5 18t30.5 15t36 5q17 10 24.5 29.5t17.5 38.5z" />
    <glyph glyph-name="E" unicode="E" horiz-adv-x="601" 
d="M460 1000q13 -10 22.5 -32.5t1.5 -48.5q-3 -9 -20.5 -20t-31.5 -17q-18 -8 -41.5 -11t-49 -3.5t-52.5 0.5t-51 0q-21 -1 -38.5 -8t-28.5 -15q-2 -34 -6.5 -70.5t-7.5 -73t-3 -73.5t7 -72q22 -8 50 -10t56.5 -3.5t54.5 -5.5t45 -15q1 -31 -8 -51t-26 -35q-6 -6 -10.5 -9
t-10 -5t-12 -3.5t-17.5 -2.5q-27 -4 -65 -3.5t-74 -0.5q1 -58 -2 -111t-6 -107q39 -5 77.5 -12.5t82.5 -4.5q18 -15 35.5 -31.5t40.5 -27.5q18 8 42.5 9.5t44.5 9.5q15 -14 15.5 -27.5t-6.5 -25.5t-18.5 -23.5l-20.5 -20.5q-11 -11 -22 -21.5t-21 -18.5q-47 0 -93 3
q-25 2 -49 0.5t-46 1.5q-8 1 -15 5t-15 6q-21 5 -41.5 3t-37.5 4q-8 3 -13.5 8t-11.5 9t-12.5 6.5t-16.5 0.5q1 33 -2.5 71t-2.5 73q1 29 12 57.5t16 60.5t5.5 68.5t0.5 71.5q1 35 0.5 70.5t-0.5 72.5q0 35 3.5 70t3.5 69q0 21 -1 46.5t-1 52.5t2 52t7 45q16 8 33.5 11.5
t35.5 8.5q5 2 10 5t10 5q9 2 19 1.5t20 1.5q5 1 10.5 4.5t10.5 5.5q8 2 17.5 2.5t18.5 2.5q19 5 38.5 4t43.5 2q6 1 11.5 4t10.5 4q10 2 19.5 0.5t19.5 -0.5q14 2 27.5 5.5t26.5 5.5z" />
    <glyph glyph-name="F" unicode="F" horiz-adv-x="607" 
d="M78 0q2 36 -5 62t-16.5 50t-18 49t-8.5 59q11 18 17.5 38t4.5 43q-1 9 -4 18t-4 18q-2 17 -2 36t2 36q2 11 3.5 22.5t2.5 27.5q2 17 7.5 33t9.5 33q6 21 7 43t0.5 44t-1 43.5t1.5 42.5t8.5 44.5t1.5 50.5q-2 14 -7 33t-3 39q2 11 6.5 20.5t6.5 18.5q2 18 1 30t8 23
q7 8 14.5 18t18.5 15q17 3 32.5 -0.5t31.5 -2.5q9 0 17.5 3t16.5 3q7 0 14 -1.5t14 -1.5q23 0 44.5 6t40.5 4q5 -1 10 -3.5t10 -3.5q26 -4 53 -0.5t44 7.5q14 -4 24.5 -14.5t16 -25t4.5 -30t-9 -29.5q-7 -11 -26.5 -25.5t-36.5 -19.5q-3 -1 -9 -2.5t-13 -3t-13.5 -2
t-9.5 -0.5q-9 1 -19 7.5t-20 8.5q-17 4 -37 4t-38 2t-37 0t-32 -13q0 -60 2 -121.5t-6 -115.5q18 -6 39.5 -8t44 -3.5t44.5 -3t40 -7.5q24 8 53 3.5t49 -11.5q3 -7 6.5 -13.5t8.5 -11.5q-14 -17 -17 -45q-20 -21 -52.5 -30t-70.5 -17q-23 -5 -47.5 -6.5t-46.5 -8.5
q-6 -2 -11.5 -5.5t-11.5 -5.5q-15 -5 -32.5 -3.5t-31.5 -1.5q-4 -24 1 -49t5 -53q0 -22 -3.5 -47.5t-5.5 -51.5q-2 -35 1.5 -69.5t-1.5 -60.5q-2 -5 -6.5 -10.5t-6.5 -11.5q-3 -10 -3 -21t-3 -20q-5 -14 -15 -25.5t-18 -19.5q-5 -3 -15 -1.5t-15 -1.5z" />
    <glyph glyph-name="G" unicode="G" horiz-adv-x="780" 
d="M247 418q-5 1 -1 3.5t4 4.5q-5 2 -9 4t-5 7q1 9 6 15t11 11t11.5 10.5t7.5 11.5q18 6 37.5 8t40 1.5t42.5 -1t45 1.5q19 2 37 5.5t36 1.5q24 -2 46 -8t42 -5q5 1 9 2t9 1q15 0 28.5 -6.5t25.5 -10.5q9 -12 12 -40.5t-1 -54.5q-2 -10 -6 -18t-6 -16t-0.5 -15.5t0.5 -14.5
q-2 -16 -7 -28t-12 -23q-6 -30 -18.5 -53.5t-27.5 -44.5t-31 -41t-29 -42q-6 0 -8 -4.5t-6 -7.5q-4 -2 -8 -3t-8 -3q-7 -5 -13 -11t-14 -11q-14 -8 -26.5 -11.5t-18.5 -17.5q-23 -12 -58.5 -14t-71.5 0q-15 1 -26 6t-19.5 12.5t-15.5 15.5t-16 14q-7 -1 -12 -2.5t-11 -2.5
q-9 20 -23 38t-28 35q-11 12 -23 23t-22 23q-9 11 -15 25.5t-21 21.5q-13 38 -25 79.5t-6 94.5q-7 6 -8 15.5t0 21.5t3 25t2 25q0 11 -3 20t-3 17q0 9 4 17t7 17q6 21 9 44t5 44q2 32 16.5 68.5t32.5 65.5q17 28 34.5 55t35.5 49q15 19 34.5 32.5t36.5 29.5q8 8 15.5 18.5
t21.5 13.5q8 2 15.5 1t12.5 1q6 2 10.5 6.5t10.5 6.5q10 5 19.5 8t16.5 11q8 -5 20.5 -6.5t24.5 0.5q14 2 25.5 7t31.5 2t36 -6t29 -12q2 -9 4 -18.5t0 -19.5q-1 -9 -6 -15.5t-3 -13.5q-13 2 -16.5 -5.5t-9.5 -12.5q-39 3 -73.5 -7.5t-68.5 -17.5q-20 -4 -37.5 -6.5
t-33.5 -12.5q-15 -8 -31.5 -24t-29.5 -30q-6 -7 -13 -15t-13 -16t-13 -16t-12 -16q-2 -4 -3.5 -9t-3.5 -10q-4 -5 -9 -9.5t-8 -10.5q-5 -8 -8.5 -18t-5.5 -20q-2 -7 -1.5 -14t-1.5 -14q-2 -8 -7.5 -13t-6.5 -13q-4 -31 -10.5 -65.5t-8.5 -64.5q-1 -15 -1 -32.5t1.5 -35
t4.5 -33t6 -27.5q5 -20 13 -41t21 -37q8 -8 14.5 -17t13.5 -17q7 -7 16.5 -13.5t12.5 -18.5q17 0 25.5 -9t20.5 -14q2 -5 0 -8t0 -6q8 -7 11.5 -4t13.5 4q8 0 16.5 -3t16.5 -7t15.5 -6.5t13.5 -2.5q10 1 17.5 7.5t14.5 13.5t15 12t19 4q25 16 50.5 40.5t47.5 47.5q6 8 16 17
t12 17q1 6 -1.5 13.5t-1.5 14.5q0 8 3 15t3 13q-1 17 -12.5 26t-23.5 17q-29 1 -55 0t-51 0q-22 2 -42 5.5t-43 4.5q-19 0 -36 -0.5t-34 4.5z" />
    <glyph glyph-name="H" unicode="H" horiz-adv-x="632" 
d="M379 506q-11 -7 -23.5 -5t-26.5 3q-11 1 -22 -1l-22 -4q-15 -2 -31 -0.5t-31 -0.5q-16 -2 -29.5 -5.5t-24.5 -5.5q-11 -1 -18.5 0.5t-13.5 -1.5q-12 -6 -12 -27t-1 -43q-1 -13 -4.5 -22.5t-2.5 -19.5q1 -8 5 -15t5 -15q2 -7 0.5 -14.5t-1.5 -15.5q-1 -36 2.5 -80t4.5 -80
q0 -1 -0.5 -2t-0.5 -2v-2q2 -8 8 -13t7 -10q1 -6 -0.5 -14t-1.5 -15t2 -12.5t11 -6.5q-12 -9 -19.5 -23t-19.5 -22q1 -8 1.5 -16t1.5 -16q-17 5 -29.5 14.5t-21.5 21.5q6 26 7 51.5t0.5 52t-2 53.5t-1.5 57q1 41 -2 82.5t-1 81.5q2 50 2.5 100.5t-1.5 101.5q0 8 -2 16t-2 16
q0 9 2 18t1 18q0 11 -3 20.5t-3 20.5q-1 7 0.5 13t1.5 13q1 11 -1 21.5t-4 21.5q-1 11 -4 20t-4 18q-1 8 0.5 16t1.5 16q-1 11 -3.5 22t-3.5 22q-1 19 4 37.5t2 38.5q5 -4 11.5 0t14.5 3q14 -2 21.5 -13t9.5 -28q3 -26 2 -54t4 -60q2 -12 6 -26t8 -29t6 -30.5t0 -29.5
q-1 -8 -4.5 -15.5t-4.5 -11.5q-2 -11 1 -21.5t3 -21.5q0 -12 -3 -24t2 -23q9 -10 21 -7.5t24 5.5q12 2 24.5 4t24.5 5q33 7 66 6t63 8q6 0 4.5 -6.5t4.5 -6.5q6 1 10 3.5t9 4.5q1 36 0.5 76t-2.5 82q0 8 -2.5 16.5t-2.5 16.5q-2 14 0.5 29t2.5 30q0 8 -2.5 17.5t-1.5 17.5
q1 23 8 43.5t9 40.5q4 4 11.5 9.5t13.5 5.5q9 -1 14 -7.5t10 -15.5q11 -18 17.5 -34.5t8.5 -45.5q1 -9 0.5 -18.5t0.5 -19.5q1 -8 3 -16t3 -16q1 -7 -0.5 -14t-1.5 -15q1 -13 3.5 -25t1.5 -22q-1 -20 -5 -40t6 -33q-6 -17 -6 -34t2 -34.5t5 -35.5t3 -36q1 -45 -5.5 -92.5
t-11.5 -94.5q-2 -23 -2.5 -45t-3.5 -43q-3 -18 -7 -35.5t-6 -34.5q-1 -6 0 -12t0 -11q-2 -16 -6 -33.5t-9 -34.5q-2 -7 -6 -12t-6 -11q-2 -8 -2 -14t-2 -12q-8 -19 -26 -21t-30 20q-2 2 -2 6.5t-2 8.5q-2 5 -3.5 7t-1.5 6q0 6 3.5 12t5.5 13t1 16t1 17q2 17 7 34t4 34
q0 11 -3.5 21.5t-1.5 21.5q1 6 4.5 12t4.5 13q4 26 3 51.5t3 49.5q2 11 6 20.5t5 20.5t-1 23.5t-4 23.5q-2 12 -4.5 22t-5.5 21z" />
    <glyph glyph-name="I" unicode="I" horiz-adv-x="609" 
d="M465 898q-21 -6 -38 -3.5t-33.5 7.5t-33 9t-35.5 1q-11 -2 -21.5 -10.5t-18.5 -21t-13.5 -27.5t-6.5 -30q-1 -8 0.5 -15.5t1.5 -15.5q0 -32 -2.5 -67.5t-2.5 -67.5q-1 -20 -0.5 -48.5t5.5 -50.5q2 -11 6 -20.5t6 -20.5q8 -56 14 -115t16 -114q5 -27 11 -48.5t12 -47.5
q5 -21 12.5 -42.5t21.5 -29.5t35 -9t38 -6q16 -5 24 -13t16 -18q-3 -6 -7 -11t-8.5 -9.5t-8 -10t-4.5 -13.5q-41 -8 -85.5 -9t-86.5 -5q-13 -2 -26 -1.5t-24 -1.5q-22 -5 -45 -10.5t-52 -0.5q-20 20 -30 50t-13 67q35 -2 72 -3t65 -11q3 12 3 26.5t5 24.5q-8 30 -5 60t0 60
q-2 23 -7 45t-3 44q0 5 2.5 11.5t2.5 12.5q0 7 -2.5 14t-4.5 15q-2 12 -1.5 25t-1.5 24q-2 8 -5.5 15.5t-5.5 15.5q-4 35 0 70.5t2 71.5q-1 29 -4.5 58.5t-2.5 59.5q-1 3 -3.5 -0.5t-6.5 -1.5q9 12 4.5 22.5t-6.5 24.5q-3 20 -5 36t-10 30q-18 30 -55 37.5t-85 9.5
q-3 4 1.5 7t6.5 8q5 11 8 24.5t11 21.5q45 8 92.5 14t93.5 8q29 2 52 0q19 -1 35.5 -6.5t33 -11.5t34 -12t39.5 -7q16 -8 21 -25t6 -39z" />
    <glyph glyph-name="J" unicode="J" horiz-adv-x="719" 
d="M449 858q4 -19 2 -38t-2 -39q1 -14 4.5 -27.5t2.5 -27.5q0 -11 -3.5 -23t-3.5 -24q1 -5 2 -10.5t2 -10.5q3 -42 1.5 -84.5t-1.5 -84.5q0 -54 -2 -110.5t-7 -106.5q0 -7 -3 -14.5t-2 -14.5q2 -7 9 -11.5t8 -12.5t-3.5 -18t-9.5 -22t-8 -25t1 -26q-17 -32 -38 -59.5
t-56 -40.5q-8 -7 -15.5 -14t-15.5 -14q-20 -1 -33.5 4t-25 12t-23.5 13.5t-29 8.5q-7 1 -16 -0.5t-18 0.5q-8 2 -13.5 10.5t-12.5 14.5q-10 11 -21 18.5t-18 16.5q-1 35 -12.5 58.5t-25.5 50.5q-3 7 -8 15t-8.5 16.5t-5.5 17t0 16.5t9.5 12t16.5 7t18.5 5t17.5 7
q10 -9 16 -22t10.5 -27.5t8.5 -29t11 -27.5q3 -7 10.5 -13.5t14.5 -15.5q9 -11 16 -22.5t24 -13.5q7 -1 13.5 2t11.5 3q4 0 7 -2.5t7 -2.5h6t11 0.5l12 1t9 1.5q12 3 20 18t21 25q3 2 9 4t8 4q9 9 15.5 30t8.5 41q0 5 -1.5 11t-0.5 11q1 6 4 12.5t4 14.5q1 6 0.5 12t-0.5 12
q1 8 4 13.5t3 10.5q2 17 -0.5 36.5t-0.5 38.5q1 19 5.5 37t4.5 35q0 41 3.5 79.5t-0.5 75.5q-4 3 -9.5 0.5t-12.5 -0.5l2 12t1 12q4 3 8 5t11 0q-9 13 -8 32.5t4.5 41.5t6 45.5t-2.5 43.5q-7 2 -8 9t-4 13q-29 -9 -64 -12t-71 -5q-8 13 -16 23.5t-18 24.5q-3 4 -8 11
t-9.5 14.5t-7.5 15.5t-1 15q1 5 9.5 10.5t19 10.5t21.5 8.5t19 4.5q5 1 11 -0.5t11 -0.5q11 0 20.5 4.5t20.5 5.5t20.5 -2t22.5 -3q7 -1 14 1t15 2q42 2 87 1.5t75 -8.5q4 2 8 2.5t6 2.5q4 -14 4.5 -28.5t0.5 -29t2 -28t8 -25.5q-1 -2 -4.5 1t-5.5 4q-14 -6 -32 -7.5l-36 -3
t-34 -6t-25 -15.5z" />
    <glyph glyph-name="K" unicode="K" horiz-adv-x="644" 
d="M264 346q-14 1 -24 6.5t-19 13.5t-17 17t-17 17q-14 13 -26.5 25.5t-23.5 24.5q-11 -13 -20.5 -24.5t-10.5 -30.5q-1 -11 5 -25t8 -31q1 -13 3 -27.5t1.5 -27.5t-5 -22.5t-14.5 -13.5q2 -5 7.5 -5t7.5 -5q1 -23 -1 -51.5t-4 -54.5q-2 -20 -6.5 -39.5t-6.5 -38.5
q-2 -14 -0.5 -28t-6.5 -26q-8 1 -16.5 1.5t-15.5 -1.5q-3 11 -5 24.5t3 24.5q-11 4 -14.5 21t-5.5 31q-2 19 2 39.5t7 40.5q2 17 10 32t12 32q3 14 2.5 31.5t1.5 35.5q1 9 3.5 20t4 22.5t0.5 23t-7 20.5q1 46 2.5 97.5t2.5 99.5q0 9 -2.5 18t-2.5 17q0 4 2 8.5t2 9.5
q0 6 -2.5 14.5t-5 18t-4.5 19t-1 18.5q0 5 2.5 10.5t1.5 10.5q-1 8 -8.5 15t-10.5 14q-1 3 -0.5 4t2 1.5t2.5 1t1 2.5q-1 17 -1.5 34t7.5 28q-1 24 2 47.5t-2 44.5q0 5 -4.5 6t-8.5 3q7 14 18.5 27t9.5 33q14 -11 18.5 -26t10.5 -33q2 -5 4.5 -9.5t3.5 -9.5q5 -17 3 -35.5
t1 -38.5q2 -17 8 -41t8 -44q2 -18 1.5 -37.5t-1.5 -38.5t-0.5 -37.5t5.5 -36.5q12 9 23.5 21t23.5 24.5t24.5 24.5t27.5 20q2 3 2 7t2 6q16 23 34 44.5t35.5 43.5t33.5 46t29 51q12 4 22 10t17 16q5 -8 12 -12.5t12 -12.5q3 -4 4.5 -9t3.5 -9.5t6 -7.5t11 -2
q-32 -48 -67.5 -90.5t-81.5 -75.5q-1 -4 -1 -8.5t-2 -7.5q-36 -24 -64.5 -55.5t-60.5 -59.5q-2 -8 -6 -16t-1 -19t15.5 -15.5t20.5 -10.5q13 -10 25.5 -23.5t25.5 -28t25.5 -27t24.5 -19.5q22 -39 46.5 -74.5t53.5 -67.5q12 -5 21 -13.5t17.5 -18t17 -18t20.5 -14.5
q-2 -5 0.5 -11t4.5 -12t1.5 -12t-6.5 -11q5 -7 8 -16t6.5 -18t8 -16.5t12.5 -11.5q-5 -1 -11.5 3.5t-11.5 6.5q-8 -8 -25 -6.5t-27 0.5q-2 -4 1 -9.5t5 -8.5q-16 17 -36.5 33t-33.5 39q-3 5 -4.5 10.5t-3.5 10.5q-8 15 -21 26t-22 26q-2 4 -2.5 8t-2.5 8q-9 17 -25.5 31
t-27.5 31q-5 8 -7.5 16.5t-7.5 16.5z" />
    <glyph glyph-name="L" unicode="L" horiz-adv-x="769" 
d="M34 1000q29 2 47.5 -9.5t35.5 -25.5q8 -28 19.5 -59t19.5 -64q3 -12 3 -24t5 -23q2 -5 5.5 -8.5t5.5 -8.5q8 -19 11 -43t9 -48q8 -33 18.5 -66t12.5 -71q1 -12 -2 -25t-2 -25q1 -20 6 -39.5t10.5 -40t9.5 -41t3 -42.5q0 -18 -2 -41t-3 -52q0 -12 -0.5 -26t0.5 -27
t4.5 -23t10.5 -13q11 -5 31 -2t40 5q23 2 39.5 2t31 -0.5t29.5 -1.5t34 -2q35 -1 64 -6.5t56 -13t53.5 -16.5t55.5 -17q-7 -9 -10.5 -20t-5.5 -23.5l-4 -25t-5 -23.5q-20 -2 -37.5 -6t-36.5 -3q-8 1 -15 4t-15 4q-13 1 -26 -2.5t-26 -2.5q-7 0 -14 2.5t-14 2.5
q-23 2 -47.5 -4.5t-50.5 -5.5q-6 0 -11 2t-11 3q-7 0 -14.5 -1.5t-15.5 -1.5q-10 0 -19.5 2t-17.5 2q-8 -1 -14.5 -3t-13.5 -2t-13.5 2.5t-14.5 3.5q-9 0 -19 -2.5t-19 -2.5q-21 1 -40.5 9t-36.5 15q2 12 11 19t13 18q3 62 5 125.5t-1 132.5q-2 24 -6 47t-6 47q-1 12 0.5 23
t0.5 22q-2 13 -5.5 25.5t-5.5 26.5q-3 20 -3.5 40t-3.5 40q-6 35 -15.5 70.5t-20 70.5t-21 70.5t-17.5 70.5q-3 15 -8.5 32t-9.5 34t-5 32.5t4 27.5z" />
    <glyph glyph-name="M" unicode="M" horiz-adv-x="875" 
d="M631 907q5 0 3 7q4 -3 1 -7t-8 -2q3 -20 9 -42q2 -10 7.5 -20.5t6.5 -19.5q1 -13 -2.5 -25.5t7.5 -21.5q0 -26 7.5 -51.5t11.5 -51.5q-6 -21 -4 -43.5t7.5 -45l11 -45t6.5 -43.5q1 -6 -0.5 -12.5t-0.5 -13.5q0 -27 7.5 -53t6.5 -54q-2 -34 -3 -70.5t0.5 -73t6 -72
t15.5 -67.5q-6 -11 -11 -25.5t-12 -27t-16.5 -20.5t-23.5 -7q-5 0 -13 4t-16 9.5t-15 11t-9 10.5q-5 10 -5 25.5t0.5 33t1.5 35.5t0 35q-1 11 -1 20t1 22q1 17 -2.5 37.5t-4.5 43.5q-1 24 -0.5 47.5t-4.5 42.5q-2 8 -6.5 14.5t-6.5 13.5q-8 35 -4 68t-1 65q-2 12 -7.5 24.5
t-7.5 28.5q-2 15 -4 31t-3 30q-1 8 0 15.5t0 13.5q-3 11 -10.5 20t-5.5 22q-8 2 -11 -2t-4 -10.5t-0.5 -13.5t-0.5 -12q-2 -6 -7.5 -10.5t-8.5 -12.5q-2 -4 -0.5 -8.5t-0.5 -8.5q-5 -10 -14.5 -21t-17.5 -25q-8 -12 -13 -26t-11 -26q-8 -14 -22 -25.5t-20 -28.5
q-9 -2 -15 -9t-15 -9q-10 -2 -20 -1t-20.5 2.5t-21 3.5t-20.5 1q-23 36 -41 78.5t-41 81.5q-11 18 -21 37t-30 28q-6 -8 -1.5 -13.5t5.5 -12.5q1 -9 -1 -19t-1 -20q0 -8 1.5 -17t1.5 -18q0 -20 -5 -39t-7 -39q-2 -16 1 -31t3 -30q0 -17 -4.5 -34.5t-6.5 -34.5
q-3 -39 -1 -78.5t-8 -71.5q-2 -5 -6.5 -11.5t-6.5 -12.5q-3 -13 -2 -26t0 -25t-4.5 -26t-4.5 -28q-1 -9 0.5 -18.5t-0.5 -16.5q-2 -6 -7 -13t-11.5 -13.5t-13.5 -11t-13 -4.5q-13 -1 -26 10.5t-15 24.5q0 5 2 9t4 10q2 13 -1 26t-5 28q-2 14 -0.5 31t4 35t3.5 37t0 37
q-2 17 -6.5 43.5t-0.5 49.5q2 6 5 11.5t4 10.5q2 12 -2 23t-7 21q5 8 4.5 17t1.5 18q1 9 4.5 17.5t5.5 17.5q2 12 -0.5 24t-1.5 25q2 21 12.5 42t12.5 44q2 30 1 60t4 60q2 11 7 22t7 22q2 12 0.5 24t6.5 23q25 4 58 3.5t61 -12.5q6 -3 14 -8.5t16.5 -12t16 -13t12.5 -11.5
q9 -9 15 -19.5t13 -20.5q15 -21 34 -34.5t36 -28.5q-2 3 3 4.5t8 3.5q2 3 3 7.5t5 5.5q9 20 18 43.5t21 48.5q11 24 28 46t26 43q4 11 7.5 24t7.5 25t9.5 21.5t15.5 13.5q8 4 23.5 3.5t23.5 1.5q16 3 25 -7.5t14.5 -26t9.5 -32t11 -26.5z" />
    <glyph glyph-name="N" unicode="N" horiz-adv-x="870" 
d="M578 230q3 51 0 105t-8 112q-3 39 -3 85t-5 92q-3 29 -9.5 55.5t-6.5 51.5q0 3 -0.5 8.5t6.5 6.5q-4 5 -7.5 18.5t-5 28.5t0 28.5t6.5 17.5q-8 18 -6.5 32.5t8.5 27.5t16.5 25t17.5 24q5 8 8.5 17t8 17t10.5 13t17 5q7 -13 11 -28.5t8 -32.5t7.5 -34t8.5 -32
q-5 -14 -4 -28.5t4 -29t7 -29t6 -28.5q1 -17 -0.5 -35t10.5 -34q-3 -18 -1 -44.5t5.5 -56.5t7.5 -60.5t6 -55.5q2 -17 1 -31.5t10 -26.5q2 -8 -1.5 -11t-4.5 -8q2 -26 6.5 -51.5t8 -50.5t5 -48.5t-3.5 -44.5q-2 -10 -8.5 -19.5t-9.5 -19.5q-5 -17 -6.5 -33t-8.5 -30
q-12 -26 -26 -48t-31 -43q-35 -8 -60 -7t-53 9q-5 22 -19.5 38.5t-24.5 35.5q-2 5 -3 10t-3 10q-4 8 -10 12t-11 10q-5 7 -8.5 15t-9.5 16q-5 7 -9 15t-9 16q-15 26 -31.5 54t-37.5 51q0 14 -5 24.5t-11.5 18.5t-14.5 15.5t-14 15.5q-25 34 -41 73t-36 80q-1 5 -5.5 5
t-6.5 4q-2 17 -10 25t-20 11q-11 -11 -11 -32.5t2 -36.5q2 -20 9 -39t9 -41q2 -36 -2.5 -70t-2.5 -68q-1 -6 4.5 -4.5t4.5 -4.5q3 -43 -6.5 -75.5t-22.5 -62.5q0 -10 4.5 -13t6.5 -11q-5 -10 -10 -19.5t-13 -17.5q-14 0 -26.5 -4t-23.5 -2q-14 16 -26 42.5t-15 61.5
q-2 17 0 38t3 42q2 21 1.5 42.5t1.5 38.5q2 8 6.5 16t6.5 16q5 23 -0.5 50.5t-7.5 52.5q0 9 1 19t-7 18q-1 21 -2 43.5t-2.5 45t-5 43t-9.5 37.5q8 18 9 46t-3 57t-13 55t-20 40q0 10 6.5 12t7.5 10q0 4 -4.5 9t-4.5 13q1 11 10.5 24t17.5 16q11 4 21 0.5t19 -9.5
t17.5 -13.5t16.5 -10.5q17 -30 38.5 -64.5t43.5 -70l44 -71t40 -68.5q9 -16 20 -29.5t27 -20.5q8 -35 26.5 -60.5t38.5 -54.5q14 -22 28.5 -43.5t27.5 -42.5q15 -23 27 -46t27 -44q8 -11 14.5 -21t14.5 -21q7 -8 14.5 -18.5t19.5 -12.5z" />
    <glyph glyph-name="O" unicode="O" horiz-adv-x="752" 
d="M192 946q8 14 21 16.5t31 10.5q37 15 72.5 30t77.5 12q14 -2 24 -8.5t21 -12.5q9 -5 19.5 -8.5t20.5 -8.5t19.5 -9.5t20.5 -7.5q42 -31 65 -94.5t20 -144.5q-2 -58 2.5 -118t0.5 -111q0 -6 4 -8t3 -10q-8 -23 -6.5 -47t-0.5 -47q-2 -15 -6.5 -30t-9.5 -29.5t-9 -29
t-5 -29.5q-23 -33 -43 -68t-43.5 -67.5t-52.5 -61t-68 -48.5q-14 1 -23.5 -3.5t-17.5 -9.5q-18 0 -35 -2t-33.5 -3t-32 1.5t-29.5 11.5q-13 8 -20.5 18t-23.5 15q-2 4 -3 7.5t-1 9.5q-26 18 -43.5 48t-32.5 66q-11 27 -23 54.5t-13 69.5q-1 17 1 35t0 35q-2 13 -5.5 24
t-4.5 21q0 11 2.5 21t2.5 16q0 19 -1.5 35t-3 31t-2 29.5t1.5 29.5q4 25 12 60.5t11 60.5q3 22 9 39.5t14 33t17.5 30.5t19.5 33q4 6 11 14.5t14 18t13 19t7 18.5zM320 124q12 3 21 11t16.5 18t14 20.5t13.5 19.5q7 8 14.5 13.5t10.5 10.5q7 10 12 26t12 31q3 8 9 16t11 16
q6 11 15.5 26t18 30.5t15 30t6.5 25.5q0 18 -0.5 39.5t-3.5 41.5t-10 34.5t-19 19.5q-1 5 -1.5 9t-0.5 9q-14 12 -24.5 28.5t-18.5 35.5t-14.5 40t-13.5 41q-15 14 -25 29.5t-12 41.5q-12 19 -33 24t-43.5 0.5t-42.5 -17t-30 -28.5q-8 -1 -15.5 -1.5t-15.5 -1.5
q-11 -31 -27 -58.5t-21 -63.5q-2 -5 -7.5 -7t-6.5 -9q-1 -6 -1.5 -14.5t0.5 -17t3 -16t7 -11.5q-8 -13 -10 -30t-1.5 -37.5t3 -42.5t3.5 -45q2 -26 6 -54t11 -53.5t16.5 -47t21.5 -34.5q7 -8 16.5 -12t15.5 -10q8 -8 11.5 -16.5t10.5 -15.5t15.5 -11t16 -8.5t13.5 -11
t9 -16.5q2 4 5.5 5t7.5 0l8 -2t8 0zM455 805q-14 10 -24.5 2t-9.5 -21q1 -7 8.5 -18.5t12.5 -23.5q11 -23 17.5 -43t20.5 -29q9 17 8 33.5t-7 32.5t-14 32.5t-12 34.5z" />
    <glyph glyph-name="P" unicode="P" horiz-adv-x="649" 
d="M190 336q-13 -24 -17.5 -58.5t-6 -73t-3.5 -76.5t-9 -68q-5 -15 -12.5 -27t-9.5 -27q-8 0 -15.5 -3.5t-15.5 -2.5q-4 1 -10 4.5t-13 8.5t-13 10t-10 8q-13 9 -23 18t-18 17q8 27 10 57t7 60q3 12 7.5 23.5t6.5 24.5q2 11 0 21.5t0 21.5q2 13 3.5 23.5t2.5 26.5
q0 18 5.5 41t2.5 49q-1 5 -3 9.5t-3 9.5q-3 22 1.5 43.5t2.5 43.5q7 8 6 19t1 26q2 11 6 21.5t6 21.5q2 12 -0.5 24t-1.5 26q1 17 7 33t7 29q0 6 -2.5 14t-3.5 15q-2 16 1.5 34t6.5 34t1.5 28t-13.5 17h-8q-7 0 -13 -5t-12.5 -10.5t-15 -9.5t-19.5 -2q1 29 9 50.5t20 39
t27 32t29 29.5q17 3 33 9.5t43 4.5q12 -2 25 -5t27 -5q15 -2 30 -1t31 -1q14 -2 28 -6.5t28 -7.5q33 -6 54 -11.5t35 -24.5q5 -1 11 -0.5t9 -1.5q14 -11 29 -22.5t27 -26.5q10 -13 21.5 -33.5t11.5 -38.5q0 -6 -2.5 -11.5t-3.5 -11.5q-3 -23 -4.5 -50.5t-3.5 -56.5
q-1 -16 1.5 -33t0.5 -31q-2 -11 -10.5 -25.5t-14.5 -28.5q-6 -15 -11 -29.5t-12 -25.5q-10 -13 -22 -27.5t-23 -28.5q-5 -7 -10.5 -14t-10.5 -15t-9 -17t-9 -14q-17 -18 -42.5 -25.5t-53.5 -11.5l-56 -8t-52 -15zM307 759q-2 10 -7.5 24t-13 27t-16 23t-15.5 13
q-15 6 -38 4.5t-42 -6.5q-7 -33 -11.5 -68.5t-17.5 -63.5q8 -18 3 -36t-7 -32q-5 -33 -4.5 -68t-7.5 -67q7 -5 13.5 -10t12.5 -12q21 5 47 5t48 5q17 14 35.5 26.5t43.5 18.5q-1 22 -3 49.5t-4.5 56t-6.5 57.5t-9 54z" />
    <glyph glyph-name="Q" unicode="Q" horiz-adv-x="726" 
d="M392 4q2 13 -1 22.5t-8.5 16t-12.5 12.5t-13 13q-8 11 -14 21.5t-12 23.5q-13 14 -32.5 20.5t-40.5 14.5q-20 6 -41 13t-40 5q-8 11 -20 19.5t-22 20.5q-19 23 -31.5 57t-23.5 68q-5 14 -11.5 26t-11.5 26q-5 15 -7.5 29.5t-4.5 31.5q-6 31 -14 61t-10 60q-2 17 -1 35.5
t2 36.5q1 8 0 15.5t0 15.5q2 8 7 14t8 14q8 18 15 37.5t11 39.5l19.5 19.5t6.5 28.5q11 9 25 16.5t27.5 15t25.5 15.5t19 17q13 11 29 30t25 34q8 5 16.5 8.5t17.5 10.5q9 6 15.5 15t16.5 12q9 3 23.5 4.5t29.5 0.5t28.5 -3t21.5 -5q9 -4 18.5 -12.5t19 -18t19.5 -17.5
t20 -11q0 -5 1.5 -8t0.5 -9q24 -30 42.5 -74t32 -96t21.5 -107.5t12 -108.5q1 -20 -1 -38.5t-5.5 -35.5t-6.5 -34t-3 -35q0 -7 2.5 -14t0.5 -14q-1 -10 -9 -21t-13 -23q-5 -14 -8 -27t-8 -23t-12.5 -19t-15 -17.5t-13.5 -17.5t-7 -19q-3 -21 5 -36.5t18 -30t17.5 -31
t1.5 -38.5q-3 -15 -19 -27t-38 -19.5t-46 -9.5t-44 4zM348 889q-27 -11 -53.5 -29t-47.5 -32q-20 -13 -34.5 -26.5t-17.5 -37.5q-13 -14 -19 -32.5t-16 -41.5q-6 -15 -12 -29.5t-8 -25.5q-2 -14 1 -28.5t1 -28.5q-2 -20 -9.5 -39t-5.5 -44q3 -34 12 -69t18 -67
q17 -4 30.5 -13t25.5 -20t23.5 -22.5t25.5 -19.5q20 -13 44 -17.5t49 -15.5q-4 14 -11 26t-15.5 22.5l-17 21t-14.5 21.5q-8 14 -15.5 29.5t-10.5 29.5q-4 16 -4.5 37.5t1 44t4 43.5t4.5 37q29 0 56.5 -1t54.5 -6q1 -12 11.5 -22t12.5 -22q1 -7 -2 -14t-2 -14
q2 -18 13.5 -32t19.5 -30q6 -14 10.5 -28t17.5 -20q1 8 7.5 13.5t8.5 13.5q2 5 0.5 9.5t-0.5 9.5q2 11 7 20.5t6 21.5q2 25 5 42t4 43q2 26 2 55.5t-5 50.5q-2 5 -3.5 9.5t-6.5 7.5q3 0 6.5 -0.5t1.5 4.5q-12 19 -16 43t-12 47q-2 4 -4 7t-3 5q-4 10 -3 18.5t-1 18.5
q-2 14 -10.5 21.5t-15.5 17.5q-7 11 -11 21t-13 18q-15 -5 -33 -1t-31 -1z" />
    <glyph glyph-name="R" unicode="R" horiz-adv-x="808" 
d="M464 462q6 -12 14 -22t15 -21t13 -21.5t14 -21.5q16 -19 34 -36t32 -37q12 -18 20.5 -37t26.5 -33q8 -25 19.5 -45t15.5 -48q-11 -8 -21.5 -12t-21.5 -10q-16 -9 -29 -22.5t-26 -27.5t-26 -26t-29 -19q-7 -2 -14.5 -2.5t-13.5 -3.5q-8 -3 -12.5 -8.5t-14.5 -8.5
q-14 22 -17 46t-10 49q-7 26 -19.5 48.5t-28.5 42.5t-33 39t-33 37q-17 19 -32 39.5t-29.5 41t-30 39t-33.5 35.5q0 -12 2 -23.5t0 -24.5q-1 -11 -6 -18.5t-7 -16.5q-5 -17 -3.5 -36t-0.5 -38q-2 -22 -8 -43t-12.5 -42.5t-11.5 -43t-3 -44.5q-15 -4 -32.5 -5.5t-35.5 -1
t-35 3t-31 5.5q2 44 10.5 79.5t20.5 70.5q10 28 22 55t23 53q1 22 8 39t9 37q3 18 2.5 38t0 39.5t3.5 37t14 32.5q4 27 5.5 56.5t4 58t7.5 54.5t16 47q-4 9 -4.5 21.5t1 26t4 26.5t4.5 23q-12 8 -18.5 20.5t-4.5 31.5q12 2 21 3t20 3q13 4 25 11.5t23 9.5q7 2 13 -0.5
t13 -0.5q8 1 13.5 6t13.5 7t17.5 1t19.5 1q12 2 23 6.5t23 9t25.5 7t30.5 0.5q15 -2 30.5 -9.5t33.5 -11.5q14 -2 29.5 -2t29.5 -6q7 -3 15 -10t15.5 -16t13.5 -18t10 -16q4 -8 5.5 -17t6.5 -20q3 -8 8 -15.5t7 -15.5q6 -17 9 -37.5t4 -42t-2 -42.5t-9 -37q-3 -8 -9.5 -16
t-11.5 -17q-11 -20 -19.5 -40t-17.5 -32q-6 -8 -14.5 -12.5t-16.5 -12.5q-12 -11 -21 -25.5t-20 -28.5q-8 -10 -17.5 -17t-13.5 -20zM367 735q-14 6 -18.5 21.5t-7 33t-6.5 34t-16 24.5q-3 5 -6.5 0.5t-5.5 -0.5q-5 11 -20 14t-29 0q7 -34 4 -63t-8 -64q-2 -14 -6.5 -26.5
t-6.5 -25.5q-2 -14 -2 -28t-1 -27.5t-4 -26.5t-11 -25q14 -5 28 -5.5t28.5 1t29 4t29.5 2.5q9 38 18 75t11 82zM452 718q4 -20 2 -39t0 -44q6 2 14 10t14 15q-2 25 5 50t10 51q-10 4 -17.5 11.5t-15 14.5t-16 12.5t-21.5 7.5q-2 -14 1 -25.5t7.5 -22t9.5 -20.5t7 -21z" />
    <glyph glyph-name="S" unicode="S" horiz-adv-x="670" 
d="M322 455q-21 6 -32 18t-25 28q-19 23 -46.5 46t-55.5 42q-12 8 -27 18.5t-28 21.5t-27.5 24.5t-19.5 23.5q-4 8 -5 16.5t-2.5 16.5t-4 16t-8.5 14q-1 24 6.5 47t10.5 43q1 8 0.5 15t1.5 15q4 17 15 32t21 29q9 13 22 28t26 20q5 2 10 1t10 1q6 2 10 8t12 10q10 6 25.5 8
t33 2t36 -1t36.5 1q5 1 8.5 1.5t9.5 -4.5q22 6 40.5 3.5t33.5 -9.5t27.5 -17.5t23.5 -21.5q9 -10 17 -18t13 -17t7 -20.5t-1 -27.5q-11 -12 -21 -23.5t-24 -19.5q-31 -3 -62 0.5t-60.5 8.5t-55.5 8t-47 -2q-9 -2 -21 -12t-13 -23q0 -9 3 -15.5t8 -11l10 -9t9 -10.5
q17 -7 32 -18t28.5 -24t26.5 -26t26 -25q23 -21 45.5 -42t47.5 -40q5 -14 13.5 -27.5t17.5 -27t18 -28t16 -30.5q4 -9 6 -20t5 -23q3 -10 8.5 -19t8.5 -19q3 -11 5.5 -23t6.5 -23q7 -26 9.5 -54t-3.5 -62q-2 -8 -5.5 -16.5t-5.5 -17.5q-2 -10 -2 -20.5t-2 -18.5
q-4 -17 -15.5 -31.5t-20.5 -28.5q-10 -15 -21 -27t-21 -26q-16 -7 -29 -15t-26.5 -14.5t-31 -10t-42.5 -2.5q-14 1 -29 0.5t-29 1.5q-20 3 -42.5 15t-42.5 23t-38 25t-37 22q-6 2 -12.5 2.5t-11.5 2.5q-14 5 -23.5 20t-20.5 23q2 12 -2 32t-7 40t-1.5 37.5t15.5 24.5
q7 4 25 4t30 -4q8 -2 16 -7.5t19 -9.5q19 -7 37.5 -11t30.5 -10q8 -5 13.5 -10.5t11.5 -7.5q14 -6 28 -4.5t33 -0.5q14 -2 27 -8.5t35 -3.5q20 3 37.5 18t20.5 32q2 14 -2.5 31t-9.5 30q-5 17 -7.5 32t-7.5 26q-5 13 -13 22.5t-16 19.5t-14.5 21t-7.5 27z" />
    <glyph glyph-name="T" unicode="T" horiz-adv-x="812" 
d="M691 859q-12 -2 -24.5 -1t-26.5 -1q-5 -1 -9.5 -4t-10.5 -4q-12 -2 -25 -3t-25.5 -2t-23.5 -3.5t-18 -8.5q-5 -4 -6 -9.5t-8 -5.5q6 -14 7.5 -29.5t1 -32t-1 -33.5t1.5 -33q1 -9 4 -16.5l6 -15t3.5 -16t-2.5 -21.5q-1 -5 -5 -9.5t-6 -10.5q-5 -15 -6 -35.5t1 -36.5
q2 -14 7.5 -27t7.5 -27q2 -19 0 -41.5t0 -44.5q1 -13 3 -26t0 -24q-1 -6 -4.5 -10.5t-5.5 -9.5q-4 -13 -4 -27t1.5 -28.5t2.5 -29.5t0 -30q-2 -22 -2.5 -44.5t-4.5 -45.5q-1 -6 -3 -11t-3 -10q-4 -20 0 -41t-2 -41q-24 1 -45.5 -6t-41.5 -2q-11 3 -19 12t-13.5 21t-9 26.5
t-6.5 27.5q9 38 9 78.5v82.5q0 20 6.5 39.5t8.5 39.5q2 17 -0.5 33.5t-2.5 32.5q-1 15 2.5 29t-6.5 26q6 18 5 36.5t-4.5 37.5t-7 38.5t-1.5 37.5q1 10 4.5 18.5t3.5 18.5q1 17 -0.5 32.5t0.5 34.5q2 13 3 26t6 26q2 7 4.5 15t3 15.5t-3 14.5t-13.5 11q-7 2 -19 2t-24 1
q-18 2 -39.5 4.5t-43.5 0.5q-8 -1 -14.5 -3.5t-13.5 -3.5q-18 -2 -39.5 0t-41.5 0q-17 -1 -31 -4t-26 -1q-17 4 -32.5 17t-26.5 22q0 17 -7.5 29.5t-12.5 26.5q-4 11 -4 21.5t-8 16.5q24 8 55.5 13.5t58.5 13.5q45 12 92 18t110 6q19 0 38 1.5t36 -0.5q39 -3 76 -6.5
t75 -1.5q8 0 15 -2t14 -1q12 0 25 4t25 6q12 1 20.5 -1t10.5 9q4 -6 8 -12.5t12 -10.5q1 -32 6 -58t4 -60z" />
    <glyph glyph-name="U" unicode="U" horiz-adv-x="740" 
d="M559 973q-3 -11 -2 -20t4 -18t5.5 -18.5t1.5 -20.5q-2 -10 -5.5 -19.5t-3.5 -20.5q0 -23 8.5 -42t15.5 -36q8 -26 9 -52t-1 -52q-2 -23 1 -47t-1 -47q-5 -30 -5 -63.5t1.5 -68.5t2 -69.5t-3.5 -67.5q-2 -10 -5.5 -19t-4.5 -18q-2 -17 0.5 -31.5t-3.5 -28.5t-16 -31
t-18 -29q-4 -6 -9.5 -10.5t-8.5 -10.5q-7 -11 -10 -22.5t-9 -22.5q-4 -7 -9.5 -12t-10.5 -11q-11 -15 -18.5 -32t-23.5 -28q-11 5 -15.5 1.5t-14.5 -5.5q-12 -2 -27 -1t-30 4t-28.5 7t-21.5 9q-10 5 -23.5 18t-23.5 22l-43 43q-3 2 -8 2.5t-7 2.5q-15 11 -25.5 26.5
t-23.5 29.5q-6 6 -13.5 11t-12.5 12t-8 15.5t-8 16.5q-7 11 -18 22t-8 28q-2 2 -4 1t-3 4q-8 18 -9.5 42t-3.5 48q1 7 -3.5 8t-5.5 6q9 37 1.5 71t-12.5 73q-2 10 -1 20.5t-1 20.5q-1 6 -4.5 12.5t-3.5 13.5q-1 5 1 11t2 12q0 8 -2 17.5t-3 19.5q-2 25 -1.5 52t-1.5 51
q-1 7 -3 13t-2 13q-2 10 1 19.5t2 18.5q-2 14 -9 31t-5 34q2 14 10 24t16 21q11 -2 20 7t21 12q8 2 16.5 2t16 1t13.5 3.5t10 10.5q3 -4 -2 -7.5t-7 -6.5q6 -12 7 -26t3 -29q2 -11 6 -20t4 -20q0 -5 -2 -10t-3 -10q-3 -35 5 -64t14 -58q5 -23 5.5 -45t9.5 -39q1 -5 5 -5.5
t6 -2.5q-5 -17 -4 -32.5t5 -30.5t8.5 -29t7.5 -29q4 -22 4 -42t8 -40q2 -5 6 -10.5t6 -11.5t1 -13.5t0 -14.5q2 -11 7 -22.5t7 -22.5q2 -14 -1.5 -27t-2.5 -27q1 -15 7.5 -26t16 -21t20 -18t20.5 -17q6 -5 14 -13t13 -10q6 -2 13 0t13.5 2.5t12 -1t7.5 -8.5q4 10 12 10.5
t15 3.5q7 2 15 8t12 12q9 13 12.5 29t4.5 33.5t1 35.5t2 36q2 12 6 23t7 23t5 26t-1 31q-2 16 -7 33t-3 31q1 5 4.5 10t5.5 10q4 19 3 37.5t-4 36.5t-5.5 35.5t-0.5 35.5q1 6 3.5 10t3.5 9q3 23 -4 42q-3 10 -10.5 17.5t-10.5 18.5q-2 7 -1 15.5t-1 16.5t-4.5 15.5
t-3.5 14.5q-2 8 0 14.5t0 14.5q-3 12 -12.5 21t-14.5 21q-8 21 -3.5 34t21.5 24q8 5 14.5 11.5t12.5 10.5q9 6 18.5 10t11.5 17q8 0 11.5 3t8.5 5q17 -5 34 -10.5t28 -16.5z" />
    <glyph glyph-name="V" unicode="V" horiz-adv-x="767" 
d="M384 0q-21 24 -46 48t-49 50q-11 12 -19.5 26.5t-19.5 29.5q-13 18 -23.5 38t-10.5 46q-7 16 -10 33.5t-5.5 35.5l-5 36t-8.5 33q-8 20 -14.5 35t-20.5 27q-5 29 -17.5 52t-23.5 46q2 14 -3 26.5t-13.5 24.5t-17.5 23.5t-15 24.5q-4 8 -6.5 19t-5.5 21q-3 9 -7.5 19
t-6.5 18t-1 16t-1 16q-2 15 -9 28t-10 30q-5 22 -3.5 46.5t-1.5 50.5q5 7 14 11t19 6.5t19.5 4.5t17.5 7q20 -11 31 -29t23 -36q4 -7 10 -13t11 -13q15 -25 24.5 -53.5t17.5 -58t17.5 -58t24.5 -53.5q1 -5 -1 -9t0 -6q13 -17 21.5 -39t17.5 -45q3 -8 7.5 -15.5t6.5 -13.5
q3 -14 2 -26.5t3 -24.5q3 -10 7 -18.5l8 -17t7.5 -18t3.5 -19.5q8 -13 10 -37q14 -15 21.5 -9.5t11 21t4.5 35.5t4 33q3 11 5 23t5 24q2 11 3 23.5t4 25.5q6 20 16 43.5t6 51.5q-2 7 -5.5 12t-4.5 10q-1 8 2 18.5t5 20.5q1 9 3 18.5t3 19.5q1 18 0 36t3 32q1 6 5 12t5 11
q2 7 1 13.5t1 12.5q3 13 8.5 25.5t9.5 25.5q7 20 11 40t8 41q6 6 10.5 13.5t9 15.5t10.5 14t15 9q8 2 20 0t22 3q8 3 19 -0.5t23 -1.5q5 -3 8.5 -8t8.5 -10q3 -5 8.5 -10t6.5 -10q2 -8 -3.5 -18.5t-3.5 -21.5q1 -5 4.5 -9.5t4.5 -8.5q1 -6 -2.5 -14t-8 -16l-9 -16t-6.5 -15
q-4 -15 -2 -30.5t0 -29.5q-2 -19 -11 -34t-11 -33q-1 -5 0.5 -10.5t0.5 -10.5q-1 -8 -5 -14.5t-6 -13.5q-2 -11 -1.5 -23t-1.5 -23q-2 -7 -4.5 -13.5t-2.5 -13.5q-1 -6 1 -11.5t2 -11.5q-1 -15 -6.5 -33t-10.5 -34q-5 -18 -7.5 -36t-7.5 -33q-2 -6 -7 -10.5t-7 -12.5
t-1.5 -16.5t-1.5 -18.5q-2 -7 -4.5 -13.5t-4.5 -13.5q-3 -14 -4 -27.5t-4 -26.5q-5 -22 -15.5 -49t-10.5 -53q-12 -25 -22 -54.5t-18 -58.5q-5 -20 -9.5 -39.5t-19.5 -30.5q-2 -2 -5 -2h-6t-5.5 -1t-1.5 -5z" />
    <glyph glyph-name="W" unicode="W" horiz-adv-x="1040" 
d="M809 5q-19 -5 -39 -5t-38.5 4.5t-33.5 13t-24 20.5q1 24 -7 38t-17 34q-17 36 -35.5 68t-35.5 71q-11 26 -22.5 52t-25.5 46q-10 14 -23.5 27t-25.5 27q-6 6 -11.5 14.5t-11.5 15.5q-5 5 -13 11t-18 -1q3 -4 3 -10t-1 -13t-2.5 -15t-0.5 -15q-17 -19 -40.5 -41.5
t-31.5 -51.5q-7 -25 -7.5 -51t-8.5 -52q-7 -25 -13.5 -48.5t-3.5 -49.5q-8 -9 -13 -24t-11 -28.5t-16 -22t-29 -5.5q-6 1 -11 6.5t-13 10.5q-7 4 -12.5 6.5t-10 4.5t-9 5.5t-9.5 9.5q-4 5 -8 13t-9 16q-8 11 -14 18t-10 21q-2 9 -2.5 19t-4.5 19q-5 13 -11.5 34t-5.5 40
q1 17 3.5 30.5t0.5 29.5q-3 23 -13 39.5t-15 37.5q-2 11 -2.5 22.5t-2.5 22.5q-3 11 -6.5 23t-5.5 23q-3 20 -4 37.5t-11 29.5q2 24 -2 43t-12 41q-3 7 -7 13.5t-5 11.5q-2 7 -0.5 13.5t0.5 12.5q-2 14 -9.5 28t-7.5 30q0 13 1 25.5t0.5 23.5t-3.5 20t-12 17q3 13 3 26
t-0.5 26t0 26t4.5 25q5 8 17.5 9.5t25.5 6.5q8 2 15.5 8.5t15.5 4.5q10 -2 14.5 -11.5t12.5 -15.5q-3 -9 -1.5 -18t5.5 -17t9 -17t8 -18q5 -18 6.5 -38.5t8.5 -40.5q5 -14 9.5 -29.5t9.5 -32.5q2 -9 6 -17.5t6 -16.5t1 -15.5t1 -15.5q3 -14 11 -24.5t11 -23.5q2 -7 1 -13.5
t1 -14.5q2 -15 7.5 -29.5t7.5 -30.5q3 -24 3.5 -49t15.5 -45q9 4 14.5 10.5t17.5 6.5q1 5 0.5 10.5t1.5 8.5q21 19 39.5 40t20.5 59q2 6 6 6t6 3q2 8 3 16t4 15q19 19 44 31.5t47 28.5q10 -3 17.5 -1.5t13.5 5t11.5 8t12.5 7.5q12 -4 24.5 -7t21.5 -9q-1 -7 1 -11t1 -11
q13 -11 24.5 -22t28.5 -19q2 -9 -0.5 -18t-1.5 -20q1 -12 7.5 -21t14.5 -17.5t15.5 -17t10.5 -18.5q3 -8 3 -15t2 -15q8 -29 23 -52t25 -46q-5 18 -2 36.5t7.5 37t9 38t4.5 39.5q0 9 -2 18.5t-1 18.5q1 11 3.5 22.5t3.5 22t-1.5 19.5t-12.5 15q6 10 8.5 23t2.5 28t-1 31.5
t0 32.5q1 7 3 14.5t2 13.5q1 12 -2.5 22.5t-2.5 21.5q1 10 5.5 19.5t8 18.5t5 19t-2.5 22q13 12 18.5 29t17.5 29q5 5 10.5 7.5t9.5 6.5q11 11 17.5 25t18.5 25q9 -2 18 -1t17.5 1t15 -2t11.5 -10q-1 -30 -0.5 -60t-6.5 -58q-2 -8 -5.5 -16.5t-2.5 -19.5q0 -8 4 -14.5
t6 -13.5q3 -15 1 -30t-5.5 -28.5t-7.5 -27t-5 -25.5q-2 -17 1.5 -32.5t3.5 -29.5q0 -11 -2.5 -22.5t-4.5 -27.5q-1 -8 -4 -16t-3 -13q1 -11 6.5 -20t7.5 -18q3 -23 0.5 -47t-2.5 -47q0 -29 1 -57t-2 -54q-3 -20 -8.5 -41t-7.5 -42q-1 -6 1 -12.5t1 -13.5q-3 -21 -14.5 -41
t-13.5 -44q0 -6 1.5 -11.5t0.5 -11.5q-3 -23 -11.5 -45t-12.5 -44z" />
    <glyph glyph-name="X" unicode="X" horiz-adv-x="753" 
d="M400 591q-1 -16 0 -30.5t0 -29.5q-1 -6 -3 -13.5t-1 -14.5q1 -4 5 -10t9 -12.5t10 -12.5t8 -10q26 -33 48 -67t45 -69q23 -12 35.5 -38t25.5 -53q4 -9 8 -18.5t6 -16.5q2 -14 0 -28t0 -27q1 -16 6 -31t9.5 -30t6 -29.5t-2.5 -29.5q-5 -10 -16 -14.5t-25 -5.5t-30 -0.5
t-32 1.5q-12 0 -22.5 -1t-16.5 1q-7 2 -15 11t-15 21.5t-12.5 26.5t-6.5 26q-1 11 0.5 21.5t-0.5 18.5q-4 34 -15.5 65t-27.5 58t-34 49.5t-34 41.5q-14 -22 -33 -38.5t-36 -35.5q-45 -51 -82 -108t-75 -115q-8 -2 -19.5 -2t-19.5 2q-17 11 -23.5 34t-14.5 44q4 12 7.5 23
t1.5 26q5 13 14 26t14 28q2 7 1.5 14t1.5 14q2 6 5.5 12t6 12t3.5 12.5t-1 14.5q11 17 23.5 33t23.5 34q18 27 36 56.5t47 47.5q1 10 3.5 16.5t6.5 13.5q3 19 -1.5 33t-12 26.5t-15.5 23.5t-13 24q-3 8 -3.5 15.5t-3.5 15.5q-10 28 -28.5 53t-34.5 52q-5 9 -6.5 19.5
t-5.5 20.5q-3 8 -8.5 15.5t-7.5 16.5q-3 12 -4 26t-3 28q-2 18 1 38t3 43q20 3 33.5 12t29.5 17q27 -15 49.5 -39.5t42.5 -52.5q7 -9 14.5 -20t10.5 -19q4 -10 4.5 -20.5t2.5 -19.5q8 -29 23 -55t26 -57q16 9 25 24.5t16 33.5t15 35t22 28q-4 13 -2 25.5t5 24t4.5 22.5
t-1.5 22q6 7 9.5 18t6 23t5 23.5t8.5 19.5q10 -5 19.5 -5.5t18.5 -0.5t18 -2t18 -9q10 -10 17 -26.5t2 -31.5q9 -50 1.5 -93.5t-23.5 -83t-35 -76t-32 -72.5q1 -7 -5 -6.5t-9 -2.5z" />
    <glyph glyph-name="Y" unicode="Y" horiz-adv-x="605" 
d="M464 972q-3 -16 -0.5 -31t-5.5 -26q7 -5 7 -14t-3.5 -19.5t-7.5 -21.5t-4 -20q1 -5 3 -8t1 -6q0 2 -2 1.5t-3 1.5l-2.5 -10t0.5 -10q-14 -11 -19 -29.5t-8 -38.5q-3 -17 -10.5 -32.5t-6.5 -30.5q-11 -11 -10 -29t-1 -33q-2 -8 -6 -14.5t-6 -14.5q-8 -29 -12.5 -61
t-12.5 -64q-2 -13 -6 -24t-6 -23q0 -4 0.5 -7t-0.5 -6q-4 -20 -11.5 -37.5t-13.5 -34.5q-8 -26 -10.5 -50.5t-19.5 -43.5q2 -11 -1.5 -17t-4.5 -17q-11 -14 -21.5 -28.5t-15.5 -31.5q-4 -13 -6.5 -24t-10.5 -21q-5 -6 -10 -11l-10 -10q-13 -17 -28 -32t-33 -26
q-12 9 -20.5 22.5t-17.5 27.5q-5 8 -11.5 17t-5.5 19q1 11 8.5 21t17 20t18.5 19t14 17q8 13 8.5 29.5t5.5 30.5q5 12 13 24t13 24q4 9 7.5 18t5.5 17q5 14 5.5 28t4.5 25q2 8 7 15t8 15q6 16 5 32.5t7 33.5q-18 16 -29.5 38t-23.5 45q-11 21 -25 37.5t-26 36.5
q-4 17 -8.5 31.5t-14.5 25.5q-2 26 -13.5 47.5t-24.5 41.5q-2 2 -2 5.5t-2 5.5q-2 4 -6.5 6.5t-7.5 6.5q-5 8 -8.5 18.5t-8.5 20.5t-11 18.5t-8 17.5q-3 11 -4 21.5t-10 18.5q2 16 3 34t4 33.5t9.5 27t19.5 15.5q7 -1 14 -1.5t14 -2.5q9 -10 17.5 -19t14.5 -21q5 -8 5.5 -18
t4.5 -19q4 -8 9.5 -16t10.5 -16t10 -17t8 -17t3 -18t3 -18q4 -11 11 -20.5t11 -20.5q5 -11 7.5 -22t8.5 -22q5 -10 12.5 -17.5t11.5 -18.5q5 -1 13 -5q7 -7 11 -15.5t10 -16.5q5 0 8 -1.5t9 -1.5q0 -12 4.5 -20.5t10.5 -16.5q8 11 7.5 24.5t2.5 27.5q1 5 3.5 8t3.5 8
q4 14 4.5 27.5t3.5 26.5q2 8 6 15.5t6 14.5q2 8 3 12.5t3 9.5q5 11 4.5 24t8.5 23q-6 6 -5 11.5t4.5 10.5t9 10t8.5 10q4 7 6 15t5 16q3 5 8 10.5t3 13.5q10 1 15.5 10t15.5 14q14 7 31 3t22 -17z" />
    <glyph glyph-name="Z" unicode="Z" horiz-adv-x="888" 
d="M791 903q-10 -12 -16.5 -27t-18.5 -24q-7 -5 -15 -8t-14 -8q-4 -4 -7 -10.5t-8 -11.5q-8 -11 -15.5 -18.5t-13.5 -20.5q1 -4 3 -6.5t1 -7.5q-16 -22 -30.5 -45.5t-30 -46t-32.5 -43.5t-39 -37q2 -12 -0.5 -20.5t-8 -15.5t-12.5 -13.5t-13 -13.5q-17 -22 -35.5 -40.5
t-48.5 -24.5q-15 -67 -74 -89q-2 -5 -1.5 -12t0 -13.5t-3 -10.5t-11.5 -2q2 -8 0.5 -13t-4.5 -9.5t-7.5 -8t-8.5 -6.5v-11q-11 -8 -18.5 -18t-18.5 -18v-14q-10 -11 -19 -22t-16 -25q-2 -2 -3.5 -3t-5.5 0q-3 -7 -5.5 -13t-7.5 -11q-5 -7 -12.5 -12.5t-4.5 -16.5
q16 5 31.5 0.5t32.5 -4.5q25 -1 52 -0.5t54 -2.5q15 -2 30.5 -5.5t31.5 -5.5q18 -2 35 -3t34 -3q5 0 10.5 -1.5t10.5 -1.5q11 2 24.5 7.5t31.5 2.5q7 -1 16 -4t19 -6q13 -4 22 -12.5t21 -17.5q8 -5 17 -9t16 -9q4 -3 9.5 -8.5t9.5 -12t5 -13t-3 -10.5q-3 -3 -9.5 -3
t-14.5 -2q-11 -2 -21.5 -4.5t-18.5 -3.5q-19 -2 -37.5 0t-35.5 3q-17 0 -32 -0.5t-35 3.5q-12 2 -24.5 5.5t-24.5 5.5q-37 3 -70 0q-12 -2 -23.5 -4t-22.5 0q-8 1 -14 2t-17 -1q-20 -2 -42 -0.5t-42 -0.5q-24 -2 -45.5 -2t-49.5 2q-17 1 -33 3.5t-29 0.5t-26.5 -7.5
t-27.5 -1.5q-5 12 -5 27t-3 30q-2 9 -7.5 16.5t-5.5 15.5q0 7 5 10.5t5 9.5q33 23 58 54.5t54 57.5q2 2 5 2t5 1q16 18 31 36.5t28 38.5q11 7 19 15.5t16 17.5l17 17t16 19q7 9 12.5 18.5t11 19.5t12.5 18.5t17 14.5q2 8 6.5 14.5t7.5 15.5q20 12 32 30t25 38q14 22 32 40.5
t35 37.5q18 20 29.5 43t30.5 43q8 12 6.5 25t-21.5 13q-20 14 -48 21t-58.5 11t-62.5 7t-60 9q-4 5 -8 8.5t-9 7.5q-12 -1 -24.5 -4.5t-25 -6t-24 -2.5t-21.5 7q-14 -1 -33 3.5t-34 6.5q-6 1 -12 1t-10.5 1t-7 4t-1.5 10q-5 -4 -15 -3.5t-17 2.5q-4 0 0 4.5t4 6.5
q-3 20 5 34q3 6 8.5 11t10 10t7.5 10t2 12q10 -9 30 -7q5 0 4 5t3 5q8 1 16 1t16 2q9 33 34 55q16 2 29.5 5t29.5 5q5 0 4 3t1 4q12 1 21.5 2t20.5 1q38 -20 80 -31t94 -13q16 -1 31.5 1t31.5 0q8 -1 18 -1.5t22 -2.5q6 -1 12.5 -3.5t14.5 -3.5q3 -1 6.5 0t7.5 0t7.5 -3
t7.5 -3q23 -5 41.5 -5.5t32.5 -12.5q23 3 45 -0.5t32 -16.5q8 1 13.5 -0.5t13.5 -1.5z" />
    <glyph glyph-name="backslash" unicode="\" horiz-adv-x="453" 
d="M134 991q6 -19 14 -36t15.5 -34.5t13 -37t7.5 -42.5q8 -8 8 -19t4 -22q2 -6 7 -11.5t7 -12.5q6 -16 8.5 -34.5l5 -37t6 -36.5t11.5 -34q-8 -24 -2 -55.5t20 -59.5q2 -4 4.5 -7t4.5 -8q6 -13 9 -28.5t8 -29.5q6 -19 12.5 -35t9.5 -34q2 -11 4.5 -21.5t3.5 -20.5
q2 -11 0 -21t0 -20q2 -8 7 -16t9 -16q5 -8 11.5 -15t13.5 -13q18 -24 27 -56t24 -58q6 -11 15 -16.5t13 -16.5q2 -3 6 -3.5t7 -2.5q5 -14 5.5 -29t-8.5 -26q-5 -4 -10.5 -3t-10.5 -2q-8 -4 -12 -10.5t-11 -8.5q-17 -6 -32.5 -1t-35.5 4q-7 7 -11.5 15.5t-9.5 16.5
q-11 42 -28 78.5t-37 68.5q1 17 -6.5 30.5t-12.5 28.5q-2 5 -2.5 10.5t-2.5 10.5t-6.5 9.5t-6.5 9.5q-4 10 -6.5 23.5t-6.5 24.5q-3 13 -8.5 24t-7.5 22q-2 8 -2 16t-4 16q-3 6 -8.5 10.5t-8.5 10.5q-3 8 -5 17t-6 19q-3 8 -6.5 16.5t-6.5 17.5q-6 17 -14 35t-10 34
q-1 8 -0.5 15.5t-1.5 15.5q-2 7 -5.5 12.5t-5.5 11.5q-2 10 -2.5 19.5t-2.5 19.5q-2 8 -7 15.5t-7 15.5q-2 5 -1 11t-1 11q-5 19 -16.5 34.5t-15.5 33.5q-5 18 -4.5 35.5t-7.5 34.5q-7 14 -15 24t-14 24q9 16 3 41q-1 5 -3.5 9.5t-2.5 9.5q1 11 8 17t11 15q28 9 56 4t59 -7z
" />
    <glyph glyph-name="a" unicode="a" horiz-adv-x="642" 
d="M501 95q-4 -4 -6.5 -9t-5.5 -9q-17 -2 -34.5 -2.5t-30.5 -5.5q-6 13 -12.5 28.5t-5.5 32.5q0 5 2 9.5t2 9.5q2 14 -1 34.5t-5 41.5q-2 20 -2.5 39.5t-2.5 36.5q-3 23 -7 53t-13 52q-29 8 -54.5 8.5t-50 -2.5t-49 -6.5t-50.5 -2.5q-4 -37 -8.5 -76.5t-9 -79.5t-10 -78.5
t-12.5 -72.5q-7 -6 -10.5 -19.5t-7.5 -27.5t-9 -26t-15 -15t-21 1.5t-22 7.5q-11 2 -22 5.5t-13 12.5q1 18 2.5 38.5t4 41t7.5 38.5t13 32q-4 11 -1.5 24t1.5 26q-1 5 -2.5 9.5t-1.5 9.5q0 13 5.5 27.5t7.5 29.5q5 26 5 53t5 53q2 13 5 24.5t5 23.5q3 19 5.5 39t6 39t9 35
t13.5 27q1 28 9.5 50.5t18.5 43.5t18 42t8 46q7 16 14.5 31.5t14.5 32.5q-2 37 14.5 70t30.5 62q8 3 21 7.5t25 4.5t20 -5.5t8 -21.5q15 -21 26 -44.5t21 -53.5q8 -23 15.5 -44.5t16.5 -45.5q6 -16 15 -30t14 -30q1 -5 0.5 -10.5t1.5 -10.5q4 -20 11 -38.5t13 -38.5
q6 -22 9.5 -43.5t8.5 -43.5q3 -13 9.5 -24t9.5 -23q5 -22 2 -44t-3 -42q-1 -37 2 -73.5t7 -73.5t7 -74.5t2 -76.5q-2 -5 -1 -5.5t2.5 -0.5h3t1.5 -3zM342 666q-9 26 -16 51.5t-18 49.5q-2 20 -9.5 34.5t-15.5 28.5q-2 0 -2.5 1t-2.5 1q-26 -65 -47.5 -133.5t-32.5 -151.5
q40 -9 83.5 -6t81.5 6q7 32 -2 61.5t-19 57.5z" />
    <glyph glyph-name="b" unicode="b" horiz-adv-x="558" 
d="M290 548q14 -14 21.5 -30.5t19.5 -30.5q8 -11 21 -17t23 -20q19 -28 31.5 -71.5t15.5 -84.5q2 -14 0 -27q-1 -5 -3.5 -9.5t-3.5 -10.5q-1 -4 0 -9.5t0 -10.5q-2 -16 -9 -34.5t-14 -35.5q-12 -27 -32 -54.5t-41 -44.5q-5 -5 -12.5 -8.5t-9.5 -12.5q-11 -1 -20 -6t-18 -11
t-19 -10.5t-23 -4.5q-3 0 -7 2t-6 1q-8 -1 -12.5 -4.5t-9.5 -3.5q-17 0 -36.5 7t-33.5 12q-23 -2 -41 6.5t-31 20.5q-7 5 -11.5 9t-5.5 8q-3 7 -2.5 19t0.5 23q0 12 -1 23t1 21q1 5 4 10t4 10q3 11 4 24.5t3 26.5q2 15 5 29t2 25q-1 9 -5 17t-5 15q-2 17 4 30.5t8 29.5
q2 20 -2.5 42.5t-6.5 46.5q-2 21 -1 43t-1 45q-1 16 2 32t2 31q-1 12 -3.5 24.5t-3.5 24.5q-2 25 -0.5 48.5t-2.5 46.5q-1 5 -3 10t-2 10q-1 5 1 10t2 10q0 4 -2.5 7.5t-2.5 8.5q-1 10 1 21t1 21q-2 13 -3 22.5t3 23.5q5 20 11 32t19 20q4 2 6.5 1t3.5 1q1 1 -1.5 2t0.5 3
q5 3 12 5.5t13 6.5q17 11 35.5 14t45.5 9q7 2 12.5 4.5t11.5 4.5q21 5 38.5 3.5t35.5 -5.5q17 -3 25 -4t19 -8q8 -5 20.5 -13.5t17.5 -14.5q5 -8 7 -18.5t6 -19.5q8 -17 21 -31.5t16 -35.5q2 -14 1 -31.5t-4 -35.5t-7 -34.5t-8 -29.5q0 -5 1.5 -9.5t-0.5 -10.5
q-20 -40 -39 -81.5t-52 -69.5zM217 587q5 0 7 1.5t7 0.5q5 14 17.5 22.5t21.5 19.5q4 5 5.5 12t6.5 12q6 8 15.5 13t16.5 14q14 20 15.5 44.5t-0.5 60.5q-12 7 -16.5 20.5t-10.5 26.5q-11 10 -26 16.5t-31.5 11l-33 9t-31.5 11.5q-9 -5 -27 -6.5t-29 -10.5q7 -41 3.5 -79.5
t-4.5 -76.5q-2 -17 2 -34t6 -34q1 -12 -1 -25t-1 -25q2 -21 7 -41t2 -41q23 17 44.5 34.5t34.5 43.5zM163 140q29 -1 54 3t46 8q11 2 22 2.5t17 3.5q13 8 21 23.5t14 29.5q6 13 7.5 22.5t0.5 19t-4 19.5t-7 23q-4 14 -7 29t-8 24q-4 7 -10.5 11t-12.5 8.5t-11.5 10
t-7.5 14.5q-18 6 -32 20t-34 19q-16 4 -33.5 2t-39.5 0q-2 -69 -9 -144.5t-10 -138.5q8 -5 20 -6.5t24 -2.5z" />
    <glyph glyph-name="c" unicode="c" horiz-adv-x="642" 
d="M481 78q4 -14 2 -23.5t-8.5 -15.5t-17 -10.5t-22.5 -9.5q-5 -2 -9 -5.5t-9 -4.5q-8 -2 -17.5 -1t-17.5 -1t-13 -4.5t-9 -2.5q-8 0 -16.5 4t-17.5 6q-10 2 -19.5 2.5t-17.5 2.5q-11 4 -24.5 11.5t-25.5 12.5q-29 14 -51.5 36t-45.5 34q-14 23 -34 48.5t-31 57.5
q-5 17 -9 37t-10 40q-9 29 -18 60.5t-14 67.5q-2 17 -2 33t-3 31q-2 10 -5 22t-5 25t-1 26t7 25q-3 21 -2.5 45.5t4 49t9.5 47.5t13 42q3 8 6 15.5t5 15.5t5.5 14t6.5 13q5 14 7.5 25t9.5 24q4 8 10.5 16t12.5 17q8 11 14.5 18t13.5 12t15.5 10.5t20.5 13.5q20 14 37.5 22
t45.5 16q11 2 31.5 1.5t35.5 -0.5q31 1 61.5 -8.5t52.5 -21.5q8 -5 12.5 -7.5t8 -6t6 -8t7.5 -11.5q5 -8 13 -14.5t13 -14.5q3 -5 8 -14.5t9 -15.5q7 -14 13.5 -28.5t6.5 -29.5q0 -18 -8.5 -36t-25.5 -19q-15 -1 -18.5 6t-10.5 15q-6 7 -14 11t-10 12q-24 10 -43.5 24
t-45.5 22q-16 -9 -32.5 -2.5t-26.5 14.5q-21 -2 -38.5 1.5t-33.5 -1.5q-6 -2 -17 -11t-17 -16q-5 -5 -12 -16t-14 -23t-13 -24t-9 -20q-5 -15 -5.5 -29t-12.5 -21q-1 -28 -4.5 -52.5t-7.5 -48t-8 -45.5t-6 -45q-1 -5 -0.5 -11t0.5 -11q1 -20 4 -40.5t8 -34.5q4 -10 10.5 -20
t8.5 -21q1 -5 -0.5 -9.5t-1.5 -9.5q2 -22 11 -44t16 -45q9 -27 18.5 -49t24.5 -39q5 -7 15.5 -14.5t18.5 -11.5q9 -5 22 -8.5t26 -6.5q5 -2 15.5 -3.5t16.5 -0.5q12 2 26 9.5t32 8.5q9 0 17.5 -3t18.5 -1q7 1 16 5t20 7q10 3 20.5 4.5t16.5 4.5q6 2 10.5 7.5t11.5 5.5
q8 1 18.5 -5.5t12.5 -14.5q1 -4 -0.5 -7.5t-2.5 -8.5q-2 -9 -3.5 -21.5t-6 -23.5t-12.5 -19t-23 -6z" />
    <glyph glyph-name="d" unicode="d" horiz-adv-x="653" 
d="M52 5q-6 5 -8 15t-3.5 20t-5.5 17.5t-15 7.5q2 23 2 43.5t4 42.5q2 14 0.5 28t0.5 29t6.5 29.5t7.5 31.5q2 10 0 19t-1 19q0 5 2.5 9t3.5 9q0 5 -2 11t-1 11q0 8 2 16.5t3 16.5q2 36 -0.5 73t2.5 74q1 8 2.5 15t2.5 15q1 23 -1 45.5t0 44.5q0 10 2.5 21.5t3.5 22.5
t-0.5 21.5t-7.5 19.5q8 11 4.5 24.5t-4.5 24.5q0 13 2.5 25t3.5 24q0 42 -0.5 84t11.5 84q31 8 59 4t63 -12q11 -3 22 -3.5t19 -4.5q7 -3 13 -7.5t13 -8.5q45 -24 85 -53t72 -60q7 -17 16 -33.5t18.5 -34t17 -36t11.5 -39.5q2 -8 0.5 -17t0.5 -18t5.5 -17.5t5.5 -18.5
q5 -19 7.5 -38.5t5.5 -39.5q2 -10 4.5 -21t2.5 -19q-1 -17 -6.5 -35t-7.5 -37q-1 -14 -1.5 -28t-2.5 -26q-2 -10 -6 -19.5t-6 -19.5q-2 -14 -3.5 -27t-5.5 -26q-5 -14 -11.5 -26t-10.5 -26q-2 -7 -2.5 -14t-2.5 -13t-8.5 -14.5t-11.5 -16.5q-24 -37 -55 -65t-66 -52
q-15 -11 -30.5 -16.5t-32.5 -13.5q-11 -5 -19 -10.5t-18 -8.5q-17 -7 -35.5 -10t-38 -4.5l-39 -3t-38.5 -4.5zM348 291q5 8 12 14.5t10 12.5q4 9 7 23t6 25q5 26 9 58t5 57q0 8 -2 18t-3 21q-1 19 -6 39t-7 40t-7 37q-2 7 -6 13t-6 14q-5 20 -7.5 41t-12.5 38
q-8 14 -19 25.5t-23.5 21.5t-26 20t-26.5 21q-22 18 -48 33.5t-44 13.5q-8 -34 -5 -73t6 -69q1 -10 0 -19.5t-1 -20.5q0 -47 2.5 -91t-2.5 -91q-4 -29 -1.5 -59.5t0.5 -61.5q-2 -26 -9 -51t-10 -51q-2 -15 0.5 -31.5t0.5 -33.5q-1 -8 -4 -16t-5.5 -15.5t-2.5 -15t5 -13.5
q8 -4 13.5 0.5t12.5 6.5q8 1 14.5 -0.5t13.5 0.5q16 4 30 13t28.5 18t30.5 15t36 5q17 10 24.5 29.5t17.5 38.5z" />
    <glyph glyph-name="e" unicode="e" horiz-adv-x="591" 
d="M450 1000q13 -10 22.5 -32.5t1.5 -48.5q-3 -9 -20.5 -20t-31.5 -17q-18 -8 -41.5 -11t-49 -3.5t-52.5 0.5t-51 0q-21 -1 -38.5 -8t-28.5 -15q-2 -34 -6.5 -70.5t-7.5 -73t-3 -73.5t7 -72q22 -8 50 -10t56.5 -3.5t54.5 -5.5t45 -15q1 -31 -8 -51t-26 -35q-6 -6 -10.5 -9
t-10 -5t-12 -3.5t-17.5 -2.5q-27 -4 -65 -3.5t-74 -0.5q1 -58 -2 -111t-6 -107q39 -5 77.5 -12.5t82.5 -4.5q18 -15 35.5 -31.5t40.5 -27.5q18 8 42.5 9.5t44.5 9.5q15 -14 15.5 -27.5t-6.5 -25.5t-18.5 -23.5l-20.5 -20.5q-11 -11 -22 -21.5t-21 -18.5q-47 0 -93 3
q-25 2 -49 0.5t-46 1.5q-8 1 -15 5t-15 6q-21 5 -41.5 3t-37.5 4q-8 3 -13.5 8t-11.5 9t-12.5 6.5t-16.5 0.5q1 33 -2.5 71t-2.5 73q1 29 12 57.5t16 60.5t5.5 68.5t0.5 71.5q1 35 0.5 70.5t-0.5 72.5q0 35 3.5 70t3.5 69q0 21 -1 46.5t-1 52.5t2 52t7 45q16 8 33.5 11.5
t35.5 8.5q5 2 10 5t10 5q9 2 19 1.5t20 1.5q5 1 10.5 4.5t10.5 5.5q8 2 17.5 2.5t18.5 2.5q19 5 38.5 4t43.5 2q6 1 11.5 4t10.5 4q10 2 19.5 0.5t19.5 -0.5q14 2 27.5 5.5t26.5 5.5z" />
    <glyph glyph-name="f" unicode="f" horiz-adv-x="587" 
d="M58 0q2 36 -5 62t-16.5 50t-18 49t-8.5 59q11 18 17.5 38t4.5 43q-1 9 -4 18t-4 18q-2 17 -2 36t2 36q2 11 3.5 22.5t2.5 27.5q2 17 7.5 33t9.5 33q6 21 7 43t0.5 44t-1 43.5t1.5 42.5t8.5 44.5t1.5 50.5q-2 14 -7 33t-3 39q2 11 6.5 20.5t6.5 18.5q2 18 1 30t8 23
q7 8 14.5 18t18.5 15q17 3 32.5 -0.5t31.5 -2.5q9 0 17.5 3t16.5 3q7 0 14 -1.5t14 -1.5q23 0 44.5 6t40.5 4q5 -1 10 -3.5t10 -3.5q26 -4 53 -0.5t44 7.5q14 -4 24.5 -14.5t16 -25t4.5 -30t-9 -29.5q-7 -11 -26.5 -25.5t-36.5 -19.5q-3 -1 -9 -2.5t-13 -3t-13.5 -2
t-9.5 -0.5q-9 1 -19 7.5t-20 8.5q-17 4 -37 4t-38 2t-37 0t-32 -13q0 -60 2 -121.5t-6 -115.5q18 -6 39.5 -8t44 -3.5t44.5 -3t40 -7.5q24 8 53 3.5t49 -11.5q3 -7 6.5 -13.5t8.5 -11.5q-14 -17 -17 -45q-20 -21 -52.5 -30t-70.5 -17q-23 -5 -47.5 -6.5t-46.5 -8.5
q-6 -2 -11.5 -5.5t-11.5 -5.5q-15 -5 -32.5 -3.5t-31.5 -1.5q-4 -24 1 -49t5 -53q0 -22 -3.5 -47.5t-5.5 -51.5q-2 -35 1.5 -69.5t-1.5 -60.5q-2 -5 -6.5 -10.5t-6.5 -11.5q-3 -10 -3 -21t-3 -20q-5 -14 -15 -25.5t-18 -19.5q-5 -3 -15 -1.5t-15 -1.5z" />
    <glyph glyph-name="g" unicode="g" horiz-adv-x="762" 
d="M217 418q-5 1 -1 3.5t4 4.5q-5 2 -9 4t-5 7q1 9 6 15t11 11t11.5 10.5t7.5 11.5q18 6 37.5 8t40 1.5t42.5 -1t45 1.5q19 2 37 5.5t36 1.5q24 -2 46 -8t42 -5q5 1 9 2t9 1q15 0 28.5 -6.5t25.5 -10.5q9 -12 12 -40.5t-1 -54.5q-2 -10 -6 -18t-6 -16t-0.5 -15.5t0.5 -14.5
q-2 -16 -7 -28t-12 -23q-6 -30 -18.5 -53.5t-27.5 -44.5t-31 -41t-29 -42q-6 0 -8 -4.5t-6 -7.5q-4 -2 -8 -3t-8 -3q-7 -5 -13 -11t-14 -11q-14 -8 -26.5 -11.5t-18.5 -17.5q-23 -12 -58.5 -14t-71.5 0q-15 1 -26 6t-19.5 12.5t-15.5 15.5t-16 14q-7 -1 -12 -2.5t-11 -2.5
q-9 20 -23 38t-28 35q-11 12 -23 23t-22 23q-9 11 -15 25.5t-21 21.5q-13 38 -25 79.5t-6 94.5q-7 6 -8 15.5t0 21.5t3 25t2 25q0 11 -3 20t-3 17q0 9 4 17t7 17q6 21 9 44t5 44q2 32 16.5 68.5t32.5 65.5q17 28 34.5 55t35.5 49q15 19 34.5 32.5t36.5 29.5q8 8 15.5 18.5
t21.5 13.5q8 2 15.5 1t12.5 1q6 2 10.5 6.5t10.5 6.5q10 5 19.5 8t16.5 11q8 -5 20.5 -6.5t24.5 0.5q14 2 25.5 7t31.5 2t36 -6t29 -12q2 -9 4 -18.5t0 -19.5q-1 -9 -6 -15.5t-3 -13.5q-13 2 -16.5 -5.5t-9.5 -12.5q-39 3 -73.5 -7.5t-68.5 -17.5q-20 -4 -37.5 -6.5
t-33.5 -12.5q-15 -8 -31.5 -24t-29.5 -30q-6 -7 -13 -15t-13 -16t-13 -16t-12 -16q-2 -4 -3.5 -9t-3.5 -10q-4 -5 -9 -9.5t-8 -10.5q-5 -8 -8.5 -18t-5.5 -20q-2 -7 -1.5 -14t-1.5 -14q-2 -8 -7.5 -13t-6.5 -13q-4 -31 -10.5 -65.5t-8.5 -64.5q-1 -15 -1 -32.5t1.5 -35
t4.5 -33t6 -27.5q5 -20 13 -41t21 -37q8 -8 14.5 -17t13.5 -17q7 -7 16.5 -13.5t12.5 -18.5q17 0 25.5 -9t20.5 -14q2 -5 0 -8t0 -6q8 -7 11.5 -4t13.5 4q8 0 16.5 -3t16.5 -7t15.5 -6.5t13.5 -2.5q10 1 17.5 7.5t14.5 13.5t15 12t19 4q25 16 50.5 40.5t47.5 47.5q6 8 16 17
t12 17q1 6 -1.5 13.5t-1.5 14.5q0 8 3 15t3 13q-1 17 -12.5 26t-23.5 17q-29 1 -55 0t-51 0q-22 2 -42 5.5t-43 4.5q-19 0 -36 -0.5t-34 4.5z" />
    <glyph glyph-name="h" unicode="h" horiz-adv-x="606" 
d="M349 506q-11 -7 -23.5 -5t-26.5 3q-11 1 -22 -1l-22 -4q-15 -2 -31 -0.5t-31 -0.5q-16 -2 -29.5 -5.5t-24.5 -5.5q-11 -1 -18.5 0.5t-13.5 -1.5q-12 -6 -12 -27t-1 -43q-1 -13 -4.5 -22.5t-2.5 -19.5q1 -8 5 -15t5 -15q2 -7 0.5 -14.5t-1.5 -15.5q-1 -36 2.5 -80t4.5 -80
q0 -1 -0.5 -2t-0.5 -2v-2q2 -8 8 -13t7 -10q1 -6 -0.5 -14t-1.5 -15t2 -12.5t11 -6.5q-12 -9 -19.5 -23t-19.5 -22q1 -8 1.5 -16t1.5 -16q-17 5 -29.5 14.5t-21.5 21.5q6 26 7 51.5t0.5 52t-2 53.5t-1.5 57q1 41 -2 82.5t-1 81.5q2 50 2.5 100.5t-1.5 101.5q0 8 -2 16t-2 16
q0 9 2 18t1 18q0 11 -3 20.5t-3 20.5q-1 7 0.5 13t1.5 13q1 11 -1 21.5t-4 21.5q-1 11 -4 20t-4 18q-1 8 0.5 16t1.5 16q-1 11 -3.5 22t-3.5 22q-1 19 4 37.5t2 38.5q5 -4 11.5 0t14.5 3q14 -2 21.5 -13t9.5 -28q3 -26 2 -54t4 -60q2 -12 6 -26t8 -29t6 -30.5t0 -29.5
q-1 -8 -4.5 -15.5t-4.5 -11.5q-2 -11 1 -21.5t3 -21.5q0 -12 -3 -24t2 -23q9 -10 21 -7.5t24 5.5q12 2 24.5 4t24.5 5q33 7 66 6t63 8q6 0 4.5 -6.5t4.5 -6.5q6 1 10 3.5t9 4.5q1 36 0.5 76t-2.5 82q0 8 -2.5 16.5t-2.5 16.5q-2 14 0.5 29t2.5 30q0 8 -2.5 17.5t-1.5 17.5
q1 23 8 43.5t9 40.5q4 4 11.5 9.5t13.5 5.5q9 -1 14 -7.5t10 -15.5q11 -18 17.5 -34.5t8.5 -45.5q1 -9 0.5 -18.5t0.5 -19.5q1 -8 3 -16t3 -16q1 -7 -0.5 -14t-1.5 -15q1 -13 3.5 -25t1.5 -22q-1 -20 -5 -40t6 -33q-6 -17 -6 -34t2 -34.5t5 -35.5t3 -36q1 -45 -5.5 -92.5
t-11.5 -94.5q-2 -23 -2.5 -45t-3.5 -43q-3 -18 -7 -35.5t-6 -34.5q-1 -6 0 -12t0 -11q-2 -16 -6 -33.5t-9 -34.5q-2 -7 -6 -12t-6 -11q-2 -8 -2 -14t-2 -12q-8 -19 -26 -21t-30 20q-2 2 -2 6.5t-2 8.5q-2 5 -3.5 7t-1.5 6q0 6 3.5 12t5.5 13t1 16t1 17q2 17 7 34t4 34
q0 11 -3.5 21.5t-1.5 21.5q1 6 4.5 12t4.5 13q4 26 3 51.5t3 49.5q2 11 6 20.5t5 20.5t-1 23.5t-4 23.5q-2 12 -4.5 22t-5.5 21z" />
    <glyph glyph-name="i" unicode="i" horiz-adv-x="579" 
d="M435 898q-21 -6 -38 -3.5t-33.5 7.5t-33 9t-35.5 1q-11 -2 -21.5 -10.5t-18.5 -21t-13.5 -27.5t-6.5 -30q-1 -8 0.5 -15.5t1.5 -15.5q0 -32 -2.5 -67.5t-2.5 -67.5q-1 -20 -0.5 -48.5t5.5 -50.5q2 -11 6 -20.5t6 -20.5q8 -56 14 -115t16 -114q5 -27 11 -48.5t12 -47.5
q5 -21 12.5 -42.5t21.5 -29.5t35 -9t38 -6q16 -5 24 -13t16 -18q-3 -6 -7 -11t-8.5 -9.5t-8 -10t-4.5 -13.5q-41 -8 -85.5 -9t-86.5 -5q-13 -2 -26 -1.5t-24 -1.5q-22 -5 -45 -10.5t-52 -0.5q-20 20 -30 50t-13 67q35 -2 72 -3t65 -11q3 12 3 26.5t5 24.5q-8 30 -5 60t0 60
q-2 23 -7 45t-3 44q0 5 2.5 11.5t2.5 12.5q0 7 -2.5 14t-4.5 15q-2 12 -1.5 25t-1.5 24q-2 8 -5.5 15.5t-5.5 15.5q-4 35 0 70.5t2 71.5q-1 29 -4.5 58.5t-2.5 59.5q-1 3 -3.5 -0.5t-6.5 -1.5q9 12 4.5 22.5t-6.5 24.5q-3 20 -5 36t-10 30q-18 30 -55 37.5t-85 9.5
q-3 4 1.5 7t6.5 8q5 11 8 24.5t11 21.5q45 8 92.5 14t93.5 8q29 2 52 0q19 -1 35.5 -6.5t33 -11.5t34 -12t39.5 -7q16 -8 21 -25t6 -39z" />
    <glyph glyph-name="j" unicode="j" horiz-adv-x="695" 
d="M419 858q4 -19 2 -38t-2 -39q1 -14 4.5 -27.5t2.5 -27.5q0 -11 -3.5 -23t-3.5 -24q1 -5 2 -10.5t2 -10.5q3 -42 1.5 -84.5t-1.5 -84.5q0 -54 -2 -110.5t-7 -106.5q0 -7 -3 -14.5t-2 -14.5q2 -7 9 -11.5t8 -12.5t-3.5 -18t-9.5 -22t-8 -25t1 -26q-17 -32 -38 -59.5
t-56 -40.5q-8 -7 -15.5 -14t-15.5 -14q-20 -1 -33.5 4t-25 12t-23.5 13.5t-29 8.5q-7 1 -16 -0.5t-18 0.5q-8 2 -13.5 10.5t-12.5 14.5q-10 11 -21 18.5t-18 16.5q-1 35 -12.5 58.5t-25.5 50.5q-3 7 -8 15t-8.5 16.5t-5.5 17t0 16.5t9.5 12t16.5 7t18.5 5t17.5 7
q10 -9 16 -22t10.5 -27.5t8.5 -29t11 -27.5q3 -7 10.5 -13.5t14.5 -15.5q9 -11 16 -22.5t24 -13.5q7 -1 13.5 2t11.5 3q4 0 7 -2.5t7 -2.5h6t11 0.5l12 1t9 1.5q12 3 20 18t21 25q3 2 9 4t8 4q9 9 15.5 30t8.5 41q0 5 -1.5 11t-0.5 11q1 6 4 12.5t4 14.5q1 6 0.5 12t-0.5 12
q1 8 4 13.5t3 10.5q2 17 -0.5 36.5t-0.5 38.5q1 19 5.5 37t4.5 35q0 41 3.5 79.5t-0.5 75.5q-4 3 -9.5 0.5t-12.5 -0.5l2 12t1 12q4 3 8 5t11 0q-9 13 -8 32.5t4.5 41.5t6 45.5t-2.5 43.5q-7 2 -8 9t-4 13q-29 -9 -64 -12t-71 -5q-8 13 -16 23.5t-18 24.5q-3 4 -8 11
t-9.5 14.5t-7.5 15.5t-1 15q1 5 9.5 10.5t19 10.5t21.5 8.5t19 4.5q5 1 11 -0.5t11 -0.5q11 0 20.5 4.5t20.5 5.5t20.5 -2t22.5 -3q7 -1 14 1t15 2q42 2 87 1.5t75 -8.5q4 2 8 2.5t6 2.5q4 -14 4.5 -28.5t0.5 -29t2 -28t8 -25.5q-1 -2 -4.5 1t-5.5 4q-14 -6 -32 -7.5l-36 -3
t-34 -6t-25 -15.5z" />
    <glyph glyph-name="k" unicode="k" horiz-adv-x="624" 
d="M244 346q-14 1 -24 6.5t-19 13.5t-17 17t-17 17q-14 13 -26.5 25.5t-23.5 24.5q-11 -13 -20.5 -24.5t-10.5 -30.5q-1 -11 5 -25t8 -31q1 -13 3 -27.5t1.5 -27.5t-5 -22.5t-14.5 -13.5q2 -5 7.5 -5t7.5 -5q1 -23 -1 -51.5t-4 -54.5q-2 -20 -6.5 -39.5t-6.5 -38.5
q-2 -14 -0.5 -28t-6.5 -26q-8 1 -16.5 1.5t-15.5 -1.5q-3 11 -5 24.5t3 24.5q-11 4 -14.5 21t-5.5 31q-2 19 2 39.5t7 40.5q2 17 10 32t12 32q3 14 2.5 31.5t1.5 35.5q1 9 3.5 20t4 22.5t0.5 23t-7 20.5q1 46 2.5 97.5t2.5 99.5q0 9 -2.5 18t-2.5 17q0 4 2 8.5t2 9.5
q0 6 -2.5 14.5t-5 18t-4.5 19t-1 18.5q0 5 2.5 10.5t1.5 10.5q-1 8 -8.5 15t-10.5 14q-1 3 -0.5 4t2 1.5t2.5 1t1 2.5q-1 17 -1.5 34t7.5 28q-1 24 2 47.5t-2 44.5q0 5 -4.5 6t-8.5 3q7 14 18.5 27t9.5 33q14 -11 18.5 -26t10.5 -33q2 -5 4.5 -9.5t3.5 -9.5q5 -17 3 -35.5
t1 -38.5q2 -17 8 -41t8 -44q2 -18 1.5 -37.5t-1.5 -38.5t-0.5 -37.5t5.5 -36.5q12 9 23.5 21t23.5 24.5t24.5 24.5t27.5 20q2 3 2 7t2 6q16 23 34 44.5t35.5 43.5t33.5 46t29 51q12 4 22 10t17 16q5 -8 12 -12.5t12 -12.5q3 -4 4.5 -9t3.5 -9.5t6 -7.5t11 -2
q-32 -48 -67.5 -90.5t-81.5 -75.5q-1 -4 -1 -8.5t-2 -7.5q-36 -24 -64.5 -55.5t-60.5 -59.5q-2 -8 -6 -16t-1 -19t15.5 -15.5t20.5 -10.5q13 -10 25.5 -23.5t25.5 -28t25.5 -27t24.5 -19.5q22 -39 46.5 -74.5t53.5 -67.5q12 -5 21 -13.5t17.5 -18t17 -18t20.5 -14.5
q-2 -5 0.5 -11t4.5 -12t1.5 -12t-6.5 -11q5 -7 8 -16t6.5 -18t8 -16.5t12.5 -11.5q-5 -1 -11.5 3.5t-11.5 6.5q-8 -8 -25 -6.5t-27 0.5q-2 -4 1 -9.5t5 -8.5q-16 17 -36.5 33t-33.5 39q-3 5 -4.5 10.5t-3.5 10.5q-8 15 -21 26t-22 26q-2 4 -2.5 8t-2.5 8q-9 17 -25.5 31
t-27.5 31q-5 8 -7.5 16.5t-7.5 16.5z" />
    <glyph glyph-name="l" unicode="l" horiz-adv-x="749" 
d="M14 1000q29 2 47.5 -9.5t35.5 -25.5q8 -28 19.5 -59t19.5 -64q3 -12 3 -24t5 -23q2 -5 5.5 -8.5t5.5 -8.5q8 -19 11 -43t9 -48q8 -33 18.5 -66t12.5 -71q1 -12 -2 -25t-2 -25q1 -20 6 -39.5t10.5 -40t9.5 -41t3 -42.5q0 -18 -2 -41t-3 -52q0 -12 -0.5 -26t0.5 -27
t4.5 -23t10.5 -13q11 -5 31 -2t40 5q23 2 39.5 2t31 -0.5t29.5 -1.5t34 -2q35 -1 64 -6.5t56 -13t53.5 -16.5t55.5 -17q-7 -9 -10.5 -20t-5.5 -23.5l-4 -25t-5 -23.5q-20 -2 -37.5 -6t-36.5 -3q-8 1 -15 4t-15 4q-13 1 -26 -2.5t-26 -2.5q-7 0 -14 2.5t-14 2.5
q-23 2 -47.5 -4.5t-50.5 -5.5q-6 0 -11 2t-11 3q-7 0 -14.5 -1.5t-15.5 -1.5q-10 0 -19.5 2t-17.5 2q-8 -1 -14.5 -3t-13.5 -2t-13.5 2.5t-14.5 3.5q-9 0 -19 -2.5t-19 -2.5q-21 1 -40.5 9t-36.5 15q2 12 11 19t13 18q3 62 5 125.5t-1 132.5q-2 24 -6 47t-6 47q-1 12 0.5 23
t0.5 22q-2 13 -5.5 25.5t-5.5 26.5q-3 20 -3.5 40t-3.5 40q-6 35 -15.5 70.5t-20 70.5t-21 70.5t-17.5 70.5q-3 15 -8.5 32t-9.5 34t-5 32.5t4 27.5z" />
    <glyph glyph-name="m" unicode="m" horiz-adv-x="870" 
d="M621 907q5 0 3 7q4 -3 1 -7t-8 -2q3 -20 9 -42q2 -10 7.5 -20.5t6.5 -19.5q1 -13 -2.5 -25.5t7.5 -21.5q0 -26 7.5 -51.5t11.5 -51.5q-6 -21 -4 -43.5t7.5 -45l11 -45t6.5 -43.5q1 -6 -0.5 -12.5t-0.5 -13.5q0 -27 7.5 -53t6.5 -54q-2 -34 -3 -70.5t0.5 -73t6 -72
t15.5 -67.5q-6 -11 -11 -25.5t-12 -27t-16.5 -20.5t-23.5 -7q-5 0 -13 4t-16 9.5t-15 11t-9 10.5q-5 10 -5 25.5t0.5 33t1.5 35.5t0 35q-1 11 -1 20t1 22q1 17 -2.5 37.5t-4.5 43.5q-1 24 -0.5 47.5t-4.5 42.5q-2 8 -6.5 14.5t-6.5 13.5q-8 35 -4 68t-1 65q-2 12 -7.5 24.5
t-7.5 28.5q-2 15 -4 31t-3 30q-1 8 0 15.5t0 13.5q-3 11 -10.5 20t-5.5 22q-8 2 -11 -2t-4 -10.5t-0.5 -13.5t-0.5 -12q-2 -6 -7.5 -10.5t-8.5 -12.5q-2 -4 -0.5 -8.5t-0.5 -8.5q-5 -10 -14.5 -21t-17.5 -25q-8 -12 -13 -26t-11 -26q-8 -14 -22 -25.5t-20 -28.5
q-9 -2 -15 -9t-15 -9q-10 -2 -20 -1t-20.5 2.5t-21 3.5t-20.5 1q-23 36 -41 78.5t-41 81.5q-11 18 -21 37t-30 28q-6 -8 -1.5 -13.5t5.5 -12.5q1 -9 -1 -19t-1 -20q0 -8 1.5 -17t1.5 -18q0 -20 -5 -39t-7 -39q-2 -16 1 -31t3 -30q0 -17 -4.5 -34.5t-6.5 -34.5
q-3 -39 -1 -78.5t-8 -71.5q-2 -5 -6.5 -11.5t-6.5 -12.5q-3 -13 -2 -26t0 -25t-4.5 -26t-4.5 -28q-1 -9 0.5 -18.5t-0.5 -16.5q-2 -6 -7 -13t-11.5 -13.5t-13.5 -11t-13 -4.5q-13 -1 -26 10.5t-15 24.5q0 5 2 9t4 10q2 13 -1 26t-5 28q-2 14 -0.5 31t4 35t3.5 37t0 37
q-2 17 -6.5 43.5t-0.5 49.5q2 6 5 11.5t4 10.5q2 12 -2 23t-7 21q5 8 4.5 17t1.5 18q1 9 4.5 17.5t5.5 17.5q2 12 -0.5 24t-1.5 25q2 21 12.5 42t12.5 44q2 30 1 60t4 60q2 11 7 22t7 22q2 12 0.5 24t6.5 23q25 4 58 3.5t61 -12.5q6 -3 14 -8.5t16.5 -12t16 -13t12.5 -11.5
q9 -9 15 -19.5t13 -20.5q15 -21 34 -34.5t36 -28.5q-2 3 3 4.5t8 3.5q2 3 3 7.5t5 5.5q9 20 18 43.5t21 48.5q11 24 28 46t26 43q4 11 7.5 24t7.5 25t9.5 21.5t15.5 13.5q8 4 23.5 3.5t23.5 1.5q16 3 25 -7.5t14.5 -26t9.5 -32t11 -26.5z" />
    <glyph glyph-name="n" unicode="n" horiz-adv-x="864" 
d="M568 230q3 51 0 105t-8 112q-3 39 -3 85t-5 92q-3 29 -9.5 55.5t-6.5 51.5q0 3 -0.5 8.5t6.5 6.5q-4 5 -7.5 18.5t-5 28.5t0 28.5t6.5 17.5q-8 18 -6.5 32.5t8.5 27.5t16.5 25t17.5 24q5 8 8.5 17t8 17t10.5 13t17 5q7 -13 11 -28.5t8 -32.5t7.5 -34t8.5 -32
q-5 -14 -4 -28.5t4 -29t7 -29t6 -28.5q1 -17 -0.5 -35t10.5 -34q-3 -18 -1 -44.5t5.5 -56.5t7.5 -60.5t6 -55.5q2 -17 1 -31.5t10 -26.5q2 -8 -1.5 -11t-4.5 -8q2 -26 6.5 -51.5t8 -50.5t5 -48.5t-3.5 -44.5q-2 -10 -8.5 -19.5t-9.5 -19.5q-5 -17 -6.5 -33t-8.5 -30
q-12 -26 -26 -48t-31 -43q-35 -8 -60 -7t-53 9q-5 22 -19.5 38.5t-24.5 35.5q-2 5 -3 10t-3 10q-4 8 -10 12t-11 10q-5 7 -8.5 15t-9.5 16q-5 7 -9 15t-9 16q-15 26 -31.5 54t-37.5 51q0 14 -5 24.5t-11.5 18.5t-14.5 15.5t-14 15.5q-25 34 -41 73t-36 80q-1 5 -5.5 5
t-6.5 4q-2 17 -10 25t-20 11q-11 -11 -11 -32.5t2 -36.5q2 -20 9 -39t9 -41q2 -36 -2.5 -70t-2.5 -68q-1 -6 4.5 -4.5t4.5 -4.5q3 -43 -6.5 -75.5t-22.5 -62.5q0 -10 4.5 -13t6.5 -11q-5 -10 -10 -19.5t-13 -17.5q-14 0 -26.5 -4t-23.5 -2q-14 16 -26 42.5t-15 61.5
q-2 17 0 38t3 42q2 21 1.5 42.5t1.5 38.5q2 8 6.5 16t6.5 16q5 23 -0.5 50.5t-7.5 52.5q0 9 1 19t-7 18q-1 21 -2 43.5t-2.5 45t-5 43t-9.5 37.5q8 18 9 46t-3 57t-13 55t-20 40q0 10 6.5 12t7.5 10q0 4 -4.5 9t-4.5 13q1 11 10.5 24t17.5 16q11 4 21 0.5t19 -9.5
t17.5 -13.5t16.5 -10.5q17 -30 38.5 -64.5t43.5 -70l44 -71t40 -68.5q9 -16 20 -29.5t27 -20.5q8 -35 26.5 -60.5t38.5 -54.5q14 -22 28.5 -43.5t27.5 -42.5q15 -23 27 -46t27 -44q8 -11 14.5 -21t14.5 -21q7 -8 14.5 -18.5t19.5 -12.5z" />
    <glyph glyph-name="o" unicode="o" horiz-adv-x="733" 
d="M172 946q8 14 21 16.5t31 10.5q37 15 72.5 30t77.5 12q14 -2 24 -8.5t21 -12.5q9 -5 19.5 -8.5t20.5 -8.5t19.5 -9.5t20.5 -7.5q42 -31 65 -94.5t20 -144.5q-2 -58 2.5 -118t0.5 -111q0 -6 4 -8t3 -10q-8 -23 -6.5 -47t-0.5 -47q-2 -15 -6.5 -30t-9.5 -29.5t-9 -29
t-5 -29.5q-23 -33 -43 -68t-43.5 -67.5t-52.5 -61t-68 -48.5q-14 1 -23.5 -3.5t-17.5 -9.5q-18 0 -35 -2t-33.5 -3t-32 1.5t-29.5 11.5q-13 8 -20.5 18t-23.5 15q-2 4 -3 7.5t-1 9.5q-26 18 -43.5 48t-32.5 66q-11 27 -23 54.5t-13 69.5q-1 17 1 35t0 35q-2 13 -5.5 24
t-4.5 21q0 11 2.5 21t2.5 16q0 19 -1.5 35t-3 31t-2 29.5t1.5 29.5q4 25 12 60.5t11 60.5q3 22 9 39.5t14 33t17.5 30.5t19.5 33q4 6 11 14.5t14 18t13 19t7 18.5zM300 124q12 3 21 11t16.5 18t14 20.5t13.5 19.5q7 8 14.5 13.5t10.5 10.5q7 10 12 26t12 31q3 8 9 16t11 16
q6 11 15.5 26t18 30.5t15 30t6.5 25.5q0 18 -0.5 39.5t-3.5 41.5t-10 34.5t-19 19.5q-1 5 -1.5 9t-0.5 9q-14 12 -24.5 28.5t-18.5 35.5t-14.5 40t-13.5 41q-15 14 -25 29.5t-12 41.5q-12 19 -33 24t-43.5 0.5t-42.5 -17t-30 -28.5q-8 -1 -15.5 -1.5t-15.5 -1.5
q-11 -31 -27 -58.5t-21 -63.5q-2 -5 -7.5 -7t-6.5 -9q-1 -6 -1.5 -14.5t0.5 -17t3 -16t7 -11.5q-8 -13 -10 -30t-1.5 -37.5t3 -42.5t3.5 -45q2 -26 6 -54t11 -53.5t16.5 -47t21.5 -34.5q7 -8 16.5 -12t15.5 -10q8 -8 11.5 -16.5t10.5 -15.5t15.5 -11t16 -8.5t13.5 -11
t9 -16.5q2 4 5.5 5t7.5 0l8 -2t8 0zM435 805q-14 10 -24.5 2t-9.5 -21q1 -7 8.5 -18.5t12.5 -23.5q11 -23 17.5 -43t20.5 -29q9 17 8 33.5t-7 32.5t-14 32.5t-12 34.5z" />
    <glyph glyph-name="p" unicode="p" horiz-adv-x="665" 
d="M190 336q-13 -24 -17.5 -58.5t-6 -73t-3.5 -76.5t-9 -68q-5 -15 -12.5 -27t-9.5 -27q-8 0 -15.5 -3.5t-15.5 -2.5q-4 1 -10 4.5t-13 8.5t-13 10t-10 8q-13 9 -23 18t-18 17q8 27 10 57t7 60q3 12 7.5 23.5t6.5 24.5q2 11 0 21.5t0 21.5q2 13 3.5 23.5t2.5 26.5
q0 18 5.5 41t2.5 49q-1 5 -3 9.5t-3 9.5q-3 22 1.5 43.5t2.5 43.5q7 8 6 19t1 26q2 11 6 21.5t6 21.5q2 12 -0.5 24t-1.5 26q1 17 7 33t7 29q0 6 -2.5 14t-3.5 15q-2 16 1.5 34t6.5 34t1.5 28t-13.5 17h-8q-7 0 -13 -5t-12.5 -10.5t-15 -9.5t-19.5 -2q1 29 9 50.5t20 39
t27 32t29 29.5q17 3 33 9.5t43 4.5q12 -2 25 -5t27 -5q15 -2 30 -1t31 -1q14 -2 28 -6.5t28 -7.5q33 -6 54 -11.5t35 -24.5q5 -1 11 -0.5t9 -1.5q14 -11 29 -22.5t27 -26.5q10 -13 21.5 -33.5t11.5 -38.5q0 -6 -2.5 -11.5t-3.5 -11.5q-3 -23 -4.5 -50.5t-3.5 -56.5
q-1 -16 1.5 -33t0.5 -31q-2 -11 -10.5 -25.5t-14.5 -28.5q-6 -15 -11 -29.5t-12 -25.5q-10 -13 -22 -27.5t-23 -28.5q-5 -7 -10.5 -14t-10.5 -15t-9 -17t-9 -14q-17 -18 -42.5 -25.5t-53.5 -11.5l-56 -8t-52 -15zM307 759q-2 10 -7.5 24t-13 27t-16 23t-15.5 13
q-15 6 -38 4.5t-42 -6.5q-7 -33 -11.5 -68.5t-17.5 -63.5q8 -18 3 -36t-7 -32q-5 -33 -4.5 -68t-7.5 -67q7 -5 13.5 -10t12.5 -12q21 5 47 5t48 5q17 14 35.5 26.5t43.5 18.5q-1 22 -3 49.5t-4.5 56t-6.5 57.5t-9 54z" />
    <glyph glyph-name="q" unicode="q" horiz-adv-x="723" 
d="M382 4q2 13 -1 22.5t-8.5 16t-12.5 12.5t-13 13q-8 11 -14 21.5t-12 23.5q-13 14 -32.5 20.5t-40.5 14.5q-20 6 -41 13t-40 5q-8 11 -20 19.5t-22 20.5q-19 23 -31.5 57t-23.5 68q-5 14 -11.5 26t-11.5 26q-5 15 -7.5 29.5t-4.5 31.5q-6 31 -14 61t-10 60q-2 17 -1 35.5
t2 36.5q1 8 0 15.5t0 15.5q2 8 7 14t8 14q8 18 15 37.5t11 39.5l19.5 19.5t6.5 28.5q11 9 25 16.5t27.5 15t25.5 15.5t19 17q13 11 29 30t25 34q8 5 16.5 8.5t17.5 10.5q9 6 15.5 15t16.5 12q9 3 23.5 4.5t29.5 0.5t28.5 -3t21.5 -5q9 -4 18.5 -12.5t19 -18t19.5 -17.5
t20 -11q0 -5 1.5 -8t0.5 -9q24 -30 42.5 -74t32 -96t21.5 -107.5t12 -108.5q1 -20 -1 -38.5t-5.5 -35.5t-6.5 -34t-3 -35q0 -7 2.5 -14t0.5 -14q-1 -10 -9 -21t-13 -23q-5 -14 -8 -27t-8 -23t-12.5 -19t-15 -17.5t-13.5 -17.5t-7 -19q-3 -21 5 -36.5t18 -30t17.5 -31
t1.5 -38.5q-3 -15 -19 -27t-38 -19.5t-46 -9.5t-44 4zM338 889q-27 -11 -53.5 -29t-47.5 -32q-20 -13 -34.5 -26.5t-17.5 -37.5q-13 -14 -19 -32.5t-16 -41.5q-6 -15 -12 -29.5t-8 -25.5q-2 -14 1 -28.5t1 -28.5q-2 -20 -9.5 -39t-5.5 -44q3 -34 12 -69t18 -67
q17 -4 30.5 -13t25.5 -20t23.5 -22.5t25.5 -19.5q20 -13 44 -17.5t49 -15.5q-4 14 -11 26t-15.5 22.5l-17 21t-14.5 21.5q-8 14 -15.5 29.5t-10.5 29.5q-4 16 -4.5 37.5t1 44t4 43.5t4.5 37q29 0 56.5 -1t54.5 -6q1 -12 11.5 -22t12.5 -22q1 -7 -2 -14t-2 -14
q2 -18 13.5 -32t19.5 -30q6 -14 10.5 -28t17.5 -20q1 8 7.5 13.5t8.5 13.5q2 5 0.5 9.5t-0.5 9.5q2 11 7 20.5t6 21.5q2 25 5 42t4 43q2 26 2 55.5t-5 50.5q-2 5 -3.5 9.5t-6.5 7.5q3 0 6.5 -0.5t1.5 4.5q-12 19 -16 43t-12 47q-2 4 -4 7t-3 5q-4 10 -3 18.5t-1 18.5
q-2 14 -10.5 21.5t-15.5 17.5q-7 11 -11 21t-13 18q-15 -5 -33 -1t-31 -1z" />
    <glyph glyph-name="r" unicode="r" horiz-adv-x="798" 
d="M454 462q6 -12 14 -22t15 -21t13 -21.5t14 -21.5q16 -19 34 -36t32 -37q12 -18 20.5 -37t26.5 -33q8 -25 19.5 -45t15.5 -48q-11 -8 -21.5 -12t-21.5 -10q-16 -9 -29 -22.5t-26 -27.5t-26 -26t-29 -19q-7 -2 -14.5 -2.5t-13.5 -3.5q-8 -3 -12.5 -8.5t-14.5 -8.5
q-14 22 -17 46t-10 49q-7 26 -19.5 48.5t-28.5 42.5t-33 39t-33 37q-17 19 -32 39.5t-29.5 41t-30 39t-33.5 35.5q0 -12 2 -23.5t0 -24.5q-1 -11 -6 -18.5t-7 -16.5q-5 -17 -3.5 -36t-0.5 -38q-2 -22 -8 -43t-12.5 -42.5t-11.5 -43t-3 -44.5q-15 -4 -32.5 -5.5t-35.5 -1
t-35 3t-31 5.5q2 44 10.5 79.5t20.5 70.5q10 28 22 55t23 53q1 22 8 39t9 37q3 18 2.5 38t0 39.5t3.5 37t14 32.5q4 27 5.5 56.5t4 58t7.5 54.5t16 47q-4 9 -4.5 21.5t1 26t4 26.5t4.5 23q-12 8 -18.5 20.5t-4.5 31.5q12 2 21 3t20 3q13 4 25 11.5t23 9.5q7 2 13 -0.5
t13 -0.5q8 1 13.5 6t13.5 7t17.5 1t19.5 1q12 2 23 6.5t23 9t25.5 7t30.5 0.5q15 -2 30.5 -9.5t33.5 -11.5q14 -2 29.5 -2t29.5 -6q7 -3 15 -10t15.5 -16t13.5 -18t10 -16q4 -8 5.5 -17t6.5 -20q3 -8 8 -15.5t7 -15.5q6 -17 9 -37.5t4 -42t-2 -42.5t-9 -37q-3 -8 -9.5 -16
t-11.5 -17q-11 -20 -19.5 -40t-17.5 -32q-6 -8 -14.5 -12.5t-16.5 -12.5q-12 -11 -21 -25.5t-20 -28.5q-8 -10 -17.5 -17t-13.5 -20zM357 735q-14 6 -18.5 21.5t-7 33t-6.5 34t-16 24.5q-3 5 -6.5 0.5t-5.5 -0.5q-5 11 -20 14t-29 0q7 -34 4 -63t-8 -64q-2 -14 -6.5 -26.5
t-6.5 -25.5q-2 -14 -2 -28t-1 -27.5t-4 -26.5t-11 -25q14 -5 28 -5.5t28.5 1t29 4t29.5 2.5q9 38 18 75t11 82zM442 718q4 -20 2 -39t0 -44q6 2 14 10t14 15q-2 25 5 50t10 51q-10 4 -17.5 11.5t-15 14.5t-16 12.5t-21.5 7.5q-2 -14 1 -25.5t7.5 -22t9.5 -20.5t7 -21z" />
    <glyph glyph-name="s" unicode="s" horiz-adv-x="665" 
d="M312 455q-21 6 -32 18t-25 28q-19 23 -46.5 46t-55.5 42q-12 8 -27 18.5t-28 21.5t-27.5 24.5t-19.5 23.5q-4 8 -5 16.5t-2.5 16.5t-4 16t-8.5 14q-1 24 6.5 47t10.5 43q1 8 0.5 15t1.5 15q4 17 15 32t21 29q9 13 22 28t26 20q5 2 10 1t10 1q6 2 10 8t12 10q10 6 25.5 8
t33 2t36 -1t36.5 1q5 1 8.5 1.5t9.5 -4.5q22 6 40.5 3.5t33.5 -9.5t27.5 -17.5t23.5 -21.5q9 -10 17 -18t13 -17t7 -20.5t-1 -27.5q-11 -12 -21 -23.5t-24 -19.5q-31 -3 -62 0.5t-60.5 8.5t-55.5 8t-47 -2q-9 -2 -21 -12t-13 -23q0 -9 3 -15.5t8 -11l10 -9t9 -10.5
q17 -7 32 -18t28.5 -24t26.5 -26t26 -25q23 -21 45.5 -42t47.5 -40q5 -14 13.5 -27.5t17.5 -27t18 -28t16 -30.5q4 -9 6 -20t5 -23q3 -10 8.5 -19t8.5 -19q3 -11 5.5 -23t6.5 -23q7 -26 9.5 -54t-3.5 -62q-2 -8 -5.5 -16.5t-5.5 -17.5q-2 -10 -2 -20.5t-2 -18.5
q-4 -17 -15.5 -31.5t-20.5 -28.5q-10 -15 -21 -27t-21 -26q-16 -7 -29 -15t-26.5 -14.5t-31 -10t-42.5 -2.5q-14 1 -29 0.5t-29 1.5q-20 3 -42.5 15t-42.5 23t-38 25t-37 22q-6 2 -12.5 2.5t-11.5 2.5q-14 5 -23.5 20t-20.5 23q2 12 -2 32t-7 40t-1.5 37.5t15.5 24.5
q7 4 25 4t30 -4q8 -2 16 -7.5t19 -9.5q19 -7 37.5 -11t30.5 -10q8 -5 13.5 -10.5t11.5 -7.5q14 -6 28 -4.5t33 -0.5q14 -2 27 -8.5t35 -3.5q20 3 37.5 18t20.5 32q2 14 -2.5 31t-9.5 30q-5 17 -7.5 32t-7.5 26q-5 13 -13 22.5t-16 19.5t-14.5 21t-7.5 27z" />
    <glyph glyph-name="t" unicode="t" horiz-adv-x="817" 
d="M681 859q-12 -2 -24.5 -1t-26.5 -1q-5 -1 -9.5 -4t-10.5 -4q-12 -2 -25 -3t-25.5 -2t-23.5 -3.5t-18 -8.5q-5 -4 -6 -9.5t-8 -5.5q6 -14 7.5 -29.5t1 -32t-1 -33.5t1.5 -33q1 -9 4 -16.5l6 -15t3.5 -16t-2.5 -21.5q-1 -5 -5 -9.5t-6 -10.5q-5 -15 -6 -35.5t1 -36.5
q2 -14 7.5 -27t7.5 -27q2 -19 0 -41.5t0 -44.5q1 -13 3 -26t0 -24q-1 -6 -4.5 -10.5t-5.5 -9.5q-4 -13 -4 -27t1.5 -28.5t2.5 -29.5t0 -30q-2 -22 -2.5 -44.5t-4.5 -45.5q-1 -6 -3 -11t-3 -10q-4 -20 0 -41t-2 -41q-24 1 -45.5 -6t-41.5 -2q-11 3 -19 12t-13.5 21t-9 26.5
t-6.5 27.5q9 38 9 78.5v82.5q0 20 6.5 39.5t8.5 39.5q2 17 -0.5 33.5t-2.5 32.5q-1 15 2.5 29t-6.5 26q6 18 5 36.5t-4.5 37.5t-7 38.5t-1.5 37.5q1 10 4.5 18.5t3.5 18.5q1 17 -0.5 32.5t0.5 34.5q2 13 3 26t6 26q2 7 4.5 15t3 15.5t-3 14.5t-13.5 11q-7 2 -19 2t-24 1
q-18 2 -39.5 4.5t-43.5 0.5q-8 -1 -14.5 -3.5t-13.5 -3.5q-18 -2 -39.5 0t-41.5 0q-17 -1 -31 -4t-26 -1q-17 4 -32.5 17t-26.5 22q0 17 -7.5 29.5t-12.5 26.5q-4 11 -4 21.5t-8 16.5q24 8 55.5 13.5t58.5 13.5q45 12 92 18t110 6q19 0 38 1.5t36 -0.5q39 -3 76 -6.5
t75 -1.5q8 0 15 -2t14 -1q12 0 25 4t25 6q12 1 20.5 -1t10.5 9q4 -6 8 -12.5t12 -10.5q1 -32 6 -58t4 -60z" />
    <glyph glyph-name="u" unicode="u" horiz-adv-x="734" 
d="M549 973q-3 -11 -2 -20t4 -18t5.5 -18.5t1.5 -20.5q-2 -10 -5.5 -19.5t-3.5 -20.5q0 -23 8.5 -42t15.5 -36q8 -26 9 -52t-1 -52q-2 -23 1 -47t-1 -47q-5 -30 -5 -63.5t1.5 -68.5t2 -69.5t-3.5 -67.5q-2 -10 -5.5 -19t-4.5 -18q-2 -17 0.5 -31.5t-3.5 -28.5t-16 -31
t-18 -29q-4 -6 -9.5 -10.5t-8.5 -10.5q-7 -11 -10 -22.5t-9 -22.5q-4 -7 -9.5 -12t-10.5 -11q-11 -15 -18.5 -32t-23.5 -28q-11 5 -15.5 1.5t-14.5 -5.5q-12 -2 -27 -1t-30 4t-28.5 7t-21.5 9q-10 5 -23.5 18t-23.5 22l-43 43q-3 2 -8 2.5t-7 2.5q-15 11 -25.5 26.5
t-23.5 29.5q-6 6 -13.5 11t-12.5 12t-8 15.5t-8 16.5q-7 11 -18 22t-8 28q-2 2 -4 1t-3 4q-8 18 -9.5 42t-3.5 48q1 7 -3.5 8t-5.5 6q9 37 1.5 71t-12.5 73q-2 10 -1 20.5t-1 20.5q-1 6 -4.5 12.5t-3.5 13.5q-1 5 1 11t2 12q0 8 -2 17.5t-3 19.5q-2 25 -1.5 52t-1.5 51
q-1 7 -3 13t-2 13q-2 10 1 19.5t2 18.5q-2 14 -9 31t-5 34q2 14 10 24t16 21q11 -2 20 7t21 12q8 2 16.5 2t16 1t13.5 3.5t10 10.5q3 -4 -2 -7.5t-7 -6.5q6 -12 7 -26t3 -29q2 -11 6 -20t4 -20q0 -5 -2 -10t-3 -10q-3 -35 5 -64t14 -58q5 -23 5.5 -45t9.5 -39q1 -5 5 -5.5
t6 -2.5q-5 -17 -4 -32.5t5 -30.5t8.5 -29t7.5 -29q4 -22 4 -42t8 -40q2 -5 6 -10.5t6 -11.5t1 -13.5t0 -14.5q2 -11 7 -22.5t7 -22.5q2 -14 -1.5 -27t-2.5 -27q1 -15 7.5 -26t16 -21t20 -18t20.5 -17q6 -5 14 -13t13 -10q6 -2 13 0t13.5 2.5t12 -1t7.5 -8.5q4 10 12 10.5
t15 3.5q7 2 15 8t12 12q9 13 12.5 29t4.5 33.5t1 35.5t2 36q2 12 6 23t7 23t5 26t-1 31q-2 16 -7 33t-3 31q1 5 4.5 10t5.5 10q4 19 3 37.5t-4 36.5t-5.5 35.5t-0.5 35.5q1 6 3.5 10t3.5 9q3 23 -4 42q-3 10 -10.5 17.5t-10.5 18.5q-2 7 -1 15.5t-1 16.5t-4.5 15.5
t-3.5 14.5q-2 8 0 14.5t0 14.5q-3 12 -12.5 21t-14.5 21q-8 21 -3.5 34t21.5 24q8 5 14.5 11.5t12.5 10.5q9 6 18.5 10t11.5 17q8 0 11.5 3t8.5 5q17 -5 34 -10.5t28 -16.5z" />
    <glyph glyph-name="v" unicode="v" horiz-adv-x="767" 
d="M384 0q-21 24 -46 48t-49 50q-11 12 -19.5 26.5t-19.5 29.5q-13 18 -23.5 38t-10.5 46q-7 16 -10 33.5t-5.5 35.5l-5 36t-8.5 33q-8 20 -14.5 35t-20.5 27q-5 29 -17.5 52t-23.5 46q2 14 -3 26.5t-13.5 24.5t-17.5 23.5t-15 24.5q-4 8 -6.5 19t-5.5 21q-3 9 -7.5 19
t-6.5 18t-1 16t-1 16q-2 15 -9 28t-10 30q-5 22 -3.5 46.5t-1.5 50.5q5 7 14 11t19 6.5t19.5 4.5t17.5 7q20 -11 31 -29t23 -36q4 -7 10 -13t11 -13q15 -25 24.5 -53.5t17.5 -58t17.5 -58t24.5 -53.5q1 -5 -1 -9t0 -6q13 -17 21.5 -39t17.5 -45q3 -8 7.5 -15.5t6.5 -13.5
q3 -14 2 -26.5t3 -24.5q3 -10 7 -18.5l8 -17t7.5 -18t3.5 -19.5q8 -13 10 -37q14 -15 21.5 -9.5t11 21t4.5 35.5t4 33q3 11 5 23t5 24q2 11 3 23.5t4 25.5q6 20 16 43.5t6 51.5q-2 7 -5.5 12t-4.5 10q-1 8 2 18.5t5 20.5q1 9 3 18.5t3 19.5q1 18 0 36t3 32q1 6 5 12t5 11
q2 7 1 13.5t1 12.5q3 13 8.5 25.5t9.5 25.5q7 20 11 40t8 41q6 6 10.5 13.5t9 15.5t10.5 14t15 9q8 2 20 0t22 3q8 3 19 -0.5t23 -1.5q5 -3 8.5 -8t8.5 -10q3 -5 8.5 -10t6.5 -10q2 -8 -3.5 -18.5t-3.5 -21.5q1 -5 4.5 -9.5t4.5 -8.5q1 -6 -2.5 -14t-8 -16l-9 -16t-6.5 -15
q-4 -15 -2 -30.5t0 -29.5q-2 -19 -11 -34t-11 -33q-1 -5 0.5 -10.5t0.5 -10.5q-1 -8 -5 -14.5t-6 -13.5q-2 -11 -1.5 -23t-1.5 -23q-2 -7 -4.5 -13.5t-2.5 -13.5q-1 -6 1 -11.5t2 -11.5q-1 -15 -6.5 -33t-10.5 -34q-5 -18 -7.5 -36t-7.5 -33q-2 -6 -7 -10.5t-7 -12.5
t-1.5 -16.5t-1.5 -18.5q-2 -7 -4.5 -13.5t-4.5 -13.5q-3 -14 -4 -27.5t-4 -26.5q-5 -22 -15.5 -49t-10.5 -53q-12 -25 -22 -54.5t-18 -58.5q-5 -20 -9.5 -39.5t-19.5 -30.5q-2 -2 -5 -2h-6t-5.5 -1t-1.5 -5z" />
    <glyph glyph-name="w" unicode="w" horiz-adv-x="1044" 
d="M809 5q-19 -5 -39 -5t-38.5 4.5t-33.5 13t-24 20.5q1 24 -7 38t-17 34q-17 36 -35.5 68t-35.5 71q-11 26 -22.5 52t-25.5 46q-10 14 -23.5 27t-25.5 27q-6 6 -11.5 14.5t-11.5 15.5q-5 5 -13 11t-18 -1q3 -4 3 -10t-1 -13t-2.5 -15t-0.5 -15q-17 -19 -40.5 -41.5
t-31.5 -51.5q-7 -25 -7.5 -51t-8.5 -52q-7 -25 -13.5 -48.5t-3.5 -49.5q-8 -9 -13 -24t-11 -28.5t-16 -22t-29 -5.5q-6 1 -11 6.5t-13 10.5q-7 4 -12.5 6.5t-10 4.5t-9 5.5t-9.5 9.5q-4 5 -8 13t-9 16q-8 11 -14 18t-10 21q-2 9 -2.5 19t-4.5 19q-5 13 -11.5 34t-5.5 40
q1 17 3.5 30.5t0.5 29.5q-3 23 -13 39.5t-15 37.5q-2 11 -2.5 22.5t-2.5 22.5q-3 11 -6.5 23t-5.5 23q-3 20 -4 37.5t-11 29.5q2 24 -2 43t-12 41q-3 7 -7 13.5t-5 11.5q-2 7 -0.5 13.5t0.5 12.5q-2 14 -9.5 28t-7.5 30q0 13 1 25.5t0.5 23.5t-3.5 20t-12 17q3 13 3 26
t-0.5 26t0 26t4.5 25q5 8 17.5 9.5t25.5 6.5q8 2 15.5 8.5t15.5 4.5q10 -2 14.5 -11.5t12.5 -15.5q-3 -9 -1.5 -18t5.5 -17t9 -17t8 -18q5 -18 6.5 -38.5t8.5 -40.5q5 -14 9.5 -29.5t9.5 -32.5q2 -9 6 -17.5t6 -16.5t1 -15.5t1 -15.5q3 -14 11 -24.5t11 -23.5q2 -7 1 -13.5
t1 -14.5q2 -15 7.5 -29.5t7.5 -30.5q3 -24 3.5 -49t15.5 -45q9 4 14.5 10.5t17.5 6.5q1 5 0.5 10.5t1.5 8.5q21 19 39.5 40t20.5 59q2 6 6 6t6 3q2 8 3 16t4 15q19 19 44 31.5t47 28.5q10 -3 17.5 -1.5t13.5 5t11.5 8t12.5 7.5q12 -4 24.5 -7t21.5 -9q-1 -7 1 -11t1 -11
q13 -11 24.5 -22t28.5 -19q2 -9 -0.5 -18t-1.5 -20q1 -12 7.5 -21t14.5 -17.5t15.5 -17t10.5 -18.5q3 -8 3 -15t2 -15q8 -29 23 -52t25 -46q-5 18 -2 36.5t7.5 37t9 38t4.5 39.5q0 9 -2 18.5t-1 18.5q1 11 3.5 22.5t3.5 22t-1.5 19.5t-12.5 15q6 10 8.5 23t2.5 28t-1 31.5
t0 32.5q1 7 3 14.5t2 13.5q1 12 -2.5 22.5t-2.5 21.5q1 10 5.5 19.5t8 18.5t5 19t-2.5 22q13 12 18.5 29t17.5 29q5 5 10.5 7.5t9.5 6.5q11 11 17.5 25t18.5 25q9 -2 18 -1t17.5 1t15 -2t11.5 -10q-1 -30 -0.5 -60t-6.5 -58q-2 -8 -5.5 -16.5t-2.5 -19.5q0 -8 4 -14.5
t6 -13.5q3 -15 1 -30t-5.5 -28.5t-7.5 -27t-5 -25.5q-2 -17 1.5 -32.5t3.5 -29.5q0 -11 -2.5 -22.5t-4.5 -27.5q-1 -8 -4 -16t-3 -13q1 -11 6.5 -20t7.5 -18q3 -23 0.5 -47t-2.5 -47q0 -29 1 -57t-2 -54q-3 -20 -8.5 -41t-7.5 -42q-1 -6 1 -12.5t1 -13.5q-3 -21 -14.5 -41
t-13.5 -44q0 -6 1.5 -11.5t0.5 -11.5q-3 -23 -11.5 -45t-12.5 -44z" />
    <glyph glyph-name="x" unicode="x" horiz-adv-x="753" 
d="M400 591q-1 -16 0 -30.5t0 -29.5q-1 -6 -3 -13.5t-1 -14.5q1 -4 5 -10t9 -12.5t10 -12.5t8 -10q26 -33 48 -67t45 -69q23 -12 35.5 -38t25.5 -53q4 -9 8 -18.5t6 -16.5q2 -14 0 -28t0 -27q1 -16 6 -31t9.5 -30t6 -29.5t-2.5 -29.5q-5 -10 -16 -14.5t-25 -5.5t-30 -0.5
t-32 1.5q-12 0 -22.5 -1t-16.5 1q-7 2 -15 11t-15 21.5t-12.5 26.5t-6.5 26q-1 11 0.5 21.5t-0.5 18.5q-4 34 -15.5 65t-27.5 58t-34 49.5t-34 41.5q-14 -22 -33 -38.5t-36 -35.5q-45 -51 -82 -108t-75 -115q-8 -2 -19.5 -2t-19.5 2q-17 11 -23.5 34t-14.5 44q4 12 7.5 23
t1.5 26q5 13 14 26t14 28q2 7 1.5 14t1.5 14q2 6 5.5 12t6 12t3.5 12.5t-1 14.5q11 17 23.5 33t23.5 34q18 27 36 56.5t47 47.5q1 10 3.5 16.5t6.5 13.5q3 19 -1.5 33t-12 26.5t-15.5 23.5t-13 24q-3 8 -3.5 15.5t-3.5 15.5q-10 28 -28.5 53t-34.5 52q-5 9 -6.5 19.5
t-5.5 20.5q-3 8 -8.5 15.5t-7.5 16.5q-3 12 -4 26t-3 28q-2 18 1 38t3 43q20 3 33.5 12t29.5 17q27 -15 49.5 -39.5t42.5 -52.5q7 -9 14.5 -20t10.5 -19q4 -10 4.5 -20.5t2.5 -19.5q8 -29 23 -55t26 -57q16 9 25 24.5t16 33.5t15 35t22 28q-4 13 -2 25.5t5 24t4.5 22.5
t-1.5 22q6 7 9.5 18t6 23t5 23.5t8.5 19.5q10 -5 19.5 -5.5t18.5 -0.5t18 -2t18 -9q10 -10 17 -26.5t2 -31.5q9 -50 1.5 -93.5t-23.5 -83t-35 -76t-32 -72.5q1 -7 -5 -6.5t-9 -2.5z" />
    <glyph glyph-name="y" unicode="y" horiz-adv-x="605" 
d="M464 972q-3 -16 -0.5 -31t-5.5 -26q7 -5 7 -14t-3.5 -19.5t-7.5 -21.5t-4 -20q1 -5 3 -8t1 -6q0 2 -2 1.5t-3 1.5l-2.5 -10t0.5 -10q-14 -11 -19 -29.5t-8 -38.5q-3 -17 -10.5 -32.5t-6.5 -30.5q-11 -11 -10 -29t-1 -33q-2 -8 -6 -14.5t-6 -14.5q-8 -29 -12.5 -61
t-12.5 -64q-2 -13 -6 -24t-6 -23q0 -4 0.5 -7t-0.5 -6q-4 -20 -11.5 -37.5t-13.5 -34.5q-8 -26 -10.5 -50.5t-19.5 -43.5q2 -11 -1.5 -17t-4.5 -17q-11 -14 -21.5 -28.5t-15.5 -31.5q-4 -13 -6.5 -24t-10.5 -21q-5 -6 -10 -11l-10 -10q-13 -17 -28 -32t-33 -26
q-12 9 -20.5 22.5t-17.5 27.5q-5 8 -11.5 17t-5.5 19q1 11 8.5 21t17 20t18.5 19t14 17q8 13 8.5 29.5t5.5 30.5q5 12 13 24t13 24q4 9 7.5 18t5.5 17q5 14 5.5 28t4.5 25q2 8 7 15t8 15q6 16 5 32.5t7 33.5q-18 16 -29.5 38t-23.5 45q-11 21 -25 37.5t-26 36.5
q-4 17 -8.5 31.5t-14.5 25.5q-2 26 -13.5 47.5t-24.5 41.5q-2 2 -2 5.5t-2 5.5q-2 4 -6.5 6.5t-7.5 6.5q-5 8 -8.5 18.5t-8.5 20.5t-11 18.5t-8 17.5q-3 11 -4 21.5t-10 18.5q2 16 3 34t4 33.5t9.5 27t19.5 15.5q7 -1 14 -1.5t14 -2.5q9 -10 17.5 -19t14.5 -21q5 -8 5.5 -18
t4.5 -19q4 -8 9.5 -16t10.5 -16t10 -17t8 -17t3 -18t3 -18q4 -11 11 -20.5t11 -20.5q5 -11 7.5 -22t8.5 -22q5 -10 12.5 -17.5t11.5 -18.5q5 -1 13 -5q7 -7 11 -15.5t10 -16.5q5 0 8 -1.5t9 -1.5q0 -12 4.5 -20.5t10.5 -16.5q8 11 7.5 24.5t2.5 27.5q1 5 3.5 8t3.5 8
q4 14 4.5 27.5t3.5 26.5q2 8 6 15.5t6 14.5q2 8 3 12.5t3 9.5q5 11 4.5 24t8.5 23q-6 6 -5 11.5t4.5 10.5t9 10t8.5 10q4 7 6 15t5 16q3 5 8 10.5t3 13.5q10 1 15.5 10t15.5 14q14 7 31 3t22 -17z" />
    <glyph glyph-name="z" unicode="z" horiz-adv-x="870" 
d="M791 903q-10 -12 -16.5 -27t-18.5 -24q-7 -5 -15 -8t-14 -8q-4 -4 -7 -10.5t-8 -11.5q-8 -11 -15.5 -18.5t-13.5 -20.5q1 -4 3 -6.5t1 -7.5q-16 -22 -30.5 -45.5t-30 -46t-32.5 -43.5t-39 -37q2 -12 -0.5 -20.5t-8 -15.5t-12.5 -13.5t-13 -13.5q-17 -22 -35.5 -40.5
t-48.5 -24.5q-15 -67 -74 -89q-2 -5 -1.5 -12t0 -13.5t-3 -10.5t-11.5 -2q2 -8 0.5 -13t-4.5 -9.5t-7.5 -8t-8.5 -6.5v-11q-11 -8 -18.5 -18t-18.5 -18v-14q-10 -11 -19 -22t-16 -25q-2 -2 -3.5 -3t-5.5 0q-3 -7 -5.5 -13t-7.5 -11q-5 -7 -12.5 -12.5t-4.5 -16.5
q16 5 31.5 0.5t32.5 -4.5q25 -1 52 -0.5t54 -2.5q15 -2 30.5 -5.5t31.5 -5.5q18 -2 35 -3t34 -3q5 0 10.5 -1.5t10.5 -1.5q11 2 24.5 7.5t31.5 2.5q7 -1 16 -4t19 -6q13 -4 22 -12.5t21 -17.5q8 -5 17 -9t16 -9q4 -3 9.5 -8.5t9.5 -12t5 -13t-3 -10.5q-3 -3 -9.5 -3
t-14.5 -2q-11 -2 -21.5 -4.5t-18.5 -3.5q-19 -2 -37.5 0t-35.5 3q-17 0 -32 -0.5t-35 3.5q-12 2 -24.5 5.5t-24.5 5.5q-36 3 -70 0q-12 -2 -23.5 -4t-22.5 0q-8 1 -14 2t-17 -1q-20 -2 -42 -0.5t-42 -0.5q-24 -2 -45.5 -2t-49.5 2q-17 1 -33 3.5t-29 0.5t-26.5 -7.5
t-27.5 -1.5q-5 12 -5 27t-3 30q-2 9 -7.5 16.5t-5.5 15.5q0 7 5 10.5t5 9.5q33 23 58 54.5t54 57.5q2 2 5 2t5 1q16 18 31 36.5t28 38.5q11 7 19 15.5t16 17.5l17 17t16 19q7 9 12.5 18.5t11 19.5t12.5 18.5t17 14.5q2 8 6.5 14.5t7.5 15.5q20 12 32 30t25 38q14 22 32 40.5
t35 37.5q18 20 29.5 43t30.5 43q8 12 6.5 25t-21.5 13q-20 14 -48 21t-58.5 11t-62.5 7t-60 9q-4 5 -8 8.5t-9 7.5q-12 -1 -24.5 -4.5t-25 -6t-24 -2.5t-21.5 7q-14 -1 -33 3.5t-34 6.5q-6 1 -12 1t-10.5 1t-7 4t-1.5 10q-5 -4 -15 -3.5t-17 2.5q-4 0 0 4.5t4 6.5
q-3 20 5 34q3 6 8.5 11t10 10t7.5 10t2 12q10 -9 30 -7q5 0 4 5t3 5q8 1 16 1t16 2q9 33 34 55q16 2 29.5 5t29.5 5q5 0 4 3t1 4q12 1 21.5 2t20.5 1q38 -20 80 -31t94 -13q16 -1 31.5 1t31.5 0q8 -1 18 -1.5t22 -2.5q6 -1 12.5 -3.5t14.5 -3.5q3 -1 6.5 0t7.5 0t7.5 -3
t7.5 -3q23 -5 41.5 -5.5t32.5 -12.5q23 3 45 -0.5t32 -16.5q8 1 13.5 -0.5t13.5 -1.5z" />
    </font>
</defs>
</svg>
